<svg xmlns="http://www.w3.org/2000/svg" viewBox="0 0 35.77 11.65"><defs><style>.cls-1{fill:#35221a;}</style></defs><g id="Camada_2" data-name="Camada 2"><g id="Layer_2" data-name="Layer 2"><path class="cls-1" d="M23.26,11.15a11.66,11.66,0,0,1-1.79-.66,7.85,7.85,0,0,1-3.58-3,7.83,7.83,0,0,1-3.57,3,12.86,12.86,0,0,1-1.79.67,11.81,11.81,0,0,1-6.64,0A8.37,8.37,0,0,1,.62,6.55,9.41,9.41,0,0,1,0,5a.75.75,0,0,1,1.35-.63c1.08,1.32,2,1.77,2.76,1.69a4.72,4.72,0,0,0,2.49-1.5l.83-.82c.62-.62,1.31-1.3,2-1.9C11.8-.12,14.07-.35,15.78.39a4.67,4.67,0,0,1,2.11,1.82A4.75,4.75,0,0,1,20,.39c1.71-.73,4-.51,6.29,1.44.71.6,1.39,1.27,2,1.9l.83.82a4.65,4.65,0,0,0,2.49,1.5c.83.08,1.69-.37,2.76-1.69a.75.75,0,0,1,1.05-.18.75.75,0,0,1,.29.82,10.13,10.13,0,0,1-.58,1.56,8.41,8.41,0,0,1-5.27,4.62,11.72,11.72,0,0,1-6.64,0"/></g></g></svg>