<svg xmlns="http://www.w3.org/2000/svg" viewBox="0 0 24.57 27.65"><defs><style>.cls-1{fill:#35221a;}</style></defs><g id="Camada_2" data-name="Camada 2"><g id="Layer_2" data-name="Layer 2"><path class="cls-1" d="M4.25,0a4.07,4.07,0,0,0-1,5.64L9.8,15,7.41,18.44a4.94,4.94,0,1,0,1.95,2.08l2.93-4.18,2.92,4.18a4.95,4.95,0,1,0,2-2.08L14.78,15l6.57-9.39a4.07,4.07,0,0,0-1-5.64l-8,11.47ZM7.51,22.71A2.56,2.56,0,1,1,5,20.15,2.56,2.56,0,0,1,7.51,22.71Zm14.67,0a2.56,2.56,0,1,1-2.55-2.56A2.56,2.56,0,0,1,22.18,22.71Z"/></g></g></svg>