<svg xmlns="http://www.w3.org/2000/svg" viewBox="0 0 35.03 36.49"><defs><style>.cls-1{fill:#35221a;}</style></defs><g id="Camada_2" data-name="Camada 2"><g id="Layer_2" data-name="Layer 2"><path class="cls-1" d="M25.7,17.75a5.69,5.69,0,0,1-1.09-.41,5.38,5.38,0,0,1-7.1-.22,5.41,5.41,0,0,1-3.66,1.45,5.34,5.34,0,0,1-3.43-1.23,6,6,0,0,1-1.09.41,5.4,5.4,0,0,1-3.14,3.8v4a10.92,10.92,0,0,0,21.83,0V21.12A5.4,5.4,0,0,1,25.7,17.75ZM17.18,31A4.2,4.2,0,0,1,13,27.32h8.33A4.22,4.22,0,0,1,17.18,31Z"/><path class="cls-1" d="M31.11,12.55h0A4.08,4.08,0,0,0,27,8.47a4.76,4.76,0,0,0-.75.07,4.24,4.24,0,0,0,.1-.88,4.08,4.08,0,0,0-4.07-4.08,4,4,0,0,0-1.88.47,4.79,4.79,0,0,0-6.29-.2A4.06,4.06,0,0,0,8.63,7.66a4.24,4.24,0,0,0,.1.88A4.54,4.54,0,0,0,8,8.47a4.07,4.07,0,0,0-4.07,4.07h0a4.07,4.07,0,1,0,4.24,4.07h0a4.12,4.12,0,0,0,2.47-.95,4.06,4.06,0,0,0,6.9-.7,4.07,4.07,0,0,0,6.91.7,4.09,4.09,0,0,0,2.46.95h0a4.08,4.08,0,1,0,4.23-4.07Z"/><circle class="cls-1" cx="29.16" cy="5.38" r="1.3"/><path class="cls-1" d="M7.49,5.7a1.3,1.3,0,1,1-1.3-1.3A1.31,1.31,0,0,1,7.49,5.7Z"/><circle class="cls-1" cx="25.41" cy="1.3" r="1.3"/></g></g></svg>