<svg xmlns="http://www.w3.org/2000/svg" viewBox="0 0 27.26 30.04"><defs><style>.cls-1{fill:#35221a;}</style></defs><g id="Camada_2" data-name="Camada 2"><g id="Layer_2" data-name="Layer 2"><path class="cls-1" d="M11.25,5.26h-8C1.3,8.14,0,13.07,0,18.69A28.47,28.47,0,0,0,2.12,30H12.4a28.47,28.47,0,0,0,2.12-11.35C14.52,13.07,13.22,8.14,11.25,5.26Z"/><path class="cls-1" d="M14.11,30h12V23.33H15.8A27.12,27.12,0,0,1,14.11,30Z"/><path class="cls-1" d="M16.09,17.81c0,.29,0,.58,0,.88q0,1.86-.18,3.66H27.26V17.81Z"/><polygon class="cls-1" points="11.2 0.81 9.44 0.81 9.44 0 4.99 0 4.99 4.36 9.44 4.36 9.44 2 11.2 2 11.2 0.81"/><polygon class="cls-1" points="16.63 4.23 17.75 1.85 18.87 4.23 21.26 5.35 18.87 6.47 17.75 8.85 16.63 6.47 14.25 5.35 16.63 4.23"/><polygon class="cls-1" points="21.55 11.42 22.23 9.98 22.9 11.42 24.34 12.1 22.9 12.77 22.23 14.21 21.55 12.77 20.11 12.1 21.55 11.42"/></g></g></svg>