<svg id="Camada_1" data-name="Camada 1" xmlns="http://www.w3.org/2000/svg" viewBox="0 0 1920 1080"><rect y="105" width="1920" height="975" fill="#f9f5f2"/><rect y="-0.24" width="1920" height="105.46" fill="#202020"/><path d="M1727.46,73.26c1-3.55,1.91-7,2.87-10.49a.86.86,0,0,0-.07-.7,21,21,0,0,1,8.41-28.67,19.84,19.84,0,0,1,12.62-2.32c8.74,1.31,14.59,6.25,17.39,14.59a21,21,0,0,1-20.52,27.24,20.41,20.41,0,0,1-9.29-2.41.76.76,0,0,0-.59-.06l-10.35,2.72Zm5-5,.26-.06c1.91-.5,3.83-1,5.74-1.52a1.35,1.35,0,0,1,1.15.17,17,17,0,0,0,16.58.73,17.46,17.46,0,0,0-10.31-33,16.9,16.9,0,0,0-8.9,4.24,17.46,17.46,0,0,0-3,22.53,1,1,0,0,1,.14.9C1733.58,64.27,1733.06,66.24,1732.5,68.28Z" fill="#fff"/><path d="M1741.84,42.22c.94-.25,1.36.35,1.67,1.18.48,1.21,1,2.41,1.5,3.61a1.09,1.09,0,0,1-.08,1.13,20.67,20.67,0,0,1-1.28,1.68.81.81,0,0,0-.08,1.08,14.43,14.43,0,0,0,7.21,6.2.83.83,0,0,0,1.06-.26c.52-.65,1.06-1.3,1.58-2,.36-.45.55-.54,1.09-.33,1.53.62,3,1.38,4.45,2.12a.63.63,0,0,1,.33.62c0,2.25-.71,3.35-3.11,4.35a6.19,6.19,0,0,1-4.14,0c-5.06-1.41-8.79-4.59-11.77-8.78a11.91,11.91,0,0,1-2.13-4.27,6,6,0,0,1,1.75-5.88A2.2,2.2,0,0,1,1741.84,42.22Z" fill="#fff"/><path d="M1680.6,30.85h2a.28.28,0,0,0,.42,0h.93c.1.16.26.07.38.08a32.45,32.45,0,0,1,3.82.33A11.47,11.47,0,0,1,1698,41.43a7.23,7.23,0,0,0,.23,1.67V61.62c-.13.05-.07.16-.08.25a18.73,18.73,0,0,1-.34,2.59,11.16,11.16,0,0,1-6.78,8.45,17.24,17.24,0,0,1-6.36,1.13c-4.56.14-9.12.1-13.69.06a29,29,0,0,1-6.76-.57,11.07,11.07,0,0,1-7.78-6.23,15,15,0,0,1-1.29-6q-.27-8.7,0-17.4a17.4,17.4,0,0,1,.57-4.18,11,11,0,0,1,6.77-7.71,17.7,17.7,0,0,1,6.16-1.06c.14,0,.31.09.42-.08h1.69a4.37,4.37,0,0,0,1.35.08h2.15c.16,0,.34.06.47-.08h3.81A5.35,5.35,0,0,0,1680.6,30.85Zm-4,39.38c1.14,0,2.28,0,3.42,0a50,50,0,0,0,7.34-.34,7.33,7.33,0,0,0,6.37-5.44,16.82,16.82,0,0,0,.52-4.35c.13-3.91.09-7.83.07-11.75a48.11,48.11,0,0,0-.32-6.57,7.43,7.43,0,0,0-6-6.55,23.09,23.09,0,0,0-4.54-.4c-3.8-.07-7.6-.07-11.41,0a38.53,38.53,0,0,0-6.44.36,7.32,7.32,0,0,0-6.2,5.69,20.22,20.22,0,0,0-.45,4.52c-.1,3.51-.09,7-.06,10.53a54.82,54.82,0,0,0,.31,7.25,7.52,7.52,0,0,0,3.39,5.58,9.72,9.72,0,0,0,4.7,1.34C1670.41,70.27,1673.53,70.23,1676.64,70.23Z" fill="#fff"/><path d="M1674.68,30.85c-.13.14-.31.08-.47.08h-2.15s0-.06,0-.08Z" fill="#fff"/><path d="M1680.6,30.85a5.35,5.35,0,0,1-2.11,0Z" fill="#fff"/><path d="M1672.06,30.85s0,0,0,.08a4.37,4.37,0,0,1-1.35-.08Z" fill="#fff"/><path d="M1683.05,30.85a.28.28,0,0,1-.42,0Z" fill="#fff"/><path d="M1676.6,63.61a11.12,11.12,0,1,1,11.14-11.1A11.14,11.14,0,0,1,1676.6,63.61Zm-7.18-11.14a7.21,7.21,0,1,0,7.24-7.18A7.19,7.19,0,0,0,1669.42,52.47Z" fill="#fff"/><path d="M1690.77,40.93a2.59,2.59,0,1,1-2.6-2.58A2.59,2.59,0,0,1,1690.77,40.93Z" fill="#fff"/><text transform="translate(491.57 64.59)" font-size="33.8" fill="#fff" font-family="Khand-Medium, Khand" font-weight="500">SOBRE</text><text transform="translate(764.34 64.59)" font-size="33.8" fill="#fff" font-family="Khand-Medium, Khand" font-weight="500">SERVIÇOS</text><text transform="translate(1069.31 64.59)" font-size="33.8" fill="#fff" font-family="Khand-Medium, Khand" font-weight="500">LOJA</text><text transform="translate(1319.09 64.59)" font-size="33.8" fill="#c07c5a" font-family="Khand-SemiBold, Khand" font-weight="600">AGENDAR</text><text transform="translate(147.6 190.36)" font-size="50" fill="#202020" font-family="Khand-SemiBold, Khand" font-weight="600">Carrinho</text><rect x="147.51" y="259.27" width="900.49" height="64.73" rx="6" fill="#fff"/><rect x="1097" y="259.27" width="673" height="323.49" rx="6" fill="#fff"/><rect x="150.7" y="361.02" width="897.49" height="569.87" rx="6" fill="#fff"/><text transform="translate(184.77 411.19)" font-size="34" fill="#202020" font-family="Poppins-SemiBold, Poppins" font-weight="600">Itens do Carrinho</text><text transform="translate(1133.77 318.19)" font-size="34" fill="#202020" font-family="Poppins-SemiBold, Poppins" font-weight="600">Resumo do Pedido</text><text transform="translate(1097 656.23)" font-size="34" fill="#202020" font-family="Poppins-SemiBold, Poppins" font-weight="600">Pagamento</text><path d="M148.37,50.79V59l5.06.84a15.65,15.65,0,0,0,1.6,3.84l-3,4.12,5.81,5.9,4.22-2.91a19.74,19.74,0,0,0,3.84,1.6l.85,5H175l.84-5.06a16.78,16.78,0,0,0,3.84-1.59l4.13,2.9,5.91-5.8-3-4.12a18.91,18.91,0,0,0,1.59-3.93l5.06-.75V50.79L188.31,50a18.15,18.15,0,0,0-1.59-3.84l3-4.21-5.82-5.81-4.22,3a18.17,18.17,0,0,0-3.93-1.59l-.85-5h-8.25l-.84,5.05A20.07,20.07,0,0,0,162,39.18l-4.22-3L151.93,42l3,4.21A18.15,18.15,0,0,0,153.34,50Zm22.47-4.53a8.63,8.63,0,1,1-8.62,8.62A8.6,8.6,0,0,1,170.84,46.26Z" fill="#fff"/><text transform="translate(218.29 299.97)" font-size="24.11" fill="#202020" font-family="Poppins-Regular, Poppins">Enviar para...</text><text transform="translate(222 457.97)" font-size="20" fill="#202020" font-family="Poppins-Regular, Poppins">Todos</text><text transform="translate(380.29 457.97)" font-size="20" fill="#202020" font-family="Poppins-Regular, Poppins">Produto</text><text transform="translate(1133.77 386.97)" font-size="20" fill="#202020" font-family="Poppins-Regular, Poppins">Subtotal</text><text transform="translate(1588.77 399.71)" font-size="35" fill="#202020" font-family="Poppins-Regular, Poppins">R$90,00</text><text transform="translate(558.29 457.97)" font-size="20" fill="#202020" font-family="Poppins-Regular, Poppins">Preço</text><text transform="translate(695.29 457.97)" font-size="20" fill="#202020" font-family="Poppins-Regular, Poppins">Quantidade</text><text transform="translate(893.29 457.97)" font-size="20" fill="#202020" font-family="Poppins-Regular, Poppins">Total</text><path d="M193.73,278a9,9,0,0,0-9,9c0,4.76,8.13,15.88,8.47,16.35l.33.44a.2.2,0,0,0,.32,0l.32-.44c.35-.47,8.48-11.59,8.48-16.35A9,9,0,0,0,193.73,278Zm0,5.75a3.22,3.22,0,1,1-3.21,3.21A3.21,3.21,0,0,1,193.73,283.75Z" fill="none" stroke="#000" stroke-miterlimit="10"/><rect x="185" y="443" width="14.5" height="14.5" fill="none" stroke="#202020" stroke-miterlimit="10"/><rect x="185" y="575.25" width="14.5" height="14.5" fill="none" stroke="#202020" stroke-miterlimit="10"/><rect x="222" y="500" width="126" height="165" fill="#202020"/><text transform="translate(369.92 517.01)" font-size="20" fill="#202020" font-family="Poppins-Regular, Poppins">Creme de barbear</text><text transform="translate(544.92 587.01)" font-size="20" fill="#202020" font-family="Poppins-SemiBold, Poppins" font-weight="600">R$ 20,00</text><text transform="translate(869.92 587.01)" font-size="20" fill="#202020" font-family="Poppins-SemiBold, Poppins" font-weight="600">R$ 40,00</text><path d="M775.31,564h-40a14.5,14.5,0,0,0,0,29h40a14.5,14.5,0,0,0,0-29Zm0,28h-40a13.5,13.5,0,0,1,0-27h40a13.5,13.5,0,0,1,0,27Z" fill="#202020"/><path d="M775.31,564v29h-1V564h1Z" fill="#202020"/><path d="M736.31,564v29h-1V564h1Z" fill="#202020"/><path d="M785.78,579.15h-3.56v3.61h-1.41v-3.61h-3.54v-1.28h3.54v-3.63h1.41v3.63h3.56Z" fill="#202020"/><path d="M732.88,577.86v1.28h-6.66v-1.28Z" fill="#202020"/><text transform="translate(749.56 584.79)" font-size="20" fill="#202020" font-family="Poppins-Regular, Poppins">2</text><rect x="185" y="791.25" width="14.5" height="14.5" fill="none" stroke="#202020" stroke-miterlimit="10"/><rect x="222" y="716" width="126" height="165" fill="#202020"/><text transform="translate(369.92 733.01)" font-size="20" fill="#202020" font-family="Poppins-Regular, Poppins">Minoxidil</text><text transform="translate(544.92 803.01)" font-size="20" fill="#202020" font-family="Poppins-SemiBold, Poppins" font-weight="600">R$ 25,00</text><text transform="translate(869.92 803.01)" font-size="20" fill="#202020" font-family="Poppins-SemiBold, Poppins" font-weight="600">R$ 50,00</text><path d="M775.31,780h-40a14.5,14.5,0,0,0,0,29h40a14.5,14.5,0,0,0,0-29Zm0,28h-40a13.5,13.5,0,0,1,0-27h40a13.5,13.5,0,0,1,0,27Z" fill="#202020"/><path d="M775.31,780v29h-1V780h1Z" fill="#202020"/><path d="M736.31,780v29h-1V780h1Z" fill="#202020"/><path d="M785.78,795.15h-3.56v3.61h-1.41v-3.61h-3.54v-1.28h3.54v-3.63h1.41v3.63h3.56Z" fill="#202020"/><path d="M732.88,793.86v1.28h-6.66v-1.28Z" fill="#202020"/><text transform="translate(749.56 800.79)" font-size="20" fill="#202020" font-family="Poppins-Regular, Poppins">2</text><rect x="1136.56" y="454.21" width="584.29" height="85.79" fill="#202020"/><text transform="translate(1280.47 511.68)" font-size="34" fill="#fff" font-family="Poppins-SemiBold, Poppins" font-weight="600">Finalizar Compra</text><path d="M1198,743.92v.15h.15a.11.11,0,0,0,.08,0,.06.06,0,0,0,0-.06.09.09,0,0,0,0-.06l-.08,0H1198Zm.15-.12a.35.35,0,0,1,.18.05.17.17,0,0,1,.06.15.12.12,0,0,1,0,.12.35.35,0,0,1-.14.06l.2.22h-.15l-.18-.22H1198v.22h-.13v-.6Zm0,.81a.45.45,0,0,0,.2,0,.57.57,0,0,0,.27-.26.55.55,0,0,0,0-.4.55.55,0,0,0-.27-.27.44.44,0,0,0-.2,0,.49.49,0,0,0-.5.49.5.5,0,0,0,.14.36.42.42,0,0,0,.16.11.48.48,0,0,0,.2,0m0-1.15a.68.68,0,0,1,.47.19.65.65,0,0,1,.14.71.77.77,0,0,1-.14.21.74.74,0,0,1-.21.13.67.67,0,0,1-.52,0,.57.57,0,0,1-.35-.35.65.65,0,0,1,.34-.84h0a.58.58,0,0,1,.26-.06m-60.78-2.31a2,2,0,1,1,2,2.09,2,2,0,0,1-2-2.09m5.28,0v-3.25h-1.41v.79a2.48,2.48,0,0,0-2.07-.95,3.42,3.42,0,0,0,0,6.84,2.52,2.52,0,0,0,2.07-1v.79h1.41v-3.27Zm47.86,0a2,2,0,1,1,2,2.09,2,2,0,0,1-2-2.09m5.28,0v-5.87h-1.41v3.41a2.46,2.46,0,0,0-2.06-.95,3.42,3.42,0,0,0,0,6.84,2.51,2.51,0,0,0,2.06-1v.79h1.41ZM1160.18,739a1.61,1.61,0,0,1,1.64,1.58h-3.38a1.68,1.68,0,0,1,1.73-1.58m0-1.27a3.43,3.43,0,0,0,.09,6.85,4,4,0,0,0,2.67-.92l-.69-1a3.08,3.08,0,0,1-1.89.68,1.81,1.81,0,0,1-2-1.59h4.83a4.93,4.93,0,0,0,0-.55,3.12,3.12,0,0,0-3.09-3.42m17.11,3.42a2,2,0,1,1,2,2.09,2,2,0,0,1-2-2.09m5.27,0v-3.25h-1.42v.79a2.46,2.46,0,0,0-2.06-.95,3.42,3.42,0,0,0,0,6.84,2.49,2.49,0,0,0,2.06-1v.79h1.42v-3.27Zm-13.27,0a3.28,3.28,0,0,0,3.47,3.42,3.38,3.38,0,0,0,2.34-.77l-.68-1.15a2.88,2.88,0,0,1-1.71.59,2.09,2.09,0,0,1,0-4.17,2.87,2.87,0,0,1,1.71.58l.68-1.14a3.4,3.4,0,0,0-2.34-.78,3.3,3.3,0,0,0-3.48,3.42m18.26-3.42a1.92,1.92,0,0,0-1.71.95v-.79h-1.4v6.52h1.42v-3.65c0-1.08.46-1.68,1.38-1.68a2.24,2.24,0,0,1,.89.17l.44-1.34a3,3,0,0,0-1-.18m-38,.68a4.89,4.89,0,0,0-2.66-.68c-1.65,0-2.71.79-2.71,2.09,0,1.06.79,1.71,2.24,1.92l.67.09c.78.11,1.15.32,1.15.68s-.52.8-1.49.8a3.42,3.42,0,0,1-2.16-.69l-.67,1.11a4.73,4.73,0,0,0,2.82.85c1.88,0,3-.89,3-2.13s-.86-1.75-2.27-2l-.67-.1c-.62-.08-1.11-.2-1.11-.64s.47-.76,1.24-.76a4.2,4.2,0,0,1,2,.55l.62-1.14Zm18.27-.68a1.92,1.92,0,0,0-1.71.95v-.79h-1.41v6.52h1.42v-3.65c0-1.08.46-1.68,1.39-1.68a2.27,2.27,0,0,1,.89.17l.43-1.34a2.87,2.87,0,0,0-1-.18m-12.08.17h-2.32v-2H1152v2h-1.32v1.29H1152v3c0,1.51.58,2.41,2.26,2.41a3.36,3.36,0,0,0,1.77-.5l-.41-1.21a2.75,2.75,0,0,1-1.25.37c-.71,0-.94-.44-.94-1.09v-3h2.32Zm-21.18,6.51v-4.09a2.44,2.44,0,0,0-2.57-2.59,2.54,2.54,0,0,0-2.29,1.16,2.39,2.39,0,0,0-2.15-1.16,2.16,2.16,0,0,0-1.91,1v-.8h-1.41v6.51h1.42v-3.61a1.53,1.53,0,0,1,1.6-1.73c.94,0,1.42.61,1.42,1.71v3.63h1.43v-3.61a1.53,1.53,0,0,1,1.59-1.73c1,0,1.43.61,1.43,1.71v3.63Z" fill="#231f20"/><path d="M1198.79,722.73v-1h-.25l-.28.65-.29-.65h-.24v1h.17V722l.27.62h.18l.27-.62v.71h.17Zm-1.57,0v-.79h.32v-.16h-.81v.16h.31v.79Z" fill="#f79410"/><path d="M1170.6,726.82h-21.47V688.24h21.47Z" fill="#ff5f00"/><path d="M1150.49,707.53a24.49,24.49,0,0,1,9.37-19.29,24.53,24.53,0,1,0,0,38.58,24.49,24.49,0,0,1-9.37-19.29" fill="#eb001b"/><path d="M1199.56,707.53a24.54,24.54,0,0,1-39.7,19.29,24.54,24.54,0,0,0,4.12-34.46,25.09,25.09,0,0,0-4.12-4.12,24.53,24.53,0,0,1,39.7,19.29" fill="#f79e1b"/><path d="M1467.26,737a.48.48,0,0,1-.48-.48V706.56a10.46,10.46,0,0,1,10.45-10.45h8.83a10.46,10.46,0,0,1,10.42,10.44v6.37A10.46,10.46,0,0,1,1486,723.38h-12.49a.49.49,0,0,1,0-1H1486a9.49,9.49,0,0,0,9.48-9.48v-6.37a9.49,9.49,0,0,0-9.45-9.47h-8.83a9.5,9.5,0,0,0-9.49,9.48v29.92A.47.47,0,0,1,1467.26,737Z" fill="#939598"/><path d="M1506.39,723.51a.48.48,0,0,1-.49-.48V700.68a3.61,3.61,0,0,0-3.6-3.61h-3.84a.48.48,0,0,1-.48-.48.49.49,0,0,1,.48-.48h3.84a4.58,4.58,0,0,1,4.57,4.57V723A.48.48,0,0,1,1506.39,723.51Z" fill="#939598"/><path d="M1505.56,693.13l-1.73-1.74a1.1,1.1,0,0,1,0-1.56h0l1.73-1.74a1.12,1.12,0,0,1,1.57,0l1.73,1.74a1.1,1.1,0,0,1,0,1.56h0l-1.74,1.74a1.1,1.1,0,0,1-1.56,0h0" fill="#32bcad"/><path d="M1533.73,709a3.42,3.42,0,0,1-2.43-1l-8.89-8.89a6.85,6.85,0,0,0-4.87-2h-3.8a.48.48,0,0,1-.48-.48.49.49,0,0,1,.48-.48h3.8a7.8,7.8,0,0,1,5.55,2.3l8.89,8.89a2.49,2.49,0,0,0,1.75.72h0a2.45,2.45,0,0,0,1.73-.72h0l8.86-8.86a7.79,7.79,0,0,1,5.54-2.3h3.1a.49.49,0,0,1,0,1h-3.1a6.83,6.83,0,0,0-4.86,2l-8.85,8.85h0A3.41,3.41,0,0,1,1533.73,709Z" fill="#939598"/><path d="M1517.54,723.32h-3.8a.49.49,0,0,1,0-1h3.8a6.84,6.84,0,0,0,4.87-2l8.89-8.89a3.43,3.43,0,0,1,4.85,0l8.86,8.86a6.84,6.84,0,0,0,4.87,2H1553a.49.49,0,0,1,0,1h-3.09a7.8,7.8,0,0,1-5.55-2.3l-8.86-8.86a2.47,2.47,0,0,0-3.49,0l-8.89,8.89A7.8,7.8,0,0,1,1517.54,723.32Z" fill="#939598"/><path d="M1444.61,728.51a7.08,7.08,0,0,1-5-2.08l-7.3-7.3a1.38,1.38,0,0,0-1.91,0l-7.32,7.32a7.13,7.13,0,0,1-5,2.09h-1.43l9.25,9.24a7.39,7.39,0,0,0,10.44,0l9.26-9.26Z" fill="#32bcad"/><path d="M1418,702.72a7.11,7.11,0,0,1,5,2.09l7.32,7.32a1.36,1.36,0,0,0,1.92,0l7.29-7.29a7.07,7.07,0,0,1,5-2.09h.87l-9.26-9.26a7.38,7.38,0,0,0-10.44,0h0l-9.23,9.23Z" fill="#32bcad"/><path d="M1453.14,710.41l-5.59-5.59a1.35,1.35,0,0,1-.4.08h-2.54a5,5,0,0,0-3.54,1.46l-7.29,7.29a3.51,3.51,0,0,1-5,0l-7.31-7.32a5,5,0,0,0-3.54-1.46h-3.12a1.23,1.23,0,0,1-.38-.08l-5.63,5.62a7.39,7.39,0,0,0,0,10.44l5.62,5.62a1.22,1.22,0,0,1,.38-.07H1418a5,5,0,0,0,3.54-1.47l7.31-7.31a3.57,3.57,0,0,1,5,0l7.29,7.29a5,5,0,0,0,3.54,1.46h2.54a1.1,1.1,0,0,1,.4.08l5.59-5.6a7.38,7.38,0,0,0,0-10.44h0" fill="#32bcad"/><path d="M1474.86,733.94a6.4,6.4,0,0,0-1.37.21V736a3.19,3.19,0,0,0,1.06.18c.92,0,1.35-.31,1.35-1.12s-.35-1.09-1-1.09m-1.68,3.39v-3.61h.25l0,.15a7.51,7.51,0,0,1,1.42-.23,1.42,1.42,0,0,1,.94.27,1.39,1.39,0,0,1,.41,1.12,1.26,1.26,0,0,1-.58,1.16,2.32,2.32,0,0,1-1.06.24,4,4,0,0,1-1.1-.17v1.06Z" fill="#939598"/><path d="M1478.53,733.93c-.92,0-1.32.28-1.32,1.09s.4,1.13,1.32,1.13,1.31-.29,1.31-1.09-.4-1.13-1.31-1.13m1.17,2.22a2,2,0,0,1-1.17.28,2,2,0,0,1-1.18-.28,1.55,1.55,0,0,1,0-2.22,2.53,2.53,0,0,1,2.35,0,1.26,1.26,0,0,1,.47,1.1,1.28,1.28,0,0,1-.47,1.12" fill="#939598"/><path d="M1484,736.36l-1-2.19h0l-1,2.19h-.28l-1.08-2.64h.34l.9,2.21h0l1-2.21h.29l1,2.21h0l.88-2.21h.33l-1.09,2.64Z" fill="#939598"/><path d="M1487.37,733.92c-.85,0-1.14.38-1.19.92h2.37c0-.6-.33-.92-1.18-.92m0,2.51a1.59,1.59,0,0,1-1.1-.29,1.38,1.38,0,0,1-.41-1.1,1.36,1.36,0,0,1,.49-1.13,1.75,1.75,0,0,1,1-.27,1.85,1.85,0,0,1,1.05.26,1.36,1.36,0,0,1,.46,1.22h-2.71c0,.54.19,1,1.21,1a7.87,7.87,0,0,0,1.37-.15v.27a8.12,8.12,0,0,1-1.39.17" fill="#939598"/><path d="M1489.76,736.36v-2.64h.25l0,.15a4.7,4.7,0,0,1,1.31-.23h0v.29h-.08a4.38,4.38,0,0,0-1.24.21v2.21Z" fill="#939598"/><path d="M1493.18,733.92c-.85,0-1.14.38-1.19.92h2.37c0-.6-.33-.92-1.18-.92m0,2.51a1.58,1.58,0,0,1-1.09-.29,1.38,1.38,0,0,1-.41-1.1,1.36,1.36,0,0,1,.49-1.13,1.83,1.83,0,0,1,1-.27,1.87,1.87,0,0,1,1,.26,1.36,1.36,0,0,1,.46,1.22H1492c0,.54.19,1,1.21,1a7.87,7.87,0,0,0,1.37-.15v.27a8.12,8.12,0,0,1-1.39.17" fill="#939598"/><path d="M1498.06,734.1a3,3,0,0,0-1.06-.17c-.92,0-1.35.3-1.35,1.11s.35,1.1,1,1.1a6.3,6.3,0,0,0,1.37-.21Zm.06,2.26,0-.16a6.79,6.79,0,0,1-1.42.23,1.37,1.37,0,0,1-.94-.27,1.39,1.39,0,0,1-.41-1.12,1.23,1.23,0,0,1,.58-1.15,2.21,2.21,0,0,1,1.07-.24,4,4,0,0,1,1.09.16v-1.2h.31v3.75Z" fill="#939598"/><path d="M1502.89,733.94a6.4,6.4,0,0,0-1.37.21V736a3,3,0,0,0,1.07.19c.91,0,1.35-.31,1.35-1.12s-.36-1.09-1-1.09m.79,2.25a2.17,2.17,0,0,1-1.06.24,3.66,3.66,0,0,1-1.18-.2l0,.13h-.21v-3.75h.31v1.25a8.32,8.32,0,0,1,1.4-.22,1.42,1.42,0,0,1,.93.28,1.37,1.37,0,0,1,.42,1.11,1.27,1.27,0,0,1-.59,1.16" fill="#939598"/><path d="M1504.67,737.36v-.28l.4,0a.79.79,0,0,0,.82-.54l.1-.21-1.38-2.64h.35l1.18,2.28h0l1.13-2.28h.35l-1.49,3a1.08,1.08,0,0,1-1.1.71,2.43,2.43,0,0,1-.38,0" fill="#939598"/><path d="M1511.89,734.85h-1v.92h1c.71,0,1-.07,1-.46s-.37-.46-1-.46m-.19-1.49h-.83v.94h.84c.69,0,1-.08,1-.48s-.35-.46-1-.46m1.59,2.76a3,3,0,0,1-1.66.25h-1.56v-3.59h1.52a2.88,2.88,0,0,1,1.52.23.75.75,0,0,1,.37.71.77.77,0,0,1-.57.79v0c.47.11.76.34.76.85a.76.76,0,0,1-.38.73" fill="#939598"/><path d="M1516.8,735.25c-.31,0-.62,0-1,0-.54,0-.73.11-.73.35s.15.36.57.36a5.94,5.94,0,0,0,1.11-.16Zm.15,1.11,0-.16a6.37,6.37,0,0,1-1.43.23,1.4,1.4,0,0,1-.8-.19.81.81,0,0,1-.1-1.15.79.79,0,0,1,.25-.2,2.45,2.45,0,0,1,1-.15c.28,0,.65,0,1,0v0c0-.41-.27-.54-1-.54-.28,0-.63,0-1,0v-.53c.37,0,.79-.05,1.14-.05a2.25,2.25,0,0,1,1.23.24,1,1,0,0,1,.36.91v1.56Z" fill="#939598"/><path d="M1521,736.36V734.9c0-.48-.24-.65-.68-.65a4.86,4.86,0,0,0-1.08.16v2h-.74v-2.64h.6l0,.16a6.71,6.71,0,0,1,1.41-.24,1.31,1.31,0,0,1,.9.28,1,1,0,0,1,.29.82v1.62Z" fill="#939598"/><path d="M1523.79,736.43a1.49,1.49,0,0,1-1-.28,1.37,1.37,0,0,1-.42-1.12,1.31,1.31,0,0,1,.54-1.13,2.14,2.14,0,0,1,1.16-.26,7.22,7.22,0,0,1,.92.06v.56a7.89,7.89,0,0,0-.84,0c-.7,0-1,.22-1,.83s.25.81.82.81a5.81,5.81,0,0,0,1.11-.13v.54a6.16,6.16,0,0,1-1.28.17" fill="#939598"/><path d="M1527.25,734.2c-.7,0-1,.22-1,.82s.3.85,1,.85,1-.21,1-.81-.29-.86-1-.86m1.27,1.95a2.22,2.22,0,0,1-1.27.28,2.18,2.18,0,0,1-1.26-.28,1.22,1.22,0,0,1-.5-1.11,1.24,1.24,0,0,1,.5-1.12,2.25,2.25,0,0,1,1.26-.28,2.28,2.28,0,0,1,1.27.28A1.24,1.24,0,0,1,1529,735a1.26,1.26,0,0,1-.49,1.12" fill="#939598"/><path d="M1533.26,736.43a2,2,0,0,1-1.28-.37,1.86,1.86,0,0,1-.56-1.5,1.78,1.78,0,0,1,.72-1.52,2.8,2.8,0,0,1,1.52-.34c.4,0,.81,0,1.25.07v.64c-.38,0-.85-.06-1.22-.06-1,0-1.45.39-1.45,1.21s.4,1.22,1.15,1.22a8.66,8.66,0,0,0,1.6-.21v.63a8.46,8.46,0,0,1-1.73.23" fill="#939598"/><path d="M1537.15,734.11c-.61,0-.84.22-.89.62H1538c0-.43-.28-.62-.89-.62m-.11,2.31a1.73,1.73,0,0,1-1.12-.29,1.4,1.4,0,0,1-.42-1.1,1.32,1.32,0,0,1,.5-1.11,1.93,1.93,0,0,1,1.15-.28,2,2,0,0,1,1.15.27c.42.29.46.75.46,1.3h-2.51c0,.4.23.66,1,.66a9.35,9.35,0,0,0,1.4-.14v.52a9.32,9.32,0,0,1-1.59.17" fill="#939598"/><path d="M1542,736.36V734.9c0-.48-.25-.65-.69-.65a4.86,4.86,0,0,0-1.07.16v2h-.74v-2.64h.6l0,.16a6.71,6.71,0,0,1,1.41-.24,1.33,1.33,0,0,1,.9.28,1,1,0,0,1,.29.82v1.62Z" fill="#939598"/><path d="M1544.87,736.43a1,1,0,0,1-.86-.38,1.4,1.4,0,0,1-.19-.8v-1h-.54v-.55h.54l.08-.8h.65v.8h1v.55h-1v.84a1.21,1.21,0,0,0,.07.5.47.47,0,0,0,.48.25,3.17,3.17,0,0,0,.53-.05v.53a4.92,4.92,0,0,1-.76.09" fill="#939598"/><path d="M1546.31,736.36v-2.64h.6l0,.16a4.81,4.81,0,0,1,1.3-.24h.1v.64h-.26a4.57,4.57,0,0,0-1,.14v2Z" fill="#939598"/><path d="M1551,735.25c-.31,0-.62,0-1,0-.53,0-.72.11-.72.35s.15.36.57.36a6.06,6.06,0,0,0,1.11-.16Zm.15,1.11,0-.16a6.37,6.37,0,0,1-1.43.23,1.4,1.4,0,0,1-.8-.19.76.76,0,0,1-.3-.64.74.74,0,0,1,.45-.71,2.45,2.45,0,0,1,1-.15c.27,0,.64,0,1,0v0c0-.41-.27-.54-1-.54-.29,0-.64,0-1,0v-.53c.37,0,.79-.05,1.13-.05a2.23,2.23,0,0,1,1.23.24,1,1,0,0,1,.36.91v1.56Z" fill="#939598"/><path d="M1552.7,732.61h.73v3.75h-.73Z" fill="#939598"/><polygon points="1292.46 741.26 1278.64 741.26 1287.28 688.17 1301.11 688.17 1292.46 741.26" fill="#005ca8"/><path d="M1267,688.17l-13.18,36.52-1.56-7.87h0L1247.63,693s-.56-4.78-6.56-4.78h-21.78l-.26.9a51.38,51.38,0,0,1,14.46,6.07l12,46.12h14.4l22-53.09Z" fill="#005ca8"/><path d="M1375.73,741.26h12.69l-11.06-53.09h-11.11c-5.13,0-6.38,4-6.38,4l-20.62,49.13h14.4l2.88-7.89h17.58Zm-15.21-18.78,7.27-19.87,4.08,19.87Z" fill="#005ca8"/><path d="M1340.33,700.94l2-11.41a39.76,39.76,0,0,0-12.43-2.32c-6.86,0-23.14,3-23.14,17.58,0,13.72,19.11,13.89,19.11,21.09s-17.14,5.91-22.8,1.37L1301,739.17a38.7,38.7,0,0,0,15.6,3c9.44,0,23.67-4.87,23.67-18.17,0-13.8-19.29-15.09-19.29-21.09S1334.42,697.68,1340.33,700.94Z" fill="#005ca8"/><path d="M1252.28,716.82,1247.63,693s-.56-4.78-6.56-4.78h-21.78l-.26.9a53.61,53.61,0,0,1,20.52,10.3A41.39,41.39,0,0,1,1252.28,716.82Z" fill="#f6a723"/><g id="Artboard"><g id="boleto-barcode"><path id="Path" d="M1664.7,737.65a7,7,0,0,1-7,7h-70.08a7,7,0,0,1-7-7v-42a7,7,0,0,1,7-7h70.08a7,7,0,0,1,7,7Z" fill="#fff" fill-rule="evenodd"/><path id="Shape" d="M1657.69,688.59h-70.08a7,7,0,0,0-7,7v42a7,7,0,0,0,7,7h70.08a7,7,0,0,0,7-7v-42A7,7,0,0,0,1657.69,688.59Zm0,1.4a5.62,5.62,0,0,1,5.61,5.61v42a5.61,5.61,0,0,1-5.61,5.6h-70.08a5.61,5.61,0,0,1-5.61-5.6v-42a5.62,5.62,0,0,1,5.61-5.61Z" fill="#d0d0d0" opacity="0.6" style="isolation:isolate"/><path id="Combined-Shape" d="M1600.22,702.61H1603v28.18h-2.77Zm17,0H1620v28.18h-2.77Zm14.17,0h2.77v28.18h-2.77Zm5.64,0h2.77v28.18h-2.77Zm5.7,0h2.77v28.18h-2.77Zm-19.87,0h5.63v28.18h-5.63Zm-17,0h8.47v28.18h-8.47Z" fill-rule="evenodd"/></g></g></svg>