<svg id="Camada_1" data-name="Camada 1" xmlns="http://www.w3.org/2000/svg" viewBox="0 0 1920 1080"><rect y="-0.24" width="1920" height="105.46" fill="#202020"/><path d="M1727.46,73.26c1-3.55,1.91-7,2.87-10.49a.86.86,0,0,0-.07-.7,21,21,0,0,1,8.41-28.67,19.84,19.84,0,0,1,12.62-2.32c8.74,1.31,14.59,6.25,17.39,14.59a21,21,0,0,1-20.52,27.24,20.41,20.41,0,0,1-9.29-2.41.76.76,0,0,0-.59-.06l-10.35,2.72Zm5-5,.26-.06c1.91-.5,3.83-1,5.74-1.52a1.35,1.35,0,0,1,1.15.17,17,17,0,0,0,16.58.73,17.46,17.46,0,0,0-10.31-33,16.9,16.9,0,0,0-8.9,4.24,17.46,17.46,0,0,0-3,22.53,1,1,0,0,1,.14.9C1733.58,64.27,1733.06,66.24,1732.5,68.28Z" fill="#fff"/><path d="M1741.84,42.22c.94-.25,1.36.35,1.67,1.18.48,1.21,1,2.41,1.5,3.61a1.09,1.09,0,0,1-.08,1.13,20.67,20.67,0,0,1-1.28,1.68.81.81,0,0,0-.08,1.08,14.43,14.43,0,0,0,7.21,6.2.83.83,0,0,0,1.06-.26c.52-.65,1.06-1.3,1.58-2,.36-.45.55-.54,1.09-.33,1.53.62,3,1.38,4.45,2.12a.63.63,0,0,1,.33.62c0,2.25-.71,3.35-3.11,4.35a6.19,6.19,0,0,1-4.14,0c-5.06-1.41-8.79-4.59-11.77-8.78a11.91,11.91,0,0,1-2.13-4.27,6,6,0,0,1,1.75-5.88A2.2,2.2,0,0,1,1741.84,42.22Z" fill="#fff"/><path d="M1680.6,30.85h2a.28.28,0,0,0,.42,0h.93c.1.16.26.07.38.08a32.45,32.45,0,0,1,3.82.33A11.47,11.47,0,0,1,1698,41.43a7.23,7.23,0,0,0,.23,1.67V61.62c-.13.05-.07.16-.08.25a18.73,18.73,0,0,1-.34,2.59,11.16,11.16,0,0,1-6.78,8.45,17.24,17.24,0,0,1-6.36,1.13c-4.56.14-9.12.1-13.69.06a29,29,0,0,1-6.76-.57,11.07,11.07,0,0,1-7.78-6.23,15,15,0,0,1-1.29-6q-.27-8.7,0-17.4a17.4,17.4,0,0,1,.57-4.18,11,11,0,0,1,6.77-7.71,17.7,17.7,0,0,1,6.16-1.06c.14,0,.31.09.42-.08h1.69a4.37,4.37,0,0,0,1.35.08h2.15c.16,0,.34.06.47-.08h3.81A5.35,5.35,0,0,0,1680.6,30.85Zm-4,39.38c1.14,0,2.28,0,3.42,0a50,50,0,0,0,7.34-.34,7.33,7.33,0,0,0,6.37-5.44,16.82,16.82,0,0,0,.52-4.35c.13-3.91.09-7.83.07-11.75a48.11,48.11,0,0,0-.32-6.57,7.43,7.43,0,0,0-6-6.55,23.09,23.09,0,0,0-4.54-.4c-3.8-.07-7.6-.07-11.41,0a38.53,38.53,0,0,0-6.44.36,7.32,7.32,0,0,0-6.2,5.69,20.22,20.22,0,0,0-.45,4.52c-.1,3.51-.09,7-.06,10.53a54.82,54.82,0,0,0,.31,7.25,7.52,7.52,0,0,0,3.39,5.58,9.72,9.72,0,0,0,4.7,1.34C1670.41,70.27,1673.53,70.23,1676.64,70.23Z" fill="#fff"/><path d="M1674.68,30.85c-.13.14-.31.08-.47.08h-2.15s0-.06,0-.08Z" fill="#fff"/><path d="M1680.6,30.85a5.35,5.35,0,0,1-2.11,0Z" fill="#fff"/><path d="M1672.06,30.85s0,0,0,.08a4.37,4.37,0,0,1-1.35-.08Z" fill="#fff"/><path d="M1683.05,30.85a.28.28,0,0,1-.42,0Z" fill="#fff"/><path d="M1676.6,63.61a11.12,11.12,0,1,1,11.14-11.1A11.14,11.14,0,0,1,1676.6,63.61Zm-7.18-11.14a7.21,7.21,0,1,0,7.24-7.18A7.19,7.19,0,0,0,1669.42,52.47Z" fill="#fff"/><path d="M1690.77,40.93a2.59,2.59,0,1,1-2.6-2.58A2.59,2.59,0,0,1,1690.77,40.93Z" fill="#fff"/><path d="M492.45,46.54A4.59,4.59,0,0,1,494,42.83a6.78,6.78,0,0,1,4.48-1.32,15.09,15.09,0,0,1,4.73.61v3a12.26,12.26,0,0,0-4.42-.71c-2.1,0-3.15.78-3.15,2.33V48.1a3,3,0,0,0,.42,1.7A4.52,4.52,0,0,0,497.59,51l3.92,2.2a4.82,4.82,0,0,1,2.74,4.49v1.89a4.54,4.54,0,0,1-1.73,3.81,7.73,7.73,0,0,1-4.85,1.33,14.74,14.74,0,0,1-5-.71V61a13.7,13.7,0,0,0,4.7.81q3.69,0,3.69-2.5V58.17a2.78,2.78,0,0,0-.38-1.57,3.66,3.66,0,0,0-1.38-1.1l-3.82-2.1a5.19,5.19,0,0,1-3-4.83Z" fill="#fff"/><path d="M507,46.92a5.43,5.43,0,0,1,1.54-4.06,7.59,7.59,0,0,1,9.14,0,5.41,5.41,0,0,1,1.56,4V59.39a5.38,5.38,0,0,1-1.56,4,7.6,7.6,0,0,1-9.12,0,5.38,5.38,0,0,1-1.56-4ZM516,47c0-1.85-1-2.77-2.94-2.77s-2.94.92-2.94,2.77V59.25c0,1.87,1,2.81,2.94,2.81s2.94-.94,2.94-2.81Z" fill="#fff"/><path d="M535,46.88v2c0,2.14-.82,3.51-2.44,4.12q2.64.87,2.64,4.26v2.13a5.11,5.11,0,0,1-1.4,3.87,5.8,5.8,0,0,1-4.14,1.33H523V41.68h6.45A5.77,5.77,0,0,1,533.63,43,5.08,5.08,0,0,1,535,46.88Zm-5.92-2.47h-2.91v7.24h2.91c1.85,0,2.77-.88,2.77-2.64V47C531.89,45.28,531,44.41,529.12,44.41Zm3,14.84V57.09c0-1.74-.93-2.6-2.78-2.6h-3.11v7.36h3.11C531.17,61.85,532.1,61,532.1,59.25Z" fill="#fff"/><path d="M542.27,55.67v8.92h-3.18V41.68h6.15A5.83,5.83,0,0,1,549.38,43a4.89,4.89,0,0,1,1.44,3.75v3.65q0,3.75-2.87,4.83l3.65,9.33h-3.52l-3.28-8.92Zm0-11.22V53H545a2.27,2.27,0,0,0,2.67-2.6V47c0-1.69-.89-2.53-2.67-2.53Z" fill="#fff"/><path d="M554.77,41.68h10.44v2.8H558v7.13h6.32v2.81H558v7.4h7.26v2.77H554.77Z" fill="#fff"/><path d="M765.21,46.54a4.57,4.57,0,0,1,1.58-3.71,6.75,6.75,0,0,1,4.47-1.32,15.2,15.2,0,0,1,4.74.61v3a12.36,12.36,0,0,0-4.43-.71c-2.1,0-3.14.78-3.14,2.33V48.1a3,3,0,0,0,.42,1.7,4.37,4.37,0,0,0,1.5,1.24l3.92,2.2A4.81,4.81,0,0,1,777,57.73v1.89a4.53,4.53,0,0,1-1.72,3.81,7.77,7.77,0,0,1-4.85,1.33,14.66,14.66,0,0,1-5-.71V61a13.62,13.62,0,0,0,4.7.81q3.68,0,3.68-2.5V58.17a2.78,2.78,0,0,0-.37-1.57A3.79,3.79,0,0,0,772,55.5l-3.82-2.1a5.2,5.2,0,0,1-3-4.83Z" fill="#fff"/><path d="M780.05,41.68H790.5v2.8h-7.27v7.13h6.32v2.81h-6.32v7.4h7.27v2.77H780.05Z" fill="#fff"/><path d="M796.88,55.67v8.92h-3.17V41.68h6.15A5.83,5.83,0,0,1,804,43a4.92,4.92,0,0,1,1.43,3.75v3.65c0,2.5-.95,4.11-2.87,4.83l3.65,9.33H802.7l-3.28-8.92Zm0-11.22V53h2.71a2.76,2.76,0,0,0,2-.64,2.7,2.7,0,0,0,.63-2V47c0-1.69-.89-2.53-2.67-2.53Z" fill="#fff"/><path d="M818.44,41.68h3.32L817,64.59H812.5l-4.84-22.91h3.25Q813.4,54.15,814,57.54c.39,2.27.64,3.64.73,4.11q.3-1.38.84-4.68t.75-4.41Z" fill="#fff"/><path d="M824.22,41.68h3.21V64.59h-3.21Z" fill="#fff"/><path d="M839.13,66.57a2.14,2.14,0,0,1,.64,1.72,2.22,2.22,0,0,1-.86,1.84,3.21,3.21,0,0,1-2,.68,8.09,8.09,0,0,1-1.94-.2V69a3.33,3.33,0,0,0,1.35.24c1,0,1.55-.37,1.55-1.11S837.31,67,836.25,67h-.43l.5-2.3c-3.38-.36-5.07-2-5.07-5V46.58a4.56,4.56,0,0,1,1.63-3.74,7.58,7.58,0,0,1,4.9-1.33,14.7,14.7,0,0,1,4,.51V45a13.84,13.84,0,0,0-3.92-.58,4.22,4.22,0,0,0-2.65.61,2.24,2.24,0,0,0-.73,1.82V59.49a2.17,2.17,0,0,0,.75,1.79,4.52,4.52,0,0,0,2.74.61,14.54,14.54,0,0,0,3.92-.54v2.87a13.33,13.33,0,0,1-4,.54l-.27,1.18A2.66,2.66,0,0,1,839.13,66.57Z" fill="#fff"/><path d="M844.74,46.92a5.43,5.43,0,0,1,1.54-4.06,7.59,7.59,0,0,1,9.14,0,5.44,5.44,0,0,1,1.55,4V59.39a5.41,5.41,0,0,1-1.55,4,7.62,7.62,0,0,1-9.13,0,5.41,5.41,0,0,1-1.55-4Zm9,.1c0-1.85-1-2.77-2.94-2.77s-2.94.92-2.94,2.77V59.25c0,1.87,1,2.81,2.94,2.81s2.94-.94,2.94-2.81Z" fill="#fff"/><path d="M859.61,46.54a4.56,4.56,0,0,1,1.57-3.71,6.78,6.78,0,0,1,4.48-1.32,15.18,15.18,0,0,1,4.73.61v3a12.32,12.32,0,0,0-4.43-.71c-2.09,0-3.14.78-3.14,2.33V48.1a3,3,0,0,0,.42,1.7,4.37,4.37,0,0,0,1.5,1.24l3.93,2.2a4.81,4.81,0,0,1,2.73,4.49v1.89a4.53,4.53,0,0,1-1.72,3.81,7.77,7.77,0,0,1-4.85,1.33,14.7,14.7,0,0,1-5-.71V61a13.66,13.66,0,0,0,4.7.81q3.68,0,3.68-2.5V58.17a2.78,2.78,0,0,0-.37-1.57,3.79,3.79,0,0,0-1.39-1.1l-3.81-2.1a5.19,5.19,0,0,1-3-4.83Z" fill="#fff"/><path d="M1071.4,41.68h3.21V61.85h6.7v2.74h-9.91Z" fill="#fff"/><path d="M1083.23,46.92a5.43,5.43,0,0,1,1.54-4.06,7.59,7.59,0,0,1,9.14,0,5.41,5.41,0,0,1,1.56,4V59.39a5.38,5.38,0,0,1-1.56,4,7.6,7.6,0,0,1-9.12,0,5.38,5.38,0,0,1-1.56-4Zm9.06.1c0-1.85-1-2.77-2.94-2.77s-2.94.92-2.94,2.77V59.25c0,1.87,1,2.81,2.94,2.81s2.94-.94,2.94-2.81Z" fill="#fff"/><path d="M1099.39,41.68h3.21V57.8a29.79,29.79,0,0,1-1.15,8.31l-1,3.52h-3.31l1-3.55a29.58,29.58,0,0,0,1.29-8.25Z" fill="#fff"/><path d="M1116.42,64.59l-1.25-6.08h-5.68l-1.25,6.08h-3.11l5-22.91h4.46l4.94,22.91ZM1110,55.77h4.56l-2.29-11.12Z" fill="#fff"/><path d="M1330.72,64.59l-1.12-5.78h-5.2l-1.09,5.78h-3.88l4.8-23.15h5.64l4.77,23.15ZM1325,55.37h3.89l-2-10.28Z" fill="#c07c5a"/><path d="M1336.46,46.78a4.91,4.91,0,0,1,1.84-4,7.78,7.78,0,0,1,5-1.47,16.15,16.15,0,0,1,5,.61v3.85a13.27,13.27,0,0,0-4.47-.74c-2.16,0-3.24.73-3.24,2.2V59.05c0,1.37.9,2.06,2.7,2.06a3.63,3.63,0,0,0,1.9-.44V52.56h4V63.38a12.57,12.57,0,0,1-5.92,1.38,8,8,0,0,1-5-1.37,4.74,4.74,0,0,1-1.74-4Z" fill="#c07c5a"/><path d="M1352.38,41.44h11.12V45h-7.06v6.12h6.11v3.54h-6.11V61h7.06v3.55h-11.12Z" fill="#c07c5a"/><path d="M1376.21,41.44h4V64.59h-4.09q-5-12.68-5.68-14.75t-.78-2.28s.06.46.17,1.25a55.47,55.47,0,0,1,.44,7.6v8.18h-4V41.44h4.16q4.29,10.85,5,12.78c.45,1.28.78,2.27,1,3s.34,1.09.38,1.2c0-.09,0-.52-.16-1.28a58.69,58.69,0,0,1-.44-7.67Z" fill="#c07c5a"/><path d="M1383.88,41.44h7.37a6,6,0,0,1,4.17,1.34,4.9,4.9,0,0,1,1.47,3.83V59.22q0,5.37-5.44,5.37h-7.57Zm8.95,5.31c0-1.29-.7-1.93-2.09-1.93h-2.81V61.08h2.81c1.39,0,2.09-.72,2.09-2.17Z" fill="#c07c5a"/><path d="M1410,64.59l-1.11-5.78h-5.21l-1.08,5.78h-3.89l4.8-23.15h5.65l4.76,23.15Zm-5.68-9.22h3.89l-2-10.28Z" fill="#c07c5a"/><path d="M1420.14,55.87v8.72h-4.05V41.44h6.82a6.16,6.16,0,0,1,4.24,1.34,4.78,4.78,0,0,1,1.51,3.8v4c0,2.62-1,4.26-2.84,4.94l3.65,9.12H1425l-3.21-8.72Zm0-10.95v7.67h2.37a1.78,1.78,0,0,0,2.09-2.09V46.88c0-1.3-.7-2-2.09-2Z" fill="#c07c5a"/><path d="M805.3,298.21a7.12,7.12,0,0,1,2.58-5.85c1.71-1.4,4.31-2.1,7.77-2.1a22.79,22.79,0,0,1,6.1.75v5.5a20.88,20.88,0,0,0-5.72-.85,6.33,6.33,0,0,0-3.7.77,2.75,2.75,0,0,0-1,2.28v17.85q0,3,4.35,3.05a21,21,0,0,0,6.2-.8v5.45a23.84,23.84,0,0,1-6.35.75q-10.24,0-10.25-7.9Z" fill="#202020"/><path d="M826,296.36a24.63,24.63,0,0,1,7.55-.95q4.71,0,6.85,2.07c1.44,1.39,2.15,3.46,2.15,6.23v21.05h-5.7v-2.1a6.85,6.85,0,0,1-5.47,2.25q-3.52,0-5.18-1.75t-1.65-5.35v-1.7a7.35,7.35,0,0,1,1.45-4.8,9.09,9.09,0,0,1,4.7-2.65l6-1.65v-3.35a2.87,2.87,0,0,0-.9-2.25c-.56-.47-1.86-.7-3.9-.7a17.39,17.39,0,0,0-6,1.05Zm4.45,20v1.45c0,1.7.89,2.55,2.65,2.55a6.07,6.07,0,0,0,3.6-1.1V312l-3.55,1a4,4,0,0,0-2.17,1.15A3.8,3.8,0,0,0,830.45,316.36Z" fill="#202020"/><path d="M859.05,287.91h6.05v36.85h-5.85v-1.95a7.33,7.33,0,0,1-5.4,2.15,6.45,6.45,0,0,1-5-1.83,7.22,7.22,0,0,1-1.7-5.12V304.06a8.35,8.35,0,0,1,2.23-6.18q2.22-2.22,6.47-2.22h3.15Zm.05,13.15h-2.6c-2.16,0-3.25,1.05-3.25,3.15v12.85a2.12,2.12,0,0,0,2.4,2.4,5.46,5.46,0,0,0,3.45-1Z" fill="#202020"/><path d="M870.45,296.36a24.63,24.63,0,0,1,7.55-.95c3.13,0,5.42.69,6.85,2.07s2.15,3.46,2.15,6.23v21.05h-5.7v-2.1a6.85,6.85,0,0,1-5.47,2.25q-3.52,0-5.18-1.75T869,317.81v-1.7a7.3,7.3,0,0,1,1.45-4.8,9,9,0,0,1,4.7-2.65L881.2,307v-3.35a2.87,2.87,0,0,0-.9-2.25c-.57-.47-1.86-.7-3.9-.7a17.35,17.35,0,0,0-5.95,1.05Zm4.45,20v1.45c0,1.7.89,2.55,2.65,2.55a6.07,6.07,0,0,0,3.6-1.1V312l-3.55,1a4,4,0,0,0-2.17,1.15A3.8,3.8,0,0,0,874.9,316.36Z" fill="#202020"/><path d="M890.65,303.06c0-2.57.75-4.48,2.25-5.75s4-1.9,7.35-1.9a20.15,20.15,0,0,1,5.9.8v5.35a15.58,15.58,0,0,0-5.12-.8c-1.89,0-3.1.21-3.65.62a2.4,2.4,0,0,0-.83,2v.7a2.36,2.36,0,0,0,.48,1.57,7.66,7.66,0,0,0,1.87,1.43l4.15,2.45q4.16,2.44,4.15,6.35v1.3q0,7.8-10.2,7.8a25.11,25.11,0,0,1-6.3-.7v-5.45a18.36,18.36,0,0,0,5.4.75,8.63,8.63,0,0,0,4-.65A2.13,2.13,0,0,0,901.2,317v-.7a2.22,2.22,0,0,0-.57-1.6,12,12,0,0,0-2.43-1.65l-3.75-2.2a7,7,0,0,1-3.8-6.35Z" fill="#202020"/><path d="M917.45,290.51v5.15h5.2v5.1h-5.2v16.55c0,1.57.83,2.35,2.5,2.35a10,10,0,0,0,3-.6v5.35a13,13,0,0,1-4.15.7q-7.4,0-7.4-7.25v-17.1H908.6v-5.1h3.1l1.8-5.15Z" fill="#202020"/><path d="M937.85,295.51h1v5.6H937.5a9.31,9.31,0,0,0-5,1.5v22.15h-6v-29.1h5.7v2c1-.63,1.63-1,2-1.25A7.31,7.31,0,0,1,937.85,295.51Z" fill="#202020"/><path d="M941.75,296.36a24.63,24.63,0,0,1,7.55-.95c3.13,0,5.42.69,6.85,2.07s2.15,3.46,2.15,6.23v21.05h-5.7v-2.1a6.85,6.85,0,0,1-5.47,2.25q-3.52,0-5.18-1.75t-1.65-5.35v-1.7a7.3,7.3,0,0,1,1.45-4.8,9,9,0,0,1,4.7-2.65l6-1.65v-3.35a2.87,2.87,0,0,0-.9-2.25c-.57-.47-1.87-.7-3.9-.7a17.35,17.35,0,0,0-6,1.05Zm4.45,20v1.45c0,1.7.88,2.55,2.65,2.55a6.07,6.07,0,0,0,3.6-1.1V312l-3.55,1a4,4,0,0,0-2.17,1.15A3.8,3.8,0,0,0,946.2,316.36Z" fill="#202020"/><path d="M974.85,295.51h1v5.6H974.5a9.31,9.31,0,0,0-5,1.5v22.15h-6v-29.1h5.7v2c1-.63,1.63-1,2-1.25A7.31,7.31,0,0,1,974.85,295.51Z" fill="#202020"/><path d="M986.6,298.11a7.07,7.07,0,0,1,2.5-5.8q2.5-2.06,7.18-2.05a22.07,22.07,0,0,1,7.27.95V297a18.47,18.47,0,0,0-6.85-1.15q-3.94,0-4,3v1.35a4.12,4.12,0,0,0,.55,2.32,5.91,5.91,0,0,0,2.15,1.68l5.75,3.25a7.17,7.17,0,0,1,4,6.7v2.95a6.93,6.93,0,0,1-2.75,5.87q-2.75,2.08-7.85,2.08a20.35,20.35,0,0,1-7.65-1.1v-5.8a18.48,18.48,0,0,0,7.25,1.35q4.95,0,5-3.1v-1.3a3.43,3.43,0,0,0-.52-2,5.79,5.79,0,0,0-1.93-1.47l-5.5-3q-4.65-2.55-4.65-7.35Z" fill="#202020"/><path d="M1008.65,316.81v-13.7a7.66,7.66,0,0,1,2.23-5.83q2.22-2.11,6.72-2.12t6.62,2.12a7.87,7.87,0,0,1,2.13,5.83v9.6H1014.5v3.65a3.06,3.06,0,0,0,1,2.6c.7.53,2,.8,4,.8a20.7,20.7,0,0,0,6-.95v5.35a24.74,24.74,0,0,1-6.9.9Q1008.65,325.06,1008.65,316.81Zm5.85-8.8h6.25v-4.85q0-3-3.12-3t-3.13,3Z" fill="#202020"/><path d="M1042.25,295.51h1v5.6h-1.35a9.31,9.31,0,0,0-5,1.5v22.15h-6.05v-29.1h5.7v2c1-.63,1.63-1,2-1.25A7.31,7.31,0,0,1,1042.25,295.51Z" fill="#202020"/><path d="M1058,295.66h6l-6.25,29.1h-7.35l-6.35-29.1h6l2.1,10.6a131.18,131.18,0,0,1,1.9,13.85q.56-6.25,1.9-13.75Z" fill="#202020"/><path d="M1070.13,293.91q-3.44,0-3.43-3.3t3.43-3.3q3.42,0,3.42,3.3T1070.13,293.91Zm-3,2.3h6.05v28.55h-6.05Z" fill="#202020"/><path d="M1089.35,327.66a3.29,3.29,0,0,1,1,2.57,3.44,3.44,0,0,1-1.3,2.8,4.67,4.67,0,0,1-3.08,1.08,12.47,12.47,0,0,1-3-.3V331a4.31,4.31,0,0,0,1.85.3c1.3,0,2-.47,2-1.4s-.67-1.42-2-1.45h-.55l.75-3.6q-6.9-.94-6.9-7.95v-13.4q0-8.1,9.3-8.1a22.78,22.78,0,0,1,5.85.7v5.6a16,16,0,0,0-4.85-.8,5.73,5.73,0,0,0-3.3.7,2.74,2.74,0,0,0-1,2.35v12.5a2.78,2.78,0,0,0,.92,2.35,5.76,5.76,0,0,0,3.33.7,16.14,16.14,0,0,0,4.9-.8v5.55a19.51,19.51,0,0,1-5.6.75l-.4,1.7A3.57,3.57,0,0,1,1089.35,327.66Z" fill="#202020"/><path d="M1096.75,303.11a7.69,7.69,0,0,1,2.22-5.83q2.23-2.11,6.75-2.12t6.75,2.12a7.66,7.66,0,0,1,2.23,5.83v14.2a7.62,7.62,0,0,1-2.23,5.82q-2.22,2.13-6.75,2.13t-6.75-2.13a7.66,7.66,0,0,1-2.22-5.82Zm12,.15c0-2-1-2.95-3-2.95s-3,1-3,2.95v13.9c0,2,1,2.95,3,2.95s3-1,3-2.95Z" fill="#202020"/><path d="M669.67,362l-8.25,21.86h-3.29L649.88,362h3l6.87,18.85L666.66,362Z" fill="#202020"/><path d="M672.81,370.58a7.73,7.73,0,0,1,2.93-3.09,8,8,0,0,1,4.16-1.1,7.62,7.62,0,0,1,3.92,1,6.46,6.46,0,0,1,2.47,2.45v-3.14h2.89v17.19h-2.89v-3.2a6.7,6.7,0,0,1-2.52,2.49,7.55,7.55,0,0,1-3.91,1,7.75,7.75,0,0,1-7.05-4.3,9.86,9.86,0,0,1-1.07-4.64A9.64,9.64,0,0,1,672.81,370.58Zm12.7,1.27a5.54,5.54,0,0,0-2.12-2.22,6,6,0,0,0-5.85,0,5.48,5.48,0,0,0-2.1,2.19,7.07,7.07,0,0,0-.78,3.39,7.22,7.22,0,0,0,.78,3.44,5.54,5.54,0,0,0,5,3,5.68,5.68,0,0,0,2.93-.77,5.47,5.47,0,0,0,2.12-2.22,7.15,7.15,0,0,0,.78-3.41A7,7,0,0,0,685.51,371.85Z" fill="#202020"/><path d="M696.86,360.65v23.21H694V360.65Z" fill="#202020"/><path d="M704.85,383a7.77,7.77,0,0,1-3.08-3.12,9.59,9.59,0,0,1-1.11-4.69,9.29,9.29,0,0,1,1.14-4.65,8,8,0,0,1,3.12-3.11,9.61,9.61,0,0,1,8.85,0,7.86,7.86,0,0,1,3.12,3.09,9.31,9.31,0,0,1,1.14,4.67,9.2,9.2,0,0,1-1.17,4.69,8.17,8.17,0,0,1-3.19,3.12,9,9,0,0,1-4.45,1.1A8.68,8.68,0,0,1,704.85,383Zm7.26-2.13a5.58,5.58,0,0,0,2.18-2.16,7.9,7.9,0,0,0,0-7,5.31,5.31,0,0,0-2.13-2.15,6,6,0,0,0-2.86-.7,5.88,5.88,0,0,0-2.86.7,5.17,5.17,0,0,0-2.09,2.15,7.28,7.28,0,0,0-.78,3.51,7.51,7.51,0,0,0,.76,3.55,5.16,5.16,0,0,0,2.06,2.15,5.75,5.75,0,0,0,2.82.7A6,6,0,0,0,712.11,380.91Z" fill="#202020"/><path d="M726.8,367.17a6.68,6.68,0,0,1,3.4-.81v2.95h-.75q-4.8,0-4.8,5.2v9.35H721.8V366.67h2.85v2.79A5.52,5.52,0,0,1,726.8,367.17Z" fill="#202020"/><path d="M683.74,425.75l-4-6.87h-2.65v6.87h-2.2V408.94h5.43a7.27,7.27,0,0,1,3.22.65,4.56,4.56,0,0,1,2,1.76,4.88,4.88,0,0,1-3.35,7.36l4.22,7Zm-6.65-8.63h3.23a3.67,3.67,0,0,0,2.67-.88,3.15,3.15,0,0,0,.9-2.36,3,3,0,0,0-.89-2.31,3.79,3.79,0,0,0-2.68-.82h-3.23Z" fill="#202020"/><path d="M699.82,423.35a4.74,4.74,0,0,1-1.7,1.75,5.64,5.64,0,0,1-2.69.79v2h-1.3v-2a6.05,6.05,0,0,1-3.57-1.41,4,4,0,0,1-1.39-3.1h2.33a2.93,2.93,0,0,0,2.63,2.7v-6a17.63,17.63,0,0,1-2.6-.85,4.3,4.3,0,0,1-1.69-1.35,3.93,3.93,0,0,1-.7-2.46,4.23,4.23,0,0,1,1.36-3.23,5.68,5.68,0,0,1,3.63-1.42v-2h1.3v2a5.42,5.42,0,0,1,3.31,1.31,4.53,4.53,0,0,1,1.44,3h-2.33a2.91,2.91,0,0,0-.75-1.53,3,3,0,0,0-1.67-.9v5.88a18.75,18.75,0,0,1,2.6.83,3.84,3.84,0,0,1,2.37,3.82A4.48,4.48,0,0,1,699.82,423.35Zm-7.74-8.26a5.52,5.52,0,0,0,2,1v-5.57a3.34,3.34,0,0,0-2,.81,2.44,2.44,0,0,0-.75,1.91A2.33,2.33,0,0,0,692.08,415.09Zm5.39,8.08a2.72,2.72,0,0,0,.74-1.91,2.29,2.29,0,0,0-.73-1.82,5.37,5.37,0,0,0-2.05-1v5.69A3.15,3.15,0,0,0,697.47,423.17Z" fill="#202020"/><path d="M712,410.38c.91-1.55,2.48-2.33,4.73-2.33s3.8.78,4.7,2.33a13,13,0,0,1,1.35,6.47,13.23,13.23,0,0,1-1.35,6.56q-1.35,2.34-4.7,2.34c-2.25,0-3.82-.78-4.73-2.34a13.24,13.24,0,0,1-1.34-6.56A13,13,0,0,1,712,410.38Zm8.34,2.91a4.6,4.6,0,0,0-1.14-2.35,3.9,3.9,0,0,0-5,0,4.52,4.52,0,0,0-1.14,2.35,19.91,19.91,0,0,0-.28,3.56,20.48,20.48,0,0,0,.28,3.64,4.48,4.48,0,0,0,1.14,2.36,3.87,3.87,0,0,0,5,0,4.56,4.56,0,0,0,1.14-2.36,20.58,20.58,0,0,0,.27-3.64A20,20,0,0,0,720.31,413.29Z" fill="#202020"/><path d="M728.39,422.71l-2.7,6.49h-1.47l1.76-6.49Z" fill="#202020"/><path d="M731.89,410.38q1.35-2.33,4.73-2.33t4.7,2.33a13,13,0,0,1,1.35,6.47,13.23,13.23,0,0,1-1.35,6.56q-1.35,2.34-4.7,2.34t-4.73-2.34a13.23,13.23,0,0,1-1.35-6.56A13,13,0,0,1,731.89,410.38Zm8.33,2.91a4.51,4.51,0,0,0-1.13-2.35,3.91,3.91,0,0,0-5,0,4.51,4.51,0,0,0-1.13,2.35,19,19,0,0,0-.28,3.56,19.57,19.57,0,0,0,.28,3.64,4.47,4.47,0,0,0,1.13,2.36,3.88,3.88,0,0,0,5,0,4.47,4.47,0,0,0,1.13-2.36,19.57,19.57,0,0,0,.28-3.64A19,19,0,0,0,740.22,413.29Z" fill="#202020"/><path d="M747,410.38q1.35-2.33,4.73-2.33t4.7,2.33a13,13,0,0,1,1.35,6.47,13.23,13.23,0,0,1-1.35,6.56q-1.35,2.34-4.7,2.34T747,423.41a13.23,13.23,0,0,1-1.35-6.56A13,13,0,0,1,747,410.38Zm8.33,2.91a4.51,4.51,0,0,0-1.13-2.35,3.91,3.91,0,0,0-5,0,4.51,4.51,0,0,0-1.13,2.35,19,19,0,0,0-.28,3.56,19.57,19.57,0,0,0,.28,3.64,4.47,4.47,0,0,0,1.13,2.36,3.88,3.88,0,0,0,5,0,4.47,4.47,0,0,0,1.13-2.36,19.57,19.57,0,0,0,.28-3.64A19,19,0,0,0,755.36,413.29Z" fill="#202020"/><rect x="648.63" y="394.89" width="624.94" height="47.05" rx="6" fill="none" stroke="#202020" stroke-miterlimit="10"/><path d="M664.06,717.43v2.32h-6v19.54h-2.85V719.75h-6v-2.32Z" fill="#202020"/><path d="M683.16,731.76H669.43a5.41,5.41,0,0,0,5.58,5.4,5.33,5.33,0,0,0,3.09-.86,4.67,4.67,0,0,0,1.74-2.31h3.07a7.38,7.38,0,0,1-2.76,4,8.28,8.28,0,0,1-5.14,1.55,8.73,8.73,0,0,1-4.38-1.09,7.82,7.82,0,0,1-3-3.12,9.62,9.62,0,0,1-1.1-4.69,9.85,9.85,0,0,1,1.06-4.68,7.63,7.63,0,0,1,3-3.09,8.93,8.93,0,0,1,4.44-1.08,8.66,8.66,0,0,1,4.33,1.07,7.43,7.43,0,0,1,2.9,2.93,8.67,8.67,0,0,1,1,4.22A14.9,14.9,0,0,1,683.16,731.76Zm-3.57-5.12a4.7,4.7,0,0,0-2-1.79,6.1,6.1,0,0,0-2.75-.61,5.27,5.27,0,0,0-3.68,1.38,5.56,5.56,0,0,0-1.74,3.82h10.85A5.25,5.25,0,0,0,679.59,726.64Z" fill="#202020"/><path d="M711.27,722.62a6,6,0,0,1,2.47,2.5,8.24,8.24,0,0,1,.91,4v10.13h-2.82v-9.72a5.56,5.56,0,0,0-1.27-3.94,4.46,4.46,0,0,0-3.43-1.36,4.57,4.57,0,0,0-3.55,1.43,5.84,5.84,0,0,0-1.32,4.12v9.47h-2.82v-9.72a5.56,5.56,0,0,0-1.27-3.94,4.46,4.46,0,0,0-3.43-1.36,4.57,4.57,0,0,0-3.55,1.43,5.84,5.84,0,0,0-1.31,4.12v9.47H687V722.1h2.86v2.48a5.6,5.6,0,0,1,2.27-2.07,6.88,6.88,0,0,1,3.15-.72,7.54,7.54,0,0,1,3.83,1,6,6,0,0,1,2.48,2.86,5.61,5.61,0,0,1,2.38-2.83,7.1,7.1,0,0,1,3.7-1A7.59,7.59,0,0,1,711.27,722.62Z" fill="#202020"/><path d="M724.71,722.81a7.51,7.51,0,0,1,3.9-1,8.08,8.08,0,0,1,4.16,1.1A7.73,7.73,0,0,1,735.7,726a9.67,9.67,0,0,1,1.06,4.63,9.88,9.88,0,0,1-1.06,4.64,7.78,7.78,0,0,1-7.09,4.29,7.45,7.45,0,0,1-3.87-1,7.07,7.07,0,0,1-2.56-2.47v11.33h-2.85V722.1h2.85v3.17A6.8,6.8,0,0,1,724.71,722.81Zm8.35,4.44a5.46,5.46,0,0,0-2.11-2.2,5.9,5.9,0,0,0-2.94-.75,5.75,5.75,0,0,0-2.9.77,5.56,5.56,0,0,0-2.13,2.22,7.58,7.58,0,0,0,0,6.78,5.66,5.66,0,0,0,2.13,2.23,5.75,5.75,0,0,0,2.9.77,5.81,5.81,0,0,0,2.94-.77,5.61,5.61,0,0,0,2.11-2.23,7.06,7.06,0,0,0,.79-3.43A6.9,6.9,0,0,0,733.06,727.25Z" fill="#202020"/><path d="M743.65,738.48a7.9,7.9,0,0,1-3.08-3.12,9.62,9.62,0,0,1-1.11-4.69,9.23,9.23,0,0,1,1.15-4.66,7.91,7.91,0,0,1,3.12-3.11,9.58,9.58,0,0,1,8.84,0,8,8,0,0,1,3.12,3.09,9.23,9.23,0,0,1,1.15,4.68,9.13,9.13,0,0,1-1.18,4.69,8.15,8.15,0,0,1-3.18,3.12,9.17,9.17,0,0,1-4.46,1.09A8.8,8.8,0,0,1,743.65,738.48Zm7.26-2.14a5.45,5.45,0,0,0,2.18-2.16,7,7,0,0,0,.83-3.51,7.13,7.13,0,0,0-.81-3.52A5.37,5.37,0,0,0,751,725a6.12,6.12,0,0,0-5.72,0,5.2,5.2,0,0,0-2.09,2.14,8.43,8.43,0,0,0,0,7.06,5.08,5.08,0,0,0,2.05,2.15,5.79,5.79,0,0,0,2.82.71A5.94,5.94,0,0,0,750.91,736.34Z" fill="#202020"/><path d="M674.88,765.81q1.35-2.32,4.73-2.33t4.7,2.33a13,13,0,0,1,1.35,6.47,13.2,13.2,0,0,1-1.35,6.56q-1.35,2.34-4.7,2.34t-4.73-2.34a13.2,13.2,0,0,1-1.35-6.56A13,13,0,0,1,674.88,765.81Zm8.33,2.92a4.48,4.48,0,0,0-1.13-2.35,3.91,3.91,0,0,0-5,0,4.48,4.48,0,0,0-1.13,2.35,18.91,18.91,0,0,0-.28,3.55,19.69,19.69,0,0,0,.28,3.65,4.51,4.51,0,0,0,1.13,2.36,3.91,3.91,0,0,0,5,0,4.51,4.51,0,0,0,1.13-2.36,19.69,19.69,0,0,0,.28-3.65A18.91,18.91,0,0,0,683.21,768.73Z" fill="#202020"/><path d="M690,765.81q1.35-2.32,4.73-2.33t4.7,2.33a13,13,0,0,1,1.35,6.47,13.2,13.2,0,0,1-1.35,6.56q-1.35,2.34-4.7,2.34T690,778.84a13.2,13.2,0,0,1-1.35-6.56A13,13,0,0,1,690,765.81Zm8.33,2.92a4.48,4.48,0,0,0-1.13-2.35,3.24,3.24,0,0,0-2.47-.89,3.29,3.29,0,0,0-2.5.89,4.48,4.48,0,0,0-1.13,2.35,18.91,18.91,0,0,0-.28,3.55,19.69,19.69,0,0,0,.28,3.65,4.51,4.51,0,0,0,1.13,2.36,3.33,3.33,0,0,0,2.5.89,3.27,3.27,0,0,0,2.47-.89,4.51,4.51,0,0,0,1.13-2.36,19.69,19.69,0,0,0,.28-3.65A18.91,18.91,0,0,0,698.35,768.73Z" fill="#202020"/><path d="M703.81,770.57a1.52,1.52,0,0,1,0-2.12,1.46,1.46,0,0,1,1.07-.43,1.36,1.36,0,0,1,1,.43,1.55,1.55,0,0,1,0,2.12,1.37,1.37,0,0,1-1,.44A1.46,1.46,0,0,1,703.81,770.57Zm0,10.32a1.52,1.52,0,0,1,0-2.12,1.46,1.46,0,0,1,1.07-.43,1.36,1.36,0,0,1,1,.43,1.55,1.55,0,0,1,0,2.12,1.37,1.37,0,0,1-1,.44A1.46,1.46,0,0,1,703.81,780.89Z" fill="#202020"/><path d="M710.3,765.81q1.35-2.32,4.73-2.33t4.7,2.33a13,13,0,0,1,1.35,6.47,13.2,13.2,0,0,1-1.35,6.56q-1.35,2.34-4.7,2.34t-4.73-2.34a13.2,13.2,0,0,1-1.35-6.56A13,13,0,0,1,710.3,765.81Zm8.33,2.92a4.48,4.48,0,0,0-1.13-2.35,3.91,3.91,0,0,0-5,0,4.48,4.48,0,0,0-1.13,2.35,18.91,18.91,0,0,0-.28,3.55,19.69,19.69,0,0,0,.28,3.65,4.51,4.51,0,0,0,1.13,2.36,3.91,3.91,0,0,0,5,0,4.51,4.51,0,0,0,1.13-2.36,19.69,19.69,0,0,0,.28-3.65A18.91,18.91,0,0,0,718.63,768.73Z" fill="#202020"/><path d="M725.44,765.81q1.35-2.32,4.73-2.33t4.7,2.33a13,13,0,0,1,1.35,6.47,13.2,13.2,0,0,1-1.35,6.56q-1.35,2.34-4.7,2.34t-4.73-2.34a13.2,13.2,0,0,1-1.35-6.56A13,13,0,0,1,725.44,765.81Zm8.33,2.92a4.48,4.48,0,0,0-1.13-2.35,3.91,3.91,0,0,0-5,0,4.48,4.48,0,0,0-1.13,2.35,18.91,18.91,0,0,0-.28,3.55,19.69,19.69,0,0,0,.28,3.65,4.51,4.51,0,0,0,1.13,2.36,3.91,3.91,0,0,0,5,0,4.51,4.51,0,0,0,1.13-2.36,19.69,19.69,0,0,0,.28-3.65A18.91,18.91,0,0,0,733.77,768.73Z" fill="#202020"/><rect x="647.63" y="750.32" width="624.94" height="47.05" rx="6" fill="none" stroke="#202020" stroke-miterlimit="10"/><path d="M663.82,476a9.35,9.35,0,0,1,4,3.81,12.82,12.82,0,0,1,0,11.65,9.13,9.13,0,0,1-4,3.76,13.74,13.74,0,0,1-6.19,1.3h-6.81V474.65h6.81A13.48,13.48,0,0,1,663.82,476Zm.27,15.93a8.56,8.56,0,0,0,2.22-6.29,7.88,7.88,0,0,0-8.68-8.66h-4v17.19h4C660.45,494.16,662.6,493.42,664.09,491.92Z" fill="#202020"/><path d="M688.58,489H674.84a5.6,5.6,0,0,0,1.75,4,5.51,5.51,0,0,0,3.84,1.42,5.33,5.33,0,0,0,3.09-.86,4.63,4.63,0,0,0,1.74-2.31h3.07a7.34,7.34,0,0,1-2.76,4,8.29,8.29,0,0,1-5.14,1.56,8.74,8.74,0,0,1-4.38-1.1,7.76,7.76,0,0,1-3-3.12,9.59,9.59,0,0,1-1.1-4.69,9.78,9.78,0,0,1,1.06-4.67,7.51,7.51,0,0,1,3-3.09,8.93,8.93,0,0,1,4.44-1.09,8.66,8.66,0,0,1,4.33,1.07,7.43,7.43,0,0,1,2.9,2.93,8.67,8.67,0,0,1,1,4.22C688.68,487.81,688.64,488.38,688.58,489ZM685,483.86a4.77,4.77,0,0,0-2-1.79,6.1,6.1,0,0,0-2.75-.61,5.27,5.27,0,0,0-3.68,1.38,5.58,5.58,0,0,0-1.74,3.83h10.85A5.27,5.27,0,0,0,685,483.86Z" fill="#202020"/><path d="M695,496.12a5.94,5.94,0,0,1-2.48-1.88,5,5,0,0,1-1-2.78h3a2.9,2.9,0,0,0,1.2,2.11,4.64,4.64,0,0,0,2.84.81,4.16,4.16,0,0,0,2.58-.72,2.23,2.23,0,0,0,.94-1.82,1.81,1.81,0,0,0-1-1.68,14.63,14.63,0,0,0-3.1-1.08,21.16,21.16,0,0,1-3.12-1,5.39,5.39,0,0,1-2.07-1.53,4,4,0,0,1-.87-2.69,4.07,4.07,0,0,1,.79-2.41,5.28,5.28,0,0,1,2.23-1.74,8,8,0,0,1,3.29-.65,7,7,0,0,1,4.61,1.45,5.19,5.19,0,0,1,1.88,3.95h-2.85a3,3,0,0,0-1.08-2.16,4.78,4.78,0,0,0-5.1-.16,2,2,0,0,0-.91,1.72,1.88,1.88,0,0,0,.55,1.4,3.85,3.85,0,0,0,1.38.88,23.15,23.15,0,0,0,2.3.73,25.9,25.9,0,0,1,3,1,5.34,5.34,0,0,1,2,1.46,3.93,3.93,0,0,1,.86,2.54,4.3,4.3,0,0,1-.79,2.54,5.17,5.17,0,0,1-2.21,1.77,7.85,7.85,0,0,1-3.27.65A8.92,8.92,0,0,1,695,496.12Z" fill="#202020"/><path d="M708.81,483.23a7.69,7.69,0,0,1,3-3.09,9.38,9.38,0,0,1,9.56.44,7.23,7.23,0,0,1,2.71,4.27H721a4.39,4.39,0,0,0-1.71-2.48,5.26,5.26,0,0,0-3.15-.91,5,5,0,0,0-4,1.68,6.84,6.84,0,0,0-1.51,4.75,7,7,0,0,0,1.51,4.8,5,5,0,0,0,4,1.69,5.33,5.33,0,0,0,3.14-.88A4.43,4.43,0,0,0,721,491h3.07a7.53,7.53,0,0,1-2.76,4.22,8.23,8.23,0,0,1-5.17,1.59,8.51,8.51,0,0,1-4.34-1.1,7.61,7.61,0,0,1-3-3.11,9.85,9.85,0,0,1-1.06-4.7A9.74,9.74,0,0,1,708.81,483.23Z" fill="#202020"/><path d="M732.85,479.83a6.7,6.7,0,0,1,3.41-.82V482h-.76q-4.8,0-4.8,5.21v9.34h-2.85V479.33h2.85v2.79A5.53,5.53,0,0,1,732.85,479.83Z" fill="#202020"/><path d="M739.64,476a2,2,0,0,1,0-2.76,1.87,1.87,0,0,1,1.38-.56,1.8,1.8,0,0,1,1.34.56,2,2,0,0,1,0,2.76,1.81,1.81,0,0,1-1.34.57A1.88,1.88,0,0,1,739.64,476Zm2.76,3.36v17.18h-2.85V479.33Z" fill="#202020"/><path d="M757.71,493.5a4.43,4.43,0,0,0,1.72-2.51h3.08a7.48,7.48,0,0,1-2.47,4,7.85,7.85,0,0,1-4.59,1.78v1.56a4.67,4.67,0,0,1,2.95.79,2.72,2.72,0,0,1,1.1,2.32,2.89,2.89,0,0,1-1.07,2.35,4.17,4.17,0,0,1-2.76.88h-3.61v-1.85h3.05a2.89,2.89,0,0,0,1.52-.32,1.39,1.39,0,0,0,0-2.1,2.9,2.9,0,0,0-1.52-.31h-1.57v-3.36a8,8,0,0,1-3.83-1.36,7.71,7.71,0,0,1-2.59-3.07,10.2,10.2,0,0,1-.92-4.41,9.74,9.74,0,0,1,1.06-4.66,7.69,7.69,0,0,1,3-3.09,9.38,9.38,0,0,1,9.56.44,7.29,7.29,0,0,1,2.72,4.27h-3.08a4.39,4.39,0,0,0-1.71-2.48,5.22,5.22,0,0,0-3.15-.91,5,5,0,0,0-4,1.68,6.89,6.89,0,0,0-1.51,4.75,7,7,0,0,0,1.51,4.8,5,5,0,0,0,4,1.69A5.31,5.31,0,0,0,757.71,493.5Z" fill="#202020"/><path d="M766.3,483.23a7.79,7.79,0,0,1,2.93-3.09,8.08,8.08,0,0,1,4.16-1.1,7.6,7.6,0,0,1,3.92,1,6.53,6.53,0,0,1,2.48,2.44v-3.13h2.88v17.18h-2.88v-3.19a6.8,6.8,0,0,1-2.53,2.49,7.54,7.54,0,0,1-3.9,1,7.78,7.78,0,0,1-7.06-4.3,9.88,9.88,0,0,1-1.06-4.64A9.67,9.67,0,0,1,766.3,483.23ZM779,484.5a5.49,5.49,0,0,0-2.11-2.21,5.8,5.8,0,0,0-2.93-.77,5.71,5.71,0,0,0-2.92.76,5.41,5.41,0,0,0-2.1,2.19,6.9,6.9,0,0,0-.79,3.39,7,7,0,0,0,.79,3.43,5.52,5.52,0,0,0,2.1,2.23,5.71,5.71,0,0,0,2.92.77,5.8,5.8,0,0,0,2.93-.77,5.48,5.48,0,0,0,2.11-2.23,7.69,7.69,0,0,0,0-6.79ZM771,475a2.81,2.81,0,0,1,2.08-.85,2.26,2.26,0,0,1,1,.21,8.3,8.3,0,0,1,1,.58,5.76,5.76,0,0,0,.79.48,1.6,1.6,0,0,0,.75.18,1.29,1.29,0,0,0,.91-.35,1.6,1.6,0,0,0,.47-1h1.63a4,4,0,0,1-1,2.41,2.85,2.85,0,0,1-2.1.85,2.54,2.54,0,0,1-1.06-.21,5,5,0,0,1-1-.61c-.34-.21-.61-.36-.8-.47a1.58,1.58,0,0,0-.71-.15,1.22,1.22,0,0,0-.89.34,1.71,1.71,0,0,0-.46,1h-1.66A4.18,4.18,0,0,1,771,475Z" fill="#202020"/><path d="M790.63,495.7a7.77,7.77,0,0,1-3.08-3.12,9.59,9.59,0,0,1-1.11-4.69,9.33,9.33,0,0,1,1.14-4.66,8,8,0,0,1,3.12-3.1,9.53,9.53,0,0,1,8.85,0,7.86,7.86,0,0,1,3.12,3.09,10.06,10.06,0,0,1,0,9.36,8.17,8.17,0,0,1-3.19,3.12,9.12,9.12,0,0,1-4.45,1.1A8.78,8.78,0,0,1,790.63,495.7Zm7.26-2.13a5.61,5.61,0,0,0,2.18-2.17,7.88,7.88,0,0,0,0-7,5.31,5.31,0,0,0-2.13-2.15,6.14,6.14,0,0,0-5.73,0,5.2,5.2,0,0,0-2.08,2.15,7.28,7.28,0,0,0-.79,3.51,7.47,7.47,0,0,0,.77,3.54,5,5,0,0,0,2.06,2.15,5.73,5.73,0,0,0,2.82.71A6.07,6.07,0,0,0,797.89,493.57Z" fill="#202020"/><path d="M684,539.67h-7.33l-1.35,3.73h-2.31l6.07-16.71h2.53l6.06,16.71h-2.32Zm-.63-1.79-3-8.49-3,8.49Z" fill="#202020"/><path d="M694.53,530.72a5.84,5.84,0,0,1,3-.75,6.11,6.11,0,0,1,3.21.85,5.89,5.89,0,0,1,2.24,2.37,7.4,7.4,0,0,1,.82,3.56,7.58,7.58,0,0,1-.82,3.57,6,6,0,0,1-5.45,3.3,5.86,5.86,0,0,1-3-.75,5.06,5.06,0,0,1-1.94-1.9v2.43h-2.19V525.56h2.19v7.09A5.18,5.18,0,0,1,694.53,530.72Zm6.39,3.42a4.19,4.19,0,0,0-1.63-1.68,4.58,4.58,0,0,0-4.48,0,4.23,4.23,0,0,0-1.64,1.71,5.31,5.31,0,0,0-.62,2.59,5.37,5.37,0,0,0,.62,2.62,4.23,4.23,0,0,0,1.64,1.71,4.3,4.3,0,0,0,2.23.59,4.35,4.35,0,0,0,2.25-.59,4.21,4.21,0,0,0,1.63-1.71,5.53,5.53,0,0,0,.6-2.64A5.41,5.41,0,0,0,700.92,534.14Z" fill="#202020"/><path d="M718.38,530.19V543.4h-2.2v-1.95a4.26,4.26,0,0,1-1.75,1.58,5.38,5.38,0,0,1-2.47.57,6,6,0,0,1-2.77-.64,4.66,4.66,0,0,1-1.94-1.92,6.25,6.25,0,0,1-.71-3.11v-7.74h2.17v7.45a4.25,4.25,0,0,0,1,3,3.53,3.53,0,0,0,2.7,1.05,3.63,3.63,0,0,0,2.78-1.08,4.51,4.51,0,0,0,1-3.16v-7.26Z" fill="#202020"/><path d="M726.26,530.72a5.84,5.84,0,0,1,3-.75,6.11,6.11,0,0,1,3.21.85,5.89,5.89,0,0,1,2.24,2.37,7.4,7.4,0,0,1,.82,3.56,7.58,7.58,0,0,1-.82,3.57,6,6,0,0,1-5.45,3.3,5.86,5.86,0,0,1-3-.75,5.06,5.06,0,0,1-1.94-1.9v2.43h-2.19V525.56h2.19v7.09A5.18,5.18,0,0,1,726.26,530.72Zm6.39,3.42a4.19,4.19,0,0,0-1.63-1.68,4.58,4.58,0,0,0-4.48,0,4.23,4.23,0,0,0-1.64,1.71,5.31,5.31,0,0,0-.62,2.59,5.37,5.37,0,0,0,.62,2.62,4.23,4.23,0,0,0,1.64,1.71,4.3,4.3,0,0,0,2.23.59,4.35,4.35,0,0,0,2.25-.59,4.21,4.21,0,0,0,1.63-1.71,5.53,5.53,0,0,0,.6-2.64A5.41,5.41,0,0,0,732.65,534.14Z" fill="#202020"/><path d="M740.58,525.56V543.4h-2.19V525.56Z" fill="#202020"/><path d="M744.39,527.61a1.5,1.5,0,0,1,1.06-2.56,1.39,1.39,0,0,1,1,.44,1.55,1.55,0,0,1,0,2.12,1.38,1.38,0,0,1-1,.43A1.43,1.43,0,0,1,744.39,527.61Zm2.12,2.58V543.4h-2.19V530.19Z" fill="#202020"/><path d="M760.59,531.41a5.59,5.59,0,0,1,1.5,4.21v7.78h-2.17v-7.47a4.25,4.25,0,0,0-1-3,3.53,3.53,0,0,0-2.7-1,3.62,3.62,0,0,0-2.76,1.09,4.39,4.39,0,0,0-1,3.16v7.3h-2.19V530.19h2.19v1.88a4.45,4.45,0,0,1,1.78-1.57,5.46,5.46,0,0,1,2.47-.55A5.35,5.35,0,0,1,760.59,531.41Z" fill="#202020"/><path d="M774.94,530.59a4.52,4.52,0,0,1,1.89,1.91,6.51,6.51,0,0,1,.69,3.12v7.78h-2.17v-7.47a4.25,4.25,0,0,0-1-3,3.53,3.53,0,0,0-2.7-1,3.62,3.62,0,0,0-2.76,1.09,4.43,4.43,0,0,0-1,3.16v7.3h-2.2V525.56h2.2v6.51a4.35,4.35,0,0,1,1.79-1.57,5.8,5.8,0,0,1,2.57-.55A5.61,5.61,0,0,1,774.94,530.59Z" fill="#202020"/><path d="M781.11,533.19a5.94,5.94,0,0,1,2.26-2.37,6.09,6.09,0,0,1,3.19-.85,5.88,5.88,0,0,1,3,.75,5,5,0,0,1,1.9,1.88v-2.41h2.22V543.4h-2.22v-2.46a5.11,5.11,0,0,1-1.94,1.92,5.77,5.77,0,0,1-3,.76,6,6,0,0,1-3.19-.87,6.19,6.19,0,0,1-2.24-2.43,7.7,7.7,0,0,1-.82-3.57A7.51,7.51,0,0,1,781.11,533.19Zm9.77,1a4.24,4.24,0,0,0-1.63-1.7,4.62,4.62,0,0,0-4.5,0,4.21,4.21,0,0,0-1.61,1.68,5.41,5.41,0,0,0-.6,2.61,5.53,5.53,0,0,0,.6,2.64,4.23,4.23,0,0,0,1.61,1.71,4.59,4.59,0,0,0,4.5,0,4.21,4.21,0,0,0,1.63-1.71,5.48,5.48,0,0,0,.6-2.62A5.4,5.4,0,0,0,790.88,534.17Z" fill="#202020"/><path d="M799.36,543.1a4.64,4.64,0,0,1-1.9-1.44,3.84,3.84,0,0,1-.77-2.14H799a2.27,2.27,0,0,0,.93,1.62,3.59,3.59,0,0,0,2.18.62,3.17,3.17,0,0,0,2-.55,1.71,1.71,0,0,0,.73-1.4,1.37,1.37,0,0,0-.78-1.29,10.7,10.7,0,0,0-2.38-.83,18.9,18.9,0,0,1-2.4-.78,4.22,4.22,0,0,1-1.59-1.19,3.31,3.31,0,0,1-.06-3.91,4,4,0,0,1,1.71-1.34,6.14,6.14,0,0,1,2.53-.5,5.4,5.4,0,0,1,3.54,1.11,4,4,0,0,1,1.45,3H804.6a2.27,2.27,0,0,0-.84-1.66,3.06,3.06,0,0,0-2-.63,3.11,3.11,0,0,0-1.88.51,1.54,1.54,0,0,0-.7,1.32,1.48,1.48,0,0,0,.42,1.08,3.06,3.06,0,0,0,1.06.67q.64.26,1.77.57a18.06,18.06,0,0,1,2.32.76,4.1,4.1,0,0,1,1.53,1.12,3.05,3.05,0,0,1,.66,1.95,3.33,3.33,0,0,1-.6,2,4,4,0,0,1-1.7,1.37,6.06,6.06,0,0,1-2.52.49A6.82,6.82,0,0,1,799.36,543.1Z" fill="#202020"/><rect x="647.84" y="512.54" width="624.94" height="163.36" rx="6" fill="none" stroke="#202020" stroke-miterlimit="10"/><path d="M148.37,50.79V59l5.06.84a15.65,15.65,0,0,0,1.6,3.84l-3,4.12,5.81,5.9,4.22-2.91a19.74,19.74,0,0,0,3.84,1.6l.85,5H175l.84-5.06a16.78,16.78,0,0,0,3.84-1.59l4.13,2.9,5.91-5.8-3-4.12a18.91,18.91,0,0,0,1.59-3.93l5.06-.75V50.79L188.31,50a18.15,18.15,0,0,0-1.59-3.84l3-4.21-5.82-5.81-4.22,3a18.17,18.17,0,0,0-3.93-1.59l-.85-5h-8.25l-.84,5.05A20.07,20.07,0,0,0,162,39.18l-4.22-3L151.93,42l3,4.21A18.15,18.15,0,0,0,153.34,50Zm22.47-4.53a8.63,8.63,0,1,1-8.62,8.62A8.6,8.6,0,0,1,170.84,46.26Z" fill="#fff"/></svg>