<svg id="Camada_1" data-name="Camada 1" xmlns="http://www.w3.org/2000/svg" viewBox="0 0 1920 1080"><rect x="2" y="-0.24" width="1920" height="105.46" fill="#202020"/><path d="M1727.46,73.26c1-3.55,1.91-7,2.87-10.49a.86.86,0,0,0-.07-.7,21,21,0,0,1,8.41-28.67,19.84,19.84,0,0,1,12.62-2.32c8.74,1.31,14.59,6.25,17.39,14.59a21,21,0,0,1-20.52,27.24,20.41,20.41,0,0,1-9.29-2.41.76.76,0,0,0-.59-.06l-10.35,2.72Zm5-5,.26-.06c1.91-.5,3.83-1,5.74-1.52a1.35,1.35,0,0,1,1.15.17,17,17,0,0,0,16.58.73,17.46,17.46,0,0,0-10.31-33,16.9,16.9,0,0,0-8.9,4.24,17.46,17.46,0,0,0-3,22.53,1,1,0,0,1,.14.9C1733.58,64.27,1733.06,66.24,1732.5,68.28Z" fill="#fff"/><path d="M1741.84,42.22c.94-.25,1.36.35,1.67,1.18.48,1.21,1,2.41,1.5,3.61a1.09,1.09,0,0,1-.08,1.13,20.67,20.67,0,0,1-1.28,1.68.81.81,0,0,0-.08,1.08,14.43,14.43,0,0,0,7.21,6.2.83.83,0,0,0,1.06-.26c.52-.65,1.06-1.3,1.58-2,.36-.45.55-.54,1.09-.33,1.53.62,3,1.38,4.45,2.12a.63.63,0,0,1,.33.62c0,2.25-.71,3.35-3.11,4.35a6.19,6.19,0,0,1-4.14,0c-5.06-1.41-8.79-4.59-11.77-8.78a11.91,11.91,0,0,1-2.13-4.27,6,6,0,0,1,1.75-5.88A2.2,2.2,0,0,1,1741.84,42.22Z" fill="#fff"/><path d="M1680.6,30.85h2a.28.28,0,0,0,.42,0h.93c.1.16.26.07.38.08a32.45,32.45,0,0,1,3.82.33A11.47,11.47,0,0,1,1698,41.43a7.23,7.23,0,0,0,.23,1.67V61.62c-.13.05-.07.16-.08.25a18.73,18.73,0,0,1-.34,2.59,11.16,11.16,0,0,1-6.78,8.45,17.24,17.24,0,0,1-6.36,1.13c-4.56.14-9.12.1-13.69.06a29,29,0,0,1-6.76-.57,11.07,11.07,0,0,1-7.78-6.23,15,15,0,0,1-1.29-6q-.27-8.7,0-17.4a17.4,17.4,0,0,1,.57-4.18,11,11,0,0,1,6.77-7.71,17.7,17.7,0,0,1,6.16-1.06c.14,0,.31.09.42-.08h1.69a4.37,4.37,0,0,0,1.35.08h2.15c.16,0,.34.06.47-.08h3.81A5.35,5.35,0,0,0,1680.6,30.85Zm-4,39.38c1.14,0,2.28,0,3.42,0a50,50,0,0,0,7.34-.34,7.33,7.33,0,0,0,6.37-5.44,16.82,16.82,0,0,0,.52-4.35c.13-3.91.09-7.83.07-11.75a48.11,48.11,0,0,0-.32-6.57,7.43,7.43,0,0,0-6-6.55,23.09,23.09,0,0,0-4.54-.4c-3.8-.07-7.6-.07-11.41,0a38.53,38.53,0,0,0-6.44.36,7.32,7.32,0,0,0-6.2,5.69,20.22,20.22,0,0,0-.45,4.52c-.1,3.51-.09,7-.06,10.53a54.82,54.82,0,0,0,.31,7.25,7.52,7.52,0,0,0,3.39,5.58,9.72,9.72,0,0,0,4.7,1.34C1670.41,70.27,1673.53,70.23,1676.64,70.23Z" fill="#fff"/><path d="M1674.68,30.85c-.13.14-.31.08-.47.08h-2.15s0-.06,0-.08Z" fill="#fff"/><path d="M1680.6,30.85a5.35,5.35,0,0,1-2.11,0Z" fill="#fff"/><path d="M1672.06,30.85s0,0,0,.08a4.37,4.37,0,0,1-1.35-.08Z" fill="#fff"/><path d="M1683.05,30.85a.28.28,0,0,1-.42,0Z" fill="#fff"/><path d="M1676.6,63.61a11.12,11.12,0,1,1,11.14-11.1A11.14,11.14,0,0,1,1676.6,63.61Zm-7.18-11.14a7.21,7.21,0,1,0,7.24-7.18A7.19,7.19,0,0,0,1669.42,52.47Z" fill="#fff"/><path d="M1690.77,40.93a2.59,2.59,0,1,1-2.6-2.58A2.59,2.59,0,0,1,1690.77,40.93Z" fill="#fff"/><path d="M492.45,46.54A4.58,4.58,0,0,1,494,42.83a6.78,6.78,0,0,1,4.48-1.32,15.09,15.09,0,0,1,4.73.61v3a12,12,0,0,0-4.42-.71c-2.1,0-3.15.78-3.15,2.33V48.1a3,3,0,0,0,.42,1.7A4.52,4.52,0,0,0,497.59,51l3.92,2.2a4.82,4.82,0,0,1,2.74,4.49v1.89a4.5,4.5,0,0,1-1.73,3.8,7.67,7.67,0,0,1-4.85,1.34,14.74,14.74,0,0,1-5-.71V61a13.7,13.7,0,0,0,4.7.81q3.69,0,3.69-2.5V58.17a2.78,2.78,0,0,0-.38-1.57,3.66,3.66,0,0,0-1.38-1.1l-3.82-2.1a5.19,5.19,0,0,1-3-4.83Z" fill="#fff"/><path d="M507,46.92a5.43,5.43,0,0,1,1.54-4.06,7.59,7.59,0,0,1,9.14,0,5.41,5.41,0,0,1,1.56,4V59.39a5.38,5.38,0,0,1-1.56,4,7.6,7.6,0,0,1-9.12,0,5.38,5.38,0,0,1-1.56-4ZM516,47c0-1.85-1-2.77-2.94-2.77s-2.94.92-2.94,2.77V59.25c0,1.87,1,2.81,2.94,2.81s2.94-.94,2.94-2.81Z" fill="#fff"/><path d="M535,46.88v2c0,2.14-.82,3.51-2.44,4.12q2.64.87,2.64,4.26v2.13a5.11,5.11,0,0,1-1.4,3.87,5.8,5.8,0,0,1-4.14,1.33H523V41.68h6.45A5.77,5.77,0,0,1,533.63,43,5.08,5.08,0,0,1,535,46.88Zm-5.92-2.47h-2.91v7.24h2.91c1.85,0,2.77-.88,2.77-2.64V47C531.89,45.28,531,44.41,529.12,44.41Zm3,14.84V57.09c0-1.74-.93-2.6-2.78-2.6h-3.11v7.36h3.11C531.17,61.85,532.1,61,532.1,59.25Z" fill="#fff"/><path d="M542.27,55.67v8.92h-3.18V41.68h6.15A5.83,5.83,0,0,1,549.38,43a4.89,4.89,0,0,1,1.44,3.75v3.65q0,3.75-2.87,4.83l3.65,9.33h-3.52l-3.28-8.92Zm0-11.22V53H545a2.27,2.27,0,0,0,2.67-2.6V47c0-1.69-.89-2.53-2.67-2.53Z" fill="#fff"/><path d="M554.77,41.68h10.44v2.8H558v7.13h6.32v2.81H558v7.4h7.26v2.77H554.77Z" fill="#fff"/><path d="M765.21,46.54a4.55,4.55,0,0,1,1.58-3.71,6.75,6.75,0,0,1,4.47-1.32,15.2,15.2,0,0,1,4.74.61v3a12.14,12.14,0,0,0-4.43-.71c-2.1,0-3.14.78-3.14,2.33V48.1a3,3,0,0,0,.42,1.7,4.37,4.37,0,0,0,1.5,1.24l3.92,2.2A4.81,4.81,0,0,1,777,57.73v1.89a4.5,4.5,0,0,1-1.72,3.8,7.71,7.71,0,0,1-4.85,1.34,14.66,14.66,0,0,1-5-.71V61a13.62,13.62,0,0,0,4.7.81q3.68,0,3.68-2.5V58.17a2.78,2.78,0,0,0-.37-1.57A3.79,3.79,0,0,0,772,55.5l-3.82-2.1a5.2,5.2,0,0,1-3-4.83Z" fill="#fff"/><path d="M780.05,41.68H790.5v2.8h-7.27v7.13h6.32v2.81h-6.32v7.4h7.27v2.77H780.05Z" fill="#fff"/><path d="M796.88,55.67v8.92h-3.17V41.68h6.15A5.83,5.83,0,0,1,804,43a4.92,4.92,0,0,1,1.43,3.75v3.65c0,2.5-.95,4.11-2.87,4.83l3.65,9.33H802.7l-3.28-8.92Zm0-11.22V53h2.71a2.76,2.76,0,0,0,2-.64,2.7,2.7,0,0,0,.63-2V47c0-1.69-.89-2.53-2.67-2.53Z" fill="#fff"/><path d="M818.44,41.68h3.32L817,64.59H812.5l-4.84-22.91h3.25Q813.4,54.15,814,57.54c.39,2.27.64,3.64.73,4.11q.3-1.38.84-4.68t.75-4.41Z" fill="#fff"/><path d="M824.22,41.68h3.21V64.59h-3.21Z" fill="#fff"/><path d="M839.13,66.57a2.14,2.14,0,0,1,.64,1.72,2.22,2.22,0,0,1-.86,1.84,3.21,3.21,0,0,1-2,.68,8.09,8.09,0,0,1-1.94-.2V69a3.33,3.33,0,0,0,1.35.24c1,0,1.55-.37,1.55-1.11S837.31,67,836.25,67h-.43l.5-2.3c-3.38-.36-5.07-2-5.07-5V46.58a4.56,4.56,0,0,1,1.63-3.74,7.58,7.58,0,0,1,4.9-1.33,15.11,15.11,0,0,1,4,.5v3a13.84,13.84,0,0,0-3.92-.58,4.22,4.22,0,0,0-2.65.61,2.24,2.24,0,0,0-.73,1.82V59.49a2.17,2.17,0,0,0,.75,1.79,4.52,4.52,0,0,0,2.74.61,14.54,14.54,0,0,0,3.92-.54v2.87a13.33,13.33,0,0,1-4,.54l-.27,1.18A2.66,2.66,0,0,1,839.13,66.57Z" fill="#fff"/><path d="M844.74,46.92a5.43,5.43,0,0,1,1.54-4.06,7.59,7.59,0,0,1,9.14,0,5.44,5.44,0,0,1,1.55,4V59.39a5.41,5.41,0,0,1-1.55,4,7.62,7.62,0,0,1-9.13,0,5.41,5.41,0,0,1-1.55-4Zm9,.1c0-1.85-1-2.77-2.94-2.77s-2.94.92-2.94,2.77V59.25c0,1.87,1,2.81,2.94,2.81s2.94-.94,2.94-2.81Z" fill="#fff"/><path d="M859.61,46.54a4.55,4.55,0,0,1,1.57-3.71,6.78,6.78,0,0,1,4.48-1.32,15.18,15.18,0,0,1,4.73.61v3a12.1,12.1,0,0,0-4.43-.71c-2.09,0-3.14.78-3.14,2.33V48.1a3,3,0,0,0,.42,1.7,4.37,4.37,0,0,0,1.5,1.24l3.93,2.2a4.81,4.81,0,0,1,2.73,4.49v1.89a4.5,4.5,0,0,1-1.72,3.8,7.71,7.71,0,0,1-4.85,1.34,14.7,14.7,0,0,1-5-.71V61a13.66,13.66,0,0,0,4.7.81q3.68,0,3.68-2.5V58.17a2.78,2.78,0,0,0-.37-1.57,3.79,3.79,0,0,0-1.39-1.1l-3.81-2.1a5.19,5.19,0,0,1-3-4.83Z" fill="#fff"/><path d="M1071.4,41.68h3.21V61.85h6.7v2.74h-9.91Z" fill="#fff"/><path d="M1083.23,46.92a5.43,5.43,0,0,1,1.54-4.06,7.59,7.59,0,0,1,9.14,0,5.41,5.41,0,0,1,1.56,4V59.39a5.38,5.38,0,0,1-1.56,4,7.6,7.6,0,0,1-9.12,0,5.38,5.38,0,0,1-1.56-4Zm9.06.1c0-1.85-1-2.77-2.94-2.77s-2.94.92-2.94,2.77V59.25c0,1.87,1,2.81,2.94,2.81s2.94-.94,2.94-2.81Z" fill="#fff"/><path d="M1099.39,41.68h3.21V57.8a29.84,29.84,0,0,1-1.15,8.31l-1,3.52h-3.31l1-3.55a29.58,29.58,0,0,0,1.29-8.25Z" fill="#fff"/><path d="M1116.42,64.59l-1.25-6.08h-5.68l-1.25,6.08h-3.11l5-22.91h4.46l4.94,22.91ZM1110,55.77h4.56l-2.29-11.12Z" fill="#fff"/><path d="M1330.72,64.59l-1.12-5.78h-5.2l-1.09,5.78h-3.88l4.8-23.15h5.64l4.77,23.15ZM1325,55.36h3.89l-2-10.27Z" fill="#c07c5a"/><path d="M1336.46,46.78a4.91,4.91,0,0,1,1.84-4,7.78,7.78,0,0,1,5-1.47,16.15,16.15,0,0,1,5,.61v3.85a13.27,13.27,0,0,0-4.47-.74c-2.16,0-3.24.73-3.24,2.2V59.05c0,1.37.9,2.06,2.7,2.06a3.63,3.63,0,0,0,1.9-.44V52.56h4V63.37a12.46,12.46,0,0,1-5.92,1.39,8,8,0,0,1-5-1.37,4.74,4.74,0,0,1-1.74-4Z" fill="#c07c5a"/><path d="M1352.38,41.44h11.12V45h-7.06v6.12h6.11v3.54h-6.11V61h7.06v3.55h-11.12Z" fill="#c07c5a"/><path d="M1376.21,41.44h4V64.59h-4.09q-5-12.68-5.68-14.75t-.78-2.28s.06.46.17,1.25a55.47,55.47,0,0,1,.44,7.6v8.18h-4V41.44h4.16q4.29,10.85,5,12.78c.45,1.28.78,2.27,1,3s.34,1.09.38,1.2c0-.09,0-.52-.16-1.28a58.8,58.8,0,0,1-.44-7.67Z" fill="#c07c5a"/><path d="M1383.88,41.44h7.37a6,6,0,0,1,4.17,1.34,4.9,4.9,0,0,1,1.47,3.83V59.22q0,5.37-5.44,5.37h-7.57Zm8.95,5.31c0-1.29-.7-1.93-2.09-1.93h-2.81V61.08h2.81c1.39,0,2.09-.72,2.09-2.17Z" fill="#c07c5a"/><path d="M1410,64.59l-1.11-5.78h-5.21l-1.08,5.78h-3.89l4.8-23.15h5.65l4.76,23.15Zm-5.68-9.23h3.89l-2-10.27Z" fill="#c07c5a"/><path d="M1420.14,55.87v8.72h-4.05V41.44h6.82a6.16,6.16,0,0,1,4.24,1.34,4.78,4.78,0,0,1,1.51,3.8v4c0,2.62-1,4.26-2.84,4.94l3.65,9.12H1425l-3.21-8.72Zm0-10.95v7.67h2.37a1.78,1.78,0,0,0,2.09-2.09V46.88c0-1.3-.7-2-2.09-2Z" fill="#c07c5a"/><path d="M807.83,226.81A7.12,7.12,0,0,1,810.4,221q2.58-2.1,7.78-2.1a22.84,22.84,0,0,1,6.1.75v5.5a20.89,20.89,0,0,0-5.73-.85,6.33,6.33,0,0,0-3.7.77,2.74,2.74,0,0,0-1,2.28v17.85q0,3,4.35,3.05a21,21,0,0,0,6.2-.8v5.45a23.89,23.89,0,0,1-6.35.75q-10.26,0-10.25-7.9Z" fill="#202020"/><path d="M828.53,225a24.28,24.28,0,0,1,7.55-1q4.7,0,6.85,2.07c1.43,1.39,2.15,3.46,2.15,6.23v21.05h-5.7v-2.1a6.87,6.87,0,0,1-5.48,2.25c-2.35,0-4.07-.59-5.17-1.75s-1.65-2.95-1.65-5.35v-1.7a7.26,7.26,0,0,1,1.45-4.8,9,9,0,0,1,4.7-2.65l6-1.65v-3.35a2.91,2.91,0,0,0-.9-2.25c-.57-.47-1.87-.7-3.9-.7a17.31,17.31,0,0,0-6,1.05ZM833,245v1.45c0,1.7.88,2.55,2.65,2.55a6.11,6.11,0,0,0,3.6-1.1v-7.3l-3.55,1a4,4,0,0,0-2.18,1.15A3.77,3.77,0,0,0,833,245Z" fill="#202020"/><path d="M861.58,216.51h6v36.85h-5.85v-2a7.36,7.36,0,0,1-5.4,2.15,6.42,6.42,0,0,1-5-1.83,7.18,7.18,0,0,1-1.7-5.12v-14a8.37,8.37,0,0,1,2.22-6.18q2.22-2.22,6.48-2.22h3.15Zm0,13.15H859q-3.25,0-3.25,3.15v12.85a2.12,2.12,0,0,0,2.4,2.4,5.57,5.57,0,0,0,3.45-1Z" fill="#202020"/><path d="M873,225a24.28,24.28,0,0,1,7.55-1q4.69,0,6.85,2.07c1.43,1.39,2.15,3.46,2.15,6.23v21.05h-5.7v-2.1a6.87,6.87,0,0,1-5.48,2.25c-2.35,0-4.07-.59-5.17-1.75s-1.65-2.95-1.65-5.35v-1.7a7.26,7.26,0,0,1,1.45-4.8,9,9,0,0,1,4.7-2.65l6.05-1.65v-3.35a2.91,2.91,0,0,0-.9-2.25c-.57-.47-1.87-.7-3.9-.7a17.31,17.31,0,0,0-5.95,1.05Zm4.45,20v1.45c0,1.7.88,2.55,2.65,2.55a6.11,6.11,0,0,0,3.6-1.1v-7.3l-3.55,1a4,4,0,0,0-2.18,1.15A3.77,3.77,0,0,0,877.43,245Z" fill="#202020"/><path d="M893.18,231.66q0-3.85,2.25-5.75t7.35-1.9a19.86,19.86,0,0,1,5.9.8v5.35a15.69,15.69,0,0,0-5.13-.8c-1.88,0-3.1.21-3.65.62a2.38,2.38,0,0,0-.82,2v.7a2.35,2.35,0,0,0,.47,1.57,7.77,7.77,0,0,0,1.88,1.43l4.15,2.45c2.76,1.63,4.15,3.75,4.15,6.35v1.3q0,7.8-10.2,7.8a25.58,25.58,0,0,1-6.3-.7v-5.45a18.36,18.36,0,0,0,5.4.75,8.61,8.61,0,0,0,4-.65,2.13,2.13,0,0,0,1.08-1.95v-.7a2.23,2.23,0,0,0-.58-1.6,11.81,11.81,0,0,0-2.42-1.65l-3.75-2.2a6.94,6.94,0,0,1-3.8-6.35Z" fill="#202020"/><path d="M920,219.11v5.15h5.2v5.1H920v16.55c0,1.56.83,2.35,2.5,2.35a10,10,0,0,0,3-.6V253a13.29,13.29,0,0,1-4.15.7q-7.41,0-7.4-7.25v-17.1h-2.85v-5.1h3.1l1.8-5.15Z" fill="#202020"/><path d="M940.38,224.11h1v5.6H940a9.28,9.28,0,0,0-5,1.5v22.15h-6v-29.1h5.7v2.05c1-.64,1.63-1.05,2-1.25A7.21,7.21,0,0,1,940.38,224.11Z" fill="#202020"/><path d="M944.28,225a24.28,24.28,0,0,1,7.55-1q4.7,0,6.85,2.07c1.43,1.39,2.15,3.46,2.15,6.23v21.05h-5.7v-2.1a6.87,6.87,0,0,1-5.48,2.25c-2.35,0-4.07-.59-5.17-1.75s-1.65-2.95-1.65-5.35v-1.7a7.26,7.26,0,0,1,1.45-4.8,9,9,0,0,1,4.7-2.65l6-1.65v-3.35a2.91,2.91,0,0,0-.9-2.25c-.57-.47-1.87-.7-3.9-.7a17.31,17.31,0,0,0-6,1.05Zm4.45,20v1.45c0,1.7.88,2.55,2.65,2.55a6.11,6.11,0,0,0,3.6-1.1v-7.3l-3.55,1a4,4,0,0,0-2.18,1.15A3.77,3.77,0,0,0,948.73,245Z" fill="#202020"/><path d="M977.38,224.11h1v5.6H977a9.28,9.28,0,0,0-5,1.5v22.15h-6v-29.1h5.7v2.05c1-.64,1.63-1.05,2-1.25A7.21,7.21,0,0,1,977.38,224.11Z" fill="#202020"/><path d="M990.67,219.11h10.1a9,9,0,0,1,6.28,2,7.2,7.2,0,0,1,2.22,5.65v8.35a7.23,7.23,0,0,1-2.22,5.65,9.09,9.09,0,0,1-6.28,2h-4v10.6h-6.05Zm12.6,8.25q0-3-3.14-3h-3.41v13.2h3.41q3.14,0,3.14-3.05Z" fill="#202020"/><path d="M1013.07,245.41v-13.7a7.7,7.7,0,0,1,2.23-5.83q2.22-2.12,6.72-2.12t6.63,2.12a7.87,7.87,0,0,1,2.12,5.83v9.6h-11.85V245a3.07,3.07,0,0,0,1.05,2.6c.7.53,2,.8,4,.8a20.65,20.65,0,0,0,6-1v5.35a24.62,24.62,0,0,1-6.89.9Q1013.07,253.66,1013.07,245.41Zm5.85-8.8h6.25v-4.85q0-3-3.12-2.95c-2.08,0-3.13,1-3.13,2.95Z" fill="#202020"/><path d="M1033.77,231.66q0-3.85,2.25-5.75t7.35-1.9a19.82,19.82,0,0,1,5.9.8v5.35a15.58,15.58,0,0,0-5.12-.8c-1.88,0-3.1.21-3.65.62a2.39,2.39,0,0,0-.83,2v.7a2.36,2.36,0,0,0,.48,1.57,7.87,7.87,0,0,0,1.87,1.43l4.15,2.45q4.15,2.44,4.15,6.35v1.3q0,7.8-10.2,7.8a25.58,25.58,0,0,1-6.3-.7v-5.45a18.45,18.45,0,0,0,5.4.75,8.63,8.63,0,0,0,4-.65,2.12,2.12,0,0,0,1.07-1.95v-.7a2.22,2.22,0,0,0-.57-1.6,11.67,11.67,0,0,0-2.43-1.65l-3.75-2.2a7,7,0,0,1-3.8-6.35Z" fill="#202020"/><path d="M1052.67,231.66q0-3.85,2.25-5.75t7.35-1.9a19.82,19.82,0,0,1,5.9.8v5.35a15.58,15.58,0,0,0-5.12-.8c-1.88,0-3.1.21-3.65.62a2.39,2.39,0,0,0-.83,2v.7a2.36,2.36,0,0,0,.48,1.57,7.87,7.87,0,0,0,1.87,1.43l4.15,2.45q4.15,2.44,4.15,6.35v1.3q0,7.8-10.2,7.8a25.58,25.58,0,0,1-6.3-.7v-5.45a18.45,18.45,0,0,0,5.4.75,8.63,8.63,0,0,0,4-.65,2.12,2.12,0,0,0,1.07-1.95v-.7a2.22,2.22,0,0,0-.57-1.6,11.67,11.67,0,0,0-2.43-1.65l-3.75-2.2a7,7,0,0,1-3.8-6.35Z" fill="#202020"/><path d="M1072.57,231.71a7.66,7.66,0,0,1,2.23-5.83q2.22-2.12,6.75-2.12t6.75,2.12a7.69,7.69,0,0,1,2.22,5.83v14.2a7.66,7.66,0,0,1-2.22,5.82q-2.23,2.13-6.75,2.13t-6.75-2.13a7.62,7.62,0,0,1-2.23-5.82Zm12,.15c0-2-1-3-3-3s-3,1-3,3v13.9c0,2,1,3,3,3s3-1,3-3Z" fill="#202020"/><path d="M1095.37,225a24.32,24.32,0,0,1,7.55-1q4.71,0,6.85,2.07c1.44,1.39,2.15,3.46,2.15,6.23v21.05h-5.7v-2.1a6.85,6.85,0,0,1-5.47,2.25c-2.35,0-4.08-.59-5.18-1.75s-1.65-2.95-1.65-5.35v-1.7a7.31,7.31,0,0,1,1.45-4.8,9.09,9.09,0,0,1,4.7-2.65l6-1.65v-3.35a2.84,2.84,0,0,0-.9-2.25c-.56-.47-1.86-.7-3.9-.7a17.39,17.39,0,0,0-6,1.05Zm4.45,20v1.45c0,1.7.89,2.55,2.65,2.55a6.07,6.07,0,0,0,3.6-1.1v-7.3l-3.55,1a4,4,0,0,0-2.17,1.15A3.76,3.76,0,0,0,1099.82,245Z" fill="#202020"/><path d="M668.79,312.46h-2.85l-11.48-17.41v17.41H651.6v-21.9h2.86l11.48,17.38V290.56h2.85Z" fill="#202020"/><path d="M676.77,311.64a7.81,7.81,0,0,1-3.07-3.12,9.59,9.59,0,0,1-1.11-4.69,9.35,9.35,0,0,1,1.14-4.66,8,8,0,0,1,3.12-3.1,9.61,9.61,0,0,1,8.85,0,8,8,0,0,1,3.12,3.09,10.06,10.06,0,0,1,0,9.36,8.17,8.17,0,0,1-3.19,3.12,9.14,9.14,0,0,1-4.45,1.1A8.85,8.85,0,0,1,676.77,311.64Zm7.27-2.13a5.46,5.46,0,0,0,2.17-2.17,6.86,6.86,0,0,0,.84-3.51,7.06,7.06,0,0,0-.82-3.51,5.31,5.31,0,0,0-2.13-2.15,6.14,6.14,0,0,0-5.73,0,5.2,5.2,0,0,0-2.08,2.15,7.28,7.28,0,0,0-.79,3.51,7.54,7.54,0,0,0,.77,3.55,5.08,5.08,0,0,0,2.06,2.14,5.65,5.65,0,0,0,2.82.71A6.07,6.07,0,0,0,684,309.51Z" fill="#202020"/><path d="M718,295.79a6,6,0,0,1,2.48,2.49,8.42,8.42,0,0,1,.91,4.05v10.13h-2.82v-9.73a5.59,5.59,0,0,0-1.27-3.93,4.49,4.49,0,0,0-3.44-1.37,4.6,4.6,0,0,0-3.54,1.43A5.87,5.87,0,0,0,709,303v9.47h-2.82v-9.73a5.59,5.59,0,0,0-1.27-3.93,4.49,4.49,0,0,0-3.44-1.37,4.6,4.6,0,0,0-3.54,1.43,5.87,5.87,0,0,0-1.32,4.13v9.47h-2.85V295.27h2.85v2.48a5.66,5.66,0,0,1,2.27-2.07A7,7,0,0,1,702,295a7.41,7.41,0,0,1,3.82,1,5.93,5.93,0,0,1,2.48,2.85A5.65,5.65,0,0,1,710.7,296a7,7,0,0,1,3.7-1A7.43,7.43,0,0,1,718,295.79Z" fill="#202020"/><path d="M741.62,304.93H727.88a5.61,5.61,0,0,0,1.74,4,5.55,5.55,0,0,0,3.84,1.42,5.22,5.22,0,0,0,3.09-.86,4.49,4.49,0,0,0,1.74-2.3h3.08a7.41,7.41,0,0,1-2.76,4,8.38,8.38,0,0,1-5.15,1.55,8.7,8.7,0,0,1-4.37-1.1,7.72,7.72,0,0,1-3-3.12,9.7,9.7,0,0,1-1.1-4.69,9.81,9.81,0,0,1,1.07-4.67,7.45,7.45,0,0,1,3-3.09,8.89,8.89,0,0,1,4.43-1.08,8.6,8.6,0,0,1,4.33,1.06A7.35,7.35,0,0,1,740.7,299a8.73,8.73,0,0,1,1,4.21C741.71,303.75,741.68,304.32,741.62,304.93ZM738,299.8a4.71,4.71,0,0,0-2-1.79,6.19,6.19,0,0,0-2.74-.61,5.32,5.32,0,0,0-3.69,1.38,5.67,5.67,0,0,0-1.74,3.83h10.86A5.21,5.21,0,0,0,738,299.8Z" fill="#202020"/><path d="M688.1,354.35h-2.19L677.09,341v13.39h-2.2V337.52h2.2l8.82,13.36V337.52h2.19Z" fill="#202020"/><path d="M694.24,353.72a6,6,0,0,1-2.36-2.4,7.37,7.37,0,0,1-.86-3.6,7.19,7.19,0,0,1,.88-3.58,6.06,6.06,0,0,1,2.4-2.39,7.38,7.38,0,0,1,6.8,0,6.08,6.08,0,0,1,2.4,2.37,7.73,7.73,0,0,1,0,7.2,6.28,6.28,0,0,1-2.45,2.4,7.05,7.05,0,0,1-3.43.84A6.81,6.81,0,0,1,694.24,353.72Zm5.58-1.64a4.25,4.25,0,0,0,1.68-1.66,6.06,6.06,0,0,0,0-5.4,4.16,4.16,0,0,0-1.64-1.66,4.75,4.75,0,0,0-4.4,0,4,4,0,0,0-1.6,1.66,5.47,5.47,0,0,0-.61,2.7,5.67,5.67,0,0,0,.6,2.72,3.92,3.92,0,0,0,1.57,1.65,4.48,4.48,0,0,0,2.17.54A4.62,4.62,0,0,0,699.82,352.08Z" fill="#202020"/><path d="M725.91,341.53a4.71,4.71,0,0,1,1.91,1.92,6.47,6.47,0,0,1,.69,3.11v7.79h-2.17v-7.48a4.25,4.25,0,0,0-1-3,3.43,3.43,0,0,0-2.64-1.05,3.55,3.55,0,0,0-2.73,1.09,4.56,4.56,0,0,0-1,3.18v7.28h-2.17v-7.48a4.21,4.21,0,0,0-1-3,3.43,3.43,0,0,0-2.64-1.05,3.51,3.51,0,0,0-2.72,1.09,4.52,4.52,0,0,0-1,3.18v7.28h-2.2V341.13h2.2V343a4.3,4.3,0,0,1,1.74-1.59,5.33,5.33,0,0,1,2.43-.56,5.69,5.69,0,0,1,2.94.75,4.54,4.54,0,0,1,1.9,2.19,4.34,4.34,0,0,1,1.84-2.17,5.43,5.43,0,0,1,2.84-.77A5.84,5.84,0,0,1,725.91,341.53Z" fill="#202020"/><path d="M744.09,348.56H733.53a4.16,4.16,0,0,0,4.29,4.15,4,4,0,0,0,2.38-.67,3.54,3.54,0,0,0,1.34-1.77h2.36a5.73,5.73,0,0,1-2.12,3.1,6.38,6.38,0,0,1-4,1.19,6.7,6.7,0,0,1-3.36-.84,5.92,5.92,0,0,1-2.33-2.4,8.22,8.22,0,0,1,0-7.2,5.65,5.65,0,0,1,2.3-2.37,6.81,6.81,0,0,1,3.41-.83,6.6,6.6,0,0,1,3.33.82,5.61,5.61,0,0,1,2.23,2.25,6.69,6.69,0,0,1,.78,3.24A12.5,12.5,0,0,1,744.09,348.56Zm-2.75-3.94a3.59,3.59,0,0,0-1.51-1.38,4.69,4.69,0,0,0-2.1-.47,4.12,4.12,0,0,0-2.84,1.06,4.37,4.37,0,0,0-1.34,2.95h8.35A4,4,0,0,0,741.34,344.62Z" fill="#202020"/><rect x="648.63" y="323.48" width="624.94" height="47.05" rx="6" fill="none" stroke="#202020" stroke-miterlimit="10"/><path d="M651.43,411.19a10.49,10.49,0,0,1,3.93-4,10.9,10.9,0,0,1,5.54-1.44,11.24,11.24,0,0,1,6.24,1.72,9.88,9.88,0,0,1,3.89,4.9h-3.42a6.89,6.89,0,0,0-2.62-3.05,7.57,7.57,0,0,0-4.09-1.06,8,8,0,0,0-4.11,1.06,7.45,7.45,0,0,0-2.85,3,10.6,10.6,0,0,0,0,9.16,7.42,7.42,0,0,0,2.85,3,7.88,7.88,0,0,0,4.11,1.07,7.66,7.66,0,0,0,4.09-1.05,6.78,6.78,0,0,0,2.62-3H671a9.8,9.8,0,0,1-3.89,4.85,11.32,11.32,0,0,1-6.24,1.71,11,11,0,0,1-5.54-1.43,10.34,10.34,0,0,1-3.93-4,12.11,12.11,0,0,1,0-11.49Z" fill="#202020"/><path d="M688,417q-1.86,1.8-5.69,1.8h-4.2v9.13h-2.86V406h7.06a8,8,0,0,1,5.63,1.79A6.45,6.45,0,0,1,688,417Zm-2.18-1.58a3.79,3.79,0,0,0,1.13-2.95q0-4.05-4.64-4.05h-4.2v8h4.2A5.06,5.06,0,0,0,685.83,415.38Z" fill="#202020"/><path d="M705.78,406v2.32h-9.5v7.37H704V418h-7.71v9.85h-2.86V406Z" fill="#202020"/><path d="M675.33,454.41q1.35-2.32,4.72-2.33c2.24,0,3.8.78,4.7,2.33a13,13,0,0,1,1.35,6.47,13.2,13.2,0,0,1-1.35,6.56c-.9,1.56-2.46,2.34-4.7,2.34s-3.82-.78-4.72-2.34a13.1,13.1,0,0,1-1.35-6.56A12.85,12.85,0,0,1,675.33,454.41Zm8.33,2.92a4.52,4.52,0,0,0-1.14-2.35,3.87,3.87,0,0,0-5,0,4.52,4.52,0,0,0-1.14,2.35,19.81,19.81,0,0,0-.27,3.55,20.58,20.58,0,0,0,.27,3.64,4.63,4.63,0,0,0,1.14,2.37,3.9,3.9,0,0,0,5,0,4.63,4.63,0,0,0,1.14-2.37,20.58,20.58,0,0,0,.27-3.64A19.81,19.81,0,0,0,683.66,457.33Z" fill="#202020"/><path d="M690.47,454.41q1.35-2.32,4.72-2.33c2.24,0,3.8.78,4.7,2.33a13,13,0,0,1,1.36,6.47,13.19,13.19,0,0,1-1.36,6.56c-.9,1.56-2.46,2.34-4.7,2.34s-3.82-.78-4.72-2.34a13.2,13.2,0,0,1-1.35-6.56A13,13,0,0,1,690.47,454.41Zm8.33,2.92a4.45,4.45,0,0,0-1.14-2.35,3.87,3.87,0,0,0-5,0,4.52,4.52,0,0,0-1.14,2.35,19.81,19.81,0,0,0-.27,3.55,20.58,20.58,0,0,0,.27,3.64,4.63,4.63,0,0,0,1.14,2.37,3.9,3.9,0,0,0,5,0,4.55,4.55,0,0,0,1.14-2.37,20.48,20.48,0,0,0,.28-3.64A19.71,19.71,0,0,0,698.8,457.33Z" fill="#202020"/><path d="M705.61,454.41q1.35-2.32,4.72-2.33t4.71,2.33a13,13,0,0,1,1.35,6.47,13.2,13.2,0,0,1-1.35,6.56q-1.35,2.34-4.71,2.34t-4.72-2.34a13.2,13.2,0,0,1-1.35-6.56A13,13,0,0,1,705.61,454.41Zm8.33,2.92a4.51,4.51,0,0,0-1.13-2.35,3.88,3.88,0,0,0-5,0,4.44,4.44,0,0,0-1.13,2.35,18.83,18.83,0,0,0-.28,3.55,19.57,19.57,0,0,0,.28,3.64,4.54,4.54,0,0,0,1.13,2.37,3.91,3.91,0,0,0,5,0,4.62,4.62,0,0,0,1.13-2.37,20.48,20.48,0,0,0,.28-3.64A19.71,19.71,0,0,0,713.94,457.33Z" fill="#202020"/><path d="M719.4,469.49a1.49,1.49,0,0,1,1.06-2.55,1.4,1.4,0,0,1,1,.43,1.55,1.55,0,0,1,0,2.12,1.4,1.4,0,0,1-1,.43A1.43,1.43,0,0,1,719.4,469.49Z" fill="#202020"/><path d="M725.81,454.41q1.35-2.32,4.73-2.33t4.7,2.33a13,13,0,0,1,1.35,6.47,13.2,13.2,0,0,1-1.35,6.56q-1.35,2.34-4.7,2.34t-4.73-2.34a13.2,13.2,0,0,1-1.35-6.56A13,13,0,0,1,725.81,454.41Zm8.33,2.92A4.44,4.44,0,0,0,733,455a3.24,3.24,0,0,0-2.47-.9,3.3,3.3,0,0,0-2.5.9,4.51,4.51,0,0,0-1.13,2.35,19.71,19.71,0,0,0-.28,3.55,20.48,20.48,0,0,0,.28,3.64,4.62,4.62,0,0,0,1.13,2.37,3.33,3.33,0,0,0,2.5.89,3.27,3.27,0,0,0,2.47-.89,4.54,4.54,0,0,0,1.13-2.37,19.57,19.57,0,0,0,.28-3.64A18.83,18.83,0,0,0,734.14,457.33Z" fill="#202020"/><path d="M741,454.41q1.35-2.32,4.72-2.33c2.24,0,3.8.78,4.7,2.33a13,13,0,0,1,1.35,6.47,13.2,13.2,0,0,1-1.35,6.56c-.9,1.56-2.46,2.34-4.7,2.34s-3.82-.78-4.72-2.34a13.1,13.1,0,0,1-1.35-6.56A12.85,12.85,0,0,1,741,454.41Zm8.33,2.92a4.52,4.52,0,0,0-1.14-2.35,3.87,3.87,0,0,0-5,0,4.52,4.52,0,0,0-1.14,2.35,19.81,19.81,0,0,0-.27,3.55,20.58,20.58,0,0,0,.27,3.64,4.63,4.63,0,0,0,1.14,2.37,3.9,3.9,0,0,0,5,0,4.63,4.63,0,0,0,1.14-2.37,20.58,20.58,0,0,0,.27-3.64A19.81,19.81,0,0,0,749.29,457.33Z" fill="#202020"/><path d="M756.1,454.41q1.35-2.32,4.72-2.33c2.24,0,3.8.78,4.7,2.33a13,13,0,0,1,1.36,6.47,13.19,13.19,0,0,1-1.36,6.56c-.9,1.56-2.46,2.34-4.7,2.34s-3.82-.78-4.72-2.34a13.2,13.2,0,0,1-1.35-6.56A13,13,0,0,1,756.1,454.41Zm8.33,2.92a4.45,4.45,0,0,0-1.14-2.35,3.87,3.87,0,0,0-5,0,4.52,4.52,0,0,0-1.14,2.35,19.81,19.81,0,0,0-.27,3.55,20.58,20.58,0,0,0,.27,3.64,4.63,4.63,0,0,0,1.14,2.37,3.9,3.9,0,0,0,5,0,4.55,4.55,0,0,0,1.14-2.37,20.48,20.48,0,0,0,.28-3.64A19.71,19.71,0,0,0,764.43,457.33Z" fill="#202020"/><path d="M769.89,469.49a1.49,1.49,0,0,1,1.06-2.55,1.36,1.36,0,0,1,1,.43,1.52,1.52,0,0,1,0,2.12,1.36,1.36,0,0,1-1,.43A1.43,1.43,0,0,1,769.89,469.49Z" fill="#202020"/><path d="M776.3,454.41q1.35-2.32,4.73-2.33t4.7,2.33a13,13,0,0,1,1.35,6.47,13.2,13.2,0,0,1-1.35,6.56q-1.35,2.34-4.7,2.34t-4.73-2.34a13.2,13.2,0,0,1-1.35-6.56A13,13,0,0,1,776.3,454.41Zm8.33,2.92A4.44,4.44,0,0,0,783.5,455a3.88,3.88,0,0,0-5,0,4.44,4.44,0,0,0-1.13,2.35,18.83,18.83,0,0,0-.28,3.55,19.57,19.57,0,0,0,.28,3.64,4.54,4.54,0,0,0,1.13,2.37,3.91,3.91,0,0,0,5,0,4.54,4.54,0,0,0,1.13-2.37,19.57,19.57,0,0,0,.28-3.64A18.83,18.83,0,0,0,784.63,457.33Z" fill="#202020"/><path d="M791.44,454.41q1.35-2.32,4.73-2.33t4.7,2.33a13,13,0,0,1,1.35,6.47,13.2,13.2,0,0,1-1.35,6.56q-1.35,2.34-4.7,2.34t-4.73-2.34a13.2,13.2,0,0,1-1.35-6.56A13,13,0,0,1,791.44,454.41Zm8.34,2.92a4.52,4.52,0,0,0-1.14-2.35,3.24,3.24,0,0,0-2.47-.9,3.31,3.31,0,0,0-2.5.9,4.51,4.51,0,0,0-1.13,2.35,19.71,19.71,0,0,0-.28,3.55,20.48,20.48,0,0,0,.28,3.64,4.62,4.62,0,0,0,1.13,2.37,3.35,3.35,0,0,0,2.5.89,3.27,3.27,0,0,0,2.47-.89,4.63,4.63,0,0,0,1.14-2.37,20.58,20.58,0,0,0,.27-3.64A19.81,19.81,0,0,0,799.78,457.33Z" fill="#202020"/><path d="M806.59,454.41q1.35-2.32,4.72-2.33c2.24,0,3.8.78,4.7,2.33a13,13,0,0,1,1.35,6.47,13.2,13.2,0,0,1-1.35,6.56c-.9,1.56-2.46,2.34-4.7,2.34s-3.82-.78-4.72-2.34a13.2,13.2,0,0,1-1.35-6.56A13,13,0,0,1,806.59,454.41Zm8.33,2.92a4.52,4.52,0,0,0-1.14-2.35,3.87,3.87,0,0,0-5,0,4.52,4.52,0,0,0-1.14,2.35,19.81,19.81,0,0,0-.27,3.55,20.58,20.58,0,0,0,.27,3.64,4.63,4.63,0,0,0,1.14,2.37,3.9,3.9,0,0,0,5,0,4.63,4.63,0,0,0,1.14-2.37,20.58,20.58,0,0,0,.27-3.64A19.81,19.81,0,0,0,814.92,457.33Z" fill="#202020"/><path d="M829.9,460v1.85h-9.62V460Z" fill="#202020"/><path d="M835,454.41q1.35-2.32,4.73-2.33t4.7,2.33a13,13,0,0,1,1.35,6.47,13.2,13.2,0,0,1-1.35,6.56q-1.35,2.34-4.7,2.34T835,467.44a13.2,13.2,0,0,1-1.35-6.56A13,13,0,0,1,835,454.41Zm8.33,2.92a4.44,4.44,0,0,0-1.13-2.35,3.24,3.24,0,0,0-2.47-.9,3.3,3.3,0,0,0-2.5.9,4.44,4.44,0,0,0-1.13,2.35,18.83,18.83,0,0,0-.28,3.55,19.57,19.57,0,0,0,.28,3.64,4.54,4.54,0,0,0,1.13,2.37,3.33,3.33,0,0,0,2.5.89,3.27,3.27,0,0,0,2.47-.89,4.54,4.54,0,0,0,1.13-2.37,19.57,19.57,0,0,0,.28-3.64A18.83,18.83,0,0,0,843.34,457.33Z" fill="#202020"/><path d="M850.15,454.41q1.35-2.32,4.73-2.33t4.7,2.33a13,13,0,0,1,1.35,6.47,13.2,13.2,0,0,1-1.35,6.56q-1.35,2.34-4.7,2.34t-4.73-2.34a13.2,13.2,0,0,1-1.35-6.56A13,13,0,0,1,850.15,454.41Zm8.34,2.92a4.52,4.52,0,0,0-1.14-2.35,3.24,3.24,0,0,0-2.47-.9,3.31,3.31,0,0,0-2.5.9,4.51,4.51,0,0,0-1.13,2.35,19.71,19.71,0,0,0-.28,3.55,20.48,20.48,0,0,0,.28,3.64,4.62,4.62,0,0,0,1.13,2.37,3.35,3.35,0,0,0,2.5.89,3.27,3.27,0,0,0,2.47-.89,4.63,4.63,0,0,0,1.14-2.37,20.58,20.58,0,0,0,.27-3.64A19.81,19.81,0,0,0,858.49,457.33Z" fill="#202020"/><rect x="648.07" y="438.92" width="624.94" height="47.05" rx="6" fill="none" stroke="#202020" stroke-miterlimit="10"/><path d="M664.51,509.14v2.33h-6V531h-2.86V511.47h-6v-2.33Z" fill="#202020"/><path d="M683.61,523.48H669.87a5.39,5.39,0,0,0,5.58,5.39,5.26,5.26,0,0,0,3.09-.86,4.49,4.49,0,0,0,1.74-2.3h3.08a7.48,7.48,0,0,1-2.77,4,8.35,8.35,0,0,1-5.14,1.55,8.67,8.67,0,0,1-4.37-1.1,7.72,7.72,0,0,1-3-3.12,9.7,9.7,0,0,1-1.1-4.69,9.81,9.81,0,0,1,1.07-4.67,7.49,7.49,0,0,1,3-3.09,9,9,0,0,1,4.44-1.08,8.63,8.63,0,0,1,4.33,1.06,7.39,7.39,0,0,1,2.9,2.94,8.63,8.63,0,0,1,1,4.21C683.7,522.3,683.67,522.87,683.61,523.48ZM680,518.35a4.71,4.71,0,0,0-2-1.79,6.22,6.22,0,0,0-2.74-.61,5.28,5.28,0,0,0-3.69,1.38,5.62,5.62,0,0,0-1.74,3.83h10.85A5.27,5.27,0,0,0,680,518.35Z" fill="#202020"/><path d="M690.32,507.8V531h-2.86V507.8Z" fill="#202020"/><path d="M710.77,523.48H697a5.39,5.39,0,0,0,5.58,5.39,5.22,5.22,0,0,0,3.09-.86,4.49,4.49,0,0,0,1.74-2.3h3.08a7.41,7.41,0,0,1-2.76,4,8.38,8.38,0,0,1-5.15,1.55,8.67,8.67,0,0,1-4.37-1.1,7.72,7.72,0,0,1-3-3.12,9.7,9.7,0,0,1-1.1-4.69,9.81,9.81,0,0,1,1.07-4.67,7.49,7.49,0,0,1,3-3.09,9,9,0,0,1,4.44-1.08,8.63,8.63,0,0,1,4.33,1.06,7.32,7.32,0,0,1,2.9,2.94,8.63,8.63,0,0,1,1,4.21C710.86,522.3,710.83,522.87,710.77,523.48Zm-3.58-5.13a4.71,4.71,0,0,0-2-1.79,6.22,6.22,0,0,0-2.74-.61,5.3,5.3,0,0,0-3.69,1.38,5.67,5.67,0,0,0-1.74,3.83h10.85A5.27,5.27,0,0,0,707.19,518.35Z" fill="#202020"/><path d="M721.62,516.17H718V531h-2.85V516.17h-2.23v-2.35h2.23v-1.23a5.36,5.36,0,0,1,1.49-4.21c1-.89,2.59-1.34,4.78-1.34v2.39a3.8,3.8,0,0,0-2.65.73,3.29,3.29,0,0,0-.77,2.43v1.23h3.61Z" fill="#202020"/><path d="M728.06,530.19a7.81,7.81,0,0,1-3.07-3.12,9.59,9.59,0,0,1-1.11-4.69,9.33,9.33,0,0,1,1.14-4.66,7.82,7.82,0,0,1,3.12-3.1,9.61,9.61,0,0,1,8.85,0,8,8,0,0,1,3.12,3.09,10.06,10.06,0,0,1,0,9.36,8.17,8.17,0,0,1-3.19,3.12,9.14,9.14,0,0,1-4.45,1.1A8.85,8.85,0,0,1,728.06,530.19Zm7.26-2.13a5.42,5.42,0,0,0,2.18-2.17,6.86,6.86,0,0,0,.84-3.51,7.06,7.06,0,0,0-.82-3.51,5.31,5.31,0,0,0-2.13-2.15,6.14,6.14,0,0,0-5.73,0,5.14,5.14,0,0,0-2.08,2.15,7.17,7.17,0,0,0-.79,3.51,7.47,7.47,0,0,0,.77,3.54,5,5,0,0,0,2.06,2.15,5.73,5.73,0,0,0,2.82.71A6,6,0,0,0,735.32,528.06Z" fill="#202020"/><path d="M758.47,515.4a7.31,7.31,0,0,1,1.95,5.48V531h-2.83v-9.73a5.55,5.55,0,0,0-1.28-3.93,4.61,4.61,0,0,0-3.52-1.37,4.71,4.71,0,0,0-3.59,1.41,5.76,5.76,0,0,0-1.33,4.11V531H745V513.82h2.85v2.44a5.7,5.7,0,0,1,2.31-2,7.14,7.14,0,0,1,3.21-.73A7,7,0,0,1,758.47,515.4Z" fill="#202020"/><path d="M780.68,523.48H766.94a5.39,5.39,0,0,0,5.58,5.39,5.22,5.22,0,0,0,3.09-.86,4.49,4.49,0,0,0,1.74-2.3h3.08a7.41,7.41,0,0,1-2.76,4,8.38,8.38,0,0,1-5.15,1.55,8.67,8.67,0,0,1-4.37-1.1,7.72,7.72,0,0,1-3-3.12,9.7,9.7,0,0,1-1.1-4.69,9.81,9.81,0,0,1,1.07-4.67,7.49,7.49,0,0,1,3-3.09,9,9,0,0,1,4.44-1.08,8.63,8.63,0,0,1,4.33,1.06,7.32,7.32,0,0,1,2.9,2.94,8.63,8.63,0,0,1,1,4.21C780.77,522.3,780.74,522.87,780.68,523.48Zm-3.58-5.13a4.71,4.71,0,0,0-2-1.79,6.19,6.19,0,0,0-2.74-.61,5.32,5.32,0,0,0-3.69,1.38,5.67,5.67,0,0,0-1.74,3.83h10.85A5.27,5.27,0,0,0,777.1,518.35Z" fill="#202020"/><path d="M676.37,576.62a22.67,22.67,0,0,1,.08-15.3,15.23,15.23,0,0,1,3.89-6h2.29v.22a16.19,16.19,0,0,0-4.06,6.09,20.43,20.43,0,0,0-1.36,7.39,20,20,0,0,0,1.29,7.14,17.14,17.14,0,0,0,3.77,5.95v.22H680A15.4,15.4,0,0,1,676.37,576.62Z" fill="#202020"/><path d="M686.27,562.52q1.35-2.32,4.73-2.32t4.7,2.32a13,13,0,0,1,1.35,6.48,13.23,13.23,0,0,1-1.35,6.56c-.9,1.56-2.47,2.33-4.7,2.33s-3.83-.77-4.73-2.33a13.23,13.23,0,0,1-1.35-6.56A13,13,0,0,1,686.27,562.52Zm8.33,2.92a4.48,4.48,0,0,0-1.13-2.35,3.91,3.91,0,0,0-5,0,4.48,4.48,0,0,0-1.13,2.35,19,19,0,0,0-.28,3.56,19.65,19.65,0,0,0,.28,3.64A4.47,4.47,0,0,0,688.5,575a3.91,3.91,0,0,0,5,0,4.47,4.47,0,0,0,1.13-2.36,19.65,19.65,0,0,0,.28-3.64A19,19,0,0,0,694.6,565.44Z" fill="#202020"/><path d="M701.41,562.52q1.35-2.32,4.73-2.32t4.7,2.32a13,13,0,0,1,1.35,6.48,13.23,13.23,0,0,1-1.35,6.56c-.9,1.56-2.47,2.33-4.7,2.33s-3.83-.77-4.73-2.33a13.23,13.23,0,0,1-1.35-6.56A13,13,0,0,1,701.41,562.52Zm8.33,2.92a4.48,4.48,0,0,0-1.13-2.35,3.27,3.27,0,0,0-2.47-.89,3.33,3.33,0,0,0-2.5.89,4.55,4.55,0,0,0-1.13,2.35,19.83,19.83,0,0,0-.28,3.56,20.56,20.56,0,0,0,.28,3.64,4.55,4.55,0,0,0,1.13,2.36,3.29,3.29,0,0,0,2.5.89,3.24,3.24,0,0,0,2.47-.89,4.47,4.47,0,0,0,1.13-2.36A19.65,19.65,0,0,0,710,569,19,19,0,0,0,709.74,565.44Z" fill="#202020"/><path d="M714.87,582.38v-.22a17.28,17.28,0,0,0,3.77-5.95,20,20,0,0,0,1.29-7.14,20.43,20.43,0,0,0-1.36-7.39,16.19,16.19,0,0,0-4.06-6.09v-.22h2.29a15.45,15.45,0,0,1,3.89,6,22.75,22.75,0,0,1,.07,15.3,15.38,15.38,0,0,1-3.6,5.76Z" fill="#202020"/><path d="M733.94,562.52q1.35-2.32,4.73-2.32t4.7,2.32a13,13,0,0,1,1.35,6.48,13.23,13.23,0,0,1-1.35,6.56c-.9,1.56-2.47,2.33-4.7,2.33s-3.83-.77-4.73-2.33a13.23,13.23,0,0,1-1.35-6.56A13,13,0,0,1,733.94,562.52Zm8.33,2.92a4.55,4.55,0,0,0-1.13-2.35,3.91,3.91,0,0,0-5,0,4.48,4.48,0,0,0-1.13,2.35,19,19,0,0,0-.28,3.56,19.65,19.65,0,0,0,.28,3.64,4.47,4.47,0,0,0,1.13,2.36,3.91,3.91,0,0,0,5,0,4.55,4.55,0,0,0,1.13-2.36,19.65,19.65,0,0,0,.28-3.64A19,19,0,0,0,742.27,565.44Z" fill="#202020"/><path d="M749.08,562.52q1.35-2.32,4.73-2.32t4.7,2.32a13,13,0,0,1,1.35,6.48,13.23,13.23,0,0,1-1.35,6.56c-.9,1.56-2.47,2.33-4.7,2.33s-3.83-.77-4.73-2.33a13.23,13.23,0,0,1-1.35-6.56A13,13,0,0,1,749.08,562.52Zm8.33,2.92a4.48,4.48,0,0,0-1.13-2.35,3.91,3.91,0,0,0-5,0,4.48,4.48,0,0,0-1.13,2.35,19,19,0,0,0-.28,3.56,19.65,19.65,0,0,0,.28,3.64,4.47,4.47,0,0,0,1.13,2.36,3.91,3.91,0,0,0,5,0,4.47,4.47,0,0,0,1.13-2.36,19.65,19.65,0,0,0,.28-3.64A19,19,0,0,0,757.41,565.44Z" fill="#202020"/><path d="M764.22,562.52q1.35-2.32,4.73-2.32t4.7,2.32A13,13,0,0,1,775,569a13.23,13.23,0,0,1-1.35,6.56c-.9,1.56-2.47,2.33-4.7,2.33s-3.83-.77-4.73-2.33a13.23,13.23,0,0,1-1.35-6.56A13,13,0,0,1,764.22,562.52Zm8.33,2.92a4.48,4.48,0,0,0-1.13-2.35,3.27,3.27,0,0,0-2.47-.89,3.33,3.33,0,0,0-2.5.89,4.48,4.48,0,0,0-1.13,2.35A19,19,0,0,0,765,569a19.65,19.65,0,0,0,.28,3.64,4.47,4.47,0,0,0,1.13,2.36,3.29,3.29,0,0,0,2.5.89,3.24,3.24,0,0,0,2.47-.89,4.47,4.47,0,0,0,1.13-2.36,19.65,19.65,0,0,0,.28-3.64A19,19,0,0,0,772.55,565.44Z" fill="#202020"/><path d="M779.36,562.52q1.35-2.32,4.73-2.32t4.7,2.32a13,13,0,0,1,1.35,6.48,13.23,13.23,0,0,1-1.35,6.56c-.9,1.56-2.47,2.33-4.7,2.33s-3.83-.77-4.73-2.33A13.23,13.23,0,0,1,778,569,13,13,0,0,1,779.36,562.52Zm8.34,2.92a4.56,4.56,0,0,0-1.14-2.35,3.27,3.27,0,0,0-2.47-.89,3.35,3.35,0,0,0-2.5.89,4.55,4.55,0,0,0-1.13,2.35,19.83,19.83,0,0,0-.28,3.56,20.56,20.56,0,0,0,.28,3.64,4.55,4.55,0,0,0,1.13,2.36,3.31,3.31,0,0,0,2.5.89,3.24,3.24,0,0,0,2.47-.89,4.56,4.56,0,0,0,1.14-2.36A20.66,20.66,0,0,0,788,569,19.93,19.93,0,0,0,787.7,565.44Z" fill="#202020"/><path d="M802.68,568.13V570h-9.62v-1.86Z" fill="#202020"/><path d="M807.79,562.52q1.35-2.32,4.73-2.32t4.7,2.32a13,13,0,0,1,1.35,6.48,13.23,13.23,0,0,1-1.35,6.56c-.9,1.56-2.47,2.33-4.7,2.33s-3.83-.77-4.73-2.33a13.23,13.23,0,0,1-1.35-6.56A13,13,0,0,1,807.79,562.52Zm8.33,2.92a4.48,4.48,0,0,0-1.13-2.35,3.91,3.91,0,0,0-5,0,4.48,4.48,0,0,0-1.13,2.35,19,19,0,0,0-.28,3.56,19.65,19.65,0,0,0,.28,3.64A4.47,4.47,0,0,0,810,575a3.91,3.91,0,0,0,5,0,4.47,4.47,0,0,0,1.13-2.36,19.65,19.65,0,0,0,.28-3.64A19,19,0,0,0,816.12,565.44Z" fill="#202020"/><path d="M822.93,562.52q1.35-2.32,4.73-2.32t4.7,2.32a13,13,0,0,1,1.35,6.48,13.23,13.23,0,0,1-1.35,6.56c-.9,1.56-2.47,2.33-4.7,2.33s-3.83-.77-4.73-2.33a13.23,13.23,0,0,1-1.35-6.56A13,13,0,0,1,822.93,562.52Zm8.33,2.92a4.48,4.48,0,0,0-1.13-2.35,3.27,3.27,0,0,0-2.47-.89,3.33,3.33,0,0,0-2.5.89,4.55,4.55,0,0,0-1.13,2.35,19.83,19.83,0,0,0-.28,3.56,20.56,20.56,0,0,0,.28,3.64,4.55,4.55,0,0,0,1.13,2.36,3.29,3.29,0,0,0,2.5.89,3.24,3.24,0,0,0,2.47-.89,4.47,4.47,0,0,0,1.13-2.36,19.65,19.65,0,0,0,.28-3.64A19,19,0,0,0,831.26,565.44Z" fill="#202020"/><path d="M838.08,562.52q1.35-2.32,4.72-2.32c2.24,0,3.8.77,4.7,2.32a13,13,0,0,1,1.35,6.48,13.23,13.23,0,0,1-1.35,6.56c-.9,1.56-2.46,2.33-4.7,2.33s-3.82-.77-4.72-2.33a13.12,13.12,0,0,1-1.35-6.56A12.89,12.89,0,0,1,838.08,562.52Zm8.33,2.92a4.56,4.56,0,0,0-1.14-2.35,3.9,3.9,0,0,0-5,0,4.56,4.56,0,0,0-1.14,2.35,19.93,19.93,0,0,0-.27,3.56,20.66,20.66,0,0,0,.27,3.64,4.56,4.56,0,0,0,1.14,2.36,3.27,3.27,0,0,0,2.49.89,3.24,3.24,0,0,0,2.47-.89,4.56,4.56,0,0,0,1.14-2.36,20.66,20.66,0,0,0,.27-3.64A19.93,19.93,0,0,0,846.41,565.44Z" fill="#202020"/><path d="M853.22,562.52q1.35-2.32,4.72-2.32c2.24,0,3.8.77,4.7,2.32A13,13,0,0,1,864,569a13.22,13.22,0,0,1-1.36,6.56c-.9,1.56-2.46,2.33-4.7,2.33s-3.82-.77-4.72-2.33a13.23,13.23,0,0,1-1.35-6.56A13,13,0,0,1,853.22,562.52Zm8.33,2.92a4.49,4.49,0,0,0-1.14-2.35,3.9,3.9,0,0,0-5,0,4.56,4.56,0,0,0-1.14,2.35A19.93,19.93,0,0,0,854,569a20.66,20.66,0,0,0,.27,3.64,4.56,4.56,0,0,0,1.14,2.36,3.27,3.27,0,0,0,2.49.89,3.24,3.24,0,0,0,2.47-.89,4.48,4.48,0,0,0,1.14-2.36,20.56,20.56,0,0,0,.28-3.64A19.83,19.83,0,0,0,861.55,565.44Z" fill="#202020"/><rect x="648.07" y="547.03" width="624.94" height="47.05" rx="6" fill="none" stroke="#202020" stroke-miterlimit="10"/><path d="M663.82,738.58a9.31,9.31,0,0,1,4,3.82,12.82,12.82,0,0,1,0,11.65,9.18,9.18,0,0,1-4,3.76,13.74,13.74,0,0,1-6.19,1.3h-6.81V737.25h6.81A13.61,13.61,0,0,1,663.82,738.58Zm.27,15.94a8.56,8.56,0,0,0,2.22-6.29,7.88,7.88,0,0,0-8.68-8.66h-4v17.19h4Q661.86,756.76,664.09,754.52Z" fill="#202020"/><path d="M688.58,751.58H674.84a5.41,5.41,0,0,0,5.59,5.4,5.33,5.33,0,0,0,3.09-.86,4.67,4.67,0,0,0,1.74-2.31h3.07a7.38,7.38,0,0,1-2.76,4,8.28,8.28,0,0,1-5.14,1.55,8.73,8.73,0,0,1-4.38-1.09,7.82,7.82,0,0,1-3-3.12,9.62,9.62,0,0,1-1.1-4.69,9.85,9.85,0,0,1,1.06-4.68,7.57,7.57,0,0,1,3-3.09,8.93,8.93,0,0,1,4.44-1.08,8.66,8.66,0,0,1,4.33,1.07,7.43,7.43,0,0,1,2.9,2.93,8.67,8.67,0,0,1,1,4.22C688.68,750.4,688.64,751,688.58,751.58ZM685,746.46a4.7,4.7,0,0,0-2-1.79,6.13,6.13,0,0,0-2.75-.61,5.27,5.27,0,0,0-3.68,1.38,5.56,5.56,0,0,0-1.74,3.82h10.85A5.25,5.25,0,0,0,685,746.46Z" fill="#202020"/><path d="M695,758.72a6,6,0,0,1-2.48-1.88,5,5,0,0,1-1-2.78h3a2.86,2.86,0,0,0,1.2,2.1,4.58,4.58,0,0,0,2.84.82,4.11,4.11,0,0,0,2.57-.72,2.21,2.21,0,0,0,1-1.82,1.81,1.81,0,0,0-1-1.68,14.63,14.63,0,0,0-3.1-1.08,23.85,23.85,0,0,1-3.12-1,5.51,5.51,0,0,1-2.07-1.54,4,4,0,0,1-.87-2.68,4.07,4.07,0,0,1,.79-2.41,5.16,5.16,0,0,1,2.22-1.74,8,8,0,0,1,3.3-.65,7,7,0,0,1,4.61,1.44,5.21,5.21,0,0,1,1.88,4h-2.85a3,3,0,0,0-1.09-2.17,4.79,4.79,0,0,0-5.09-.15,2,2,0,0,0-.91,1.72,1.88,1.88,0,0,0,.55,1.4,3.84,3.84,0,0,0,1.38.87,22.75,22.75,0,0,0,2.3.74,25.9,25.9,0,0,1,3,1,5.12,5.12,0,0,1,2,1.46,3.86,3.86,0,0,1,.87,2.54A4.3,4.3,0,0,1,704,757a5.24,5.24,0,0,1-2.21,1.77,7.87,7.87,0,0,1-3.28.64A8.9,8.9,0,0,1,695,758.72Z" fill="#202020"/><path d="M708.81,745.83a7.62,7.62,0,0,1,3-3.09,9.38,9.38,0,0,1,9.56.44,7.21,7.21,0,0,1,2.71,4.26H721a4.36,4.36,0,0,0-1.71-2.47,5.26,5.26,0,0,0-3.15-.91,5,5,0,0,0-4,1.68,6.82,6.82,0,0,0-1.51,4.75,7,7,0,0,0,1.51,4.8,5,5,0,0,0,4,1.69,5.33,5.33,0,0,0,3.14-.88,4.43,4.43,0,0,0,1.72-2.51h3.07a7.57,7.57,0,0,1-2.76,4.22,8.23,8.23,0,0,1-5.17,1.58,8.5,8.5,0,0,1-4.34-1.09,7.61,7.61,0,0,1-3-3.11,9.88,9.88,0,0,1-1.07-4.7A9.74,9.74,0,0,1,708.81,745.83Z" fill="#202020"/><path d="M732.85,742.43a6.59,6.59,0,0,1,3.4-.82v2.95h-.75c-3.2,0-4.8,1.73-4.8,5.21v9.34h-2.85V741.92h2.85v2.8A5.47,5.47,0,0,1,732.85,742.43Z" fill="#202020"/><path d="M739.64,738.57a2,2,0,0,1,0-2.76,1.88,1.88,0,0,1,1.38-.57,1.81,1.81,0,0,1,1.34.57,2,2,0,0,1,0,2.76,1.8,1.8,0,0,1-1.34.56A1.87,1.87,0,0,1,739.64,738.57Zm2.76,3.35v17.19h-2.85V741.92Z" fill="#202020"/><path d="M757.71,756.1a4.43,4.43,0,0,0,1.72-2.51h3.08a7.52,7.52,0,0,1-2.47,4,7.78,7.78,0,0,1-4.59,1.77v1.57a4.67,4.67,0,0,1,2.95.79,2.71,2.71,0,0,1,1.1,2.32,2.9,2.9,0,0,1-1.07,2.35,4.23,4.23,0,0,1-2.76.88h-3.61v-1.85h3a2.91,2.91,0,0,0,1.53-.32,1.17,1.17,0,0,0,.48-1.06,1.15,1.15,0,0,0-.48-1,2.92,2.92,0,0,0-1.53-.31h-1.56v-3.36a8,8,0,0,1-3.83-1.36,7.74,7.74,0,0,1-2.59-3.08,10,10,0,0,1-.92-4.4,9.74,9.74,0,0,1,1.06-4.66,7.62,7.62,0,0,1,3-3.09,9.38,9.38,0,0,1,9.56.44,7.27,7.27,0,0,1,2.72,4.26h-3.08a4.36,4.36,0,0,0-1.71-2.47,5.22,5.22,0,0,0-3.15-.91,5,5,0,0,0-4,1.68,6.87,6.87,0,0,0-1.51,4.75,7,7,0,0,0,1.51,4.8,5,5,0,0,0,4,1.69A5.31,5.31,0,0,0,757.71,756.1Z" fill="#202020"/><path d="M766.3,745.83a7.73,7.73,0,0,1,2.93-3.09,8.08,8.08,0,0,1,4.16-1.1,7.72,7.72,0,0,1,3.92,1,6.56,6.56,0,0,1,2.48,2.45v-3.14h2.88v17.19h-2.88v-3.2a6.75,6.75,0,0,1-2.53,2.5,7.53,7.53,0,0,1-3.9,1,7.79,7.79,0,0,1-4.14-1.12,7.92,7.92,0,0,1-2.92-3.17,9.89,9.89,0,0,1-1.07-4.64A9.68,9.68,0,0,1,766.3,745.83ZM779,747.1a5.49,5.49,0,0,0-2.11-2.21,6,6,0,0,0-5.85,0,5.5,5.5,0,0,0-2.1,2.2,6.9,6.9,0,0,0-.79,3.39,7.06,7.06,0,0,0,.79,3.43,5.59,5.59,0,0,0,2.1,2.23,5.7,5.7,0,0,0,2.91.77,5.81,5.81,0,0,0,2.94-.77,5.54,5.54,0,0,0,2.11-2.23,7,7,0,0,0,.79-3.4A6.9,6.9,0,0,0,779,747.1Zm-8-9.47a2.77,2.77,0,0,1,2.08-.85,2.41,2.41,0,0,1,1,.2,9.86,9.86,0,0,1,1,.58,6,6,0,0,0,.79.49,1.59,1.59,0,0,0,.75.17,1.29,1.29,0,0,0,.91-.34,1.62,1.62,0,0,0,.47-1h1.63a4,4,0,0,1-1,2.41,2.9,2.9,0,0,1-2.11.85,2.52,2.52,0,0,1-1-.21,5.92,5.92,0,0,1-1-.61c-.33-.21-.6-.36-.79-.47a1.58,1.58,0,0,0-.71-.16,1.23,1.23,0,0,0-.89.35,1.68,1.68,0,0,0-.46,1h-1.66A4.11,4.11,0,0,1,771,737.63Z" fill="#202020"/><path d="M790.62,758.3a7.88,7.88,0,0,1-3.07-3.12,9.62,9.62,0,0,1-1.11-4.69,9.33,9.33,0,0,1,1.14-4.66,7.91,7.91,0,0,1,3.12-3.11,9.61,9.61,0,0,1,8.85,0,8.05,8.05,0,0,1,3.12,3.09,9.32,9.32,0,0,1,1.14,4.68,9.22,9.22,0,0,1-1.17,4.69,8.24,8.24,0,0,1-3.19,3.12,9.11,9.11,0,0,1-4.45,1.09A8.84,8.84,0,0,1,790.62,758.3Zm7.26-2.14a5.45,5.45,0,0,0,2.18-2.16,6.86,6.86,0,0,0,.84-3.51,7.13,7.13,0,0,0-.82-3.52,5.29,5.29,0,0,0-2.13-2.14,6.14,6.14,0,0,0-5.73,0,5.18,5.18,0,0,0-2.08,2.14,7.35,7.35,0,0,0-.79,3.52,7.47,7.47,0,0,0,.77,3.54,5.1,5.1,0,0,0,2.06,2.15,5.73,5.73,0,0,0,2.82.71A5.9,5.9,0,0,0,797.88,756.16Z" fill="#202020"/><path d="M828.31,737.25v2.32H818.8v7.37h7.72v2.32H818.8v9.85H816V737.25Z" fill="#202020"/><path d="M847,741.92v17.19h-2.85v-2.54a5.63,5.63,0,0,1-2.28,2.06,7,7,0,0,1-3.21.73,7.65,7.65,0,0,1-3.61-.83,6,6,0,0,1-2.52-2.49,8.19,8.19,0,0,1-.93-4V741.92h2.82v9.7a5.46,5.46,0,0,0,1.29,3.9,4.6,4.6,0,0,0,3.51,1.37,4.67,4.67,0,0,0,3.61-1.42,5.79,5.79,0,0,0,1.32-4.1v-9.45Z" fill="#202020"/><path d="M865.29,743.51a7.32,7.32,0,0,1,1.94,5.47v10.13h-2.82v-9.72a5.52,5.52,0,0,0-1.29-3.94,4.58,4.58,0,0,0-3.51-1.36A4.7,4.7,0,0,0,856,745.5a5.76,5.76,0,0,0-1.33,4.11v9.5h-2.86V741.92h2.86v2.45a5.62,5.62,0,0,1,2.3-2,7.18,7.18,0,0,1,3.22-.72A7,7,0,0,1,865.29,743.51Z" fill="#202020"/><path d="M871.9,745.83a7.69,7.69,0,0,1,3-3.09,9.4,9.4,0,0,1,9.57.44,7.3,7.3,0,0,1,2.71,4.26h-3.08a4.4,4.4,0,0,0-1.7-2.47,5.27,5.27,0,0,0-3.16-.91,5,5,0,0,0-4,1.68,6.87,6.87,0,0,0-1.5,4.75,7,7,0,0,0,1.5,4.8,5,5,0,0,0,4,1.69,5.31,5.31,0,0,0,3.14-.88,4.39,4.39,0,0,0,1.72-2.51h3.08a7.57,7.57,0,0,1-2.76,4.22,8.25,8.25,0,0,1-5.18,1.58,8.5,8.5,0,0,1-4.34-1.09,7.68,7.68,0,0,1-3-3.11,9.88,9.88,0,0,1-1.06-4.7A9.74,9.74,0,0,1,871.9,745.83Z" fill="#202020"/><path d="M891,738.57a2,2,0,0,1,0-2.76,1.85,1.85,0,0,1,1.38-.57,1.79,1.79,0,0,1,1.33.57,2,2,0,0,1,0,2.76,1.78,1.78,0,0,1-1.33.56A1.84,1.84,0,0,1,891,738.57Zm2.76,3.35v17.19h-2.86V741.92Z" fill="#202020"/><path d="M901.78,758.3a7.81,7.81,0,0,1-3.07-3.12,9.51,9.51,0,0,1-1.12-4.69,9.23,9.23,0,0,1,1.15-4.66,7.91,7.91,0,0,1,3.12-3.11,9.58,9.58,0,0,1,8.84,0,8,8,0,0,1,3.12,3.09,9.23,9.23,0,0,1,1.15,4.68,9.13,9.13,0,0,1-1.18,4.69,8.15,8.15,0,0,1-3.18,3.12,9.15,9.15,0,0,1-4.46,1.09A8.8,8.8,0,0,1,901.78,758.3Zm7.26-2.14a5.45,5.45,0,0,0,2.18-2.16,7,7,0,0,0,.83-3.51,7.13,7.13,0,0,0-.81-3.52,5.37,5.37,0,0,0-2.14-2.14,6.12,6.12,0,0,0-5.72,0,5.2,5.2,0,0,0-2.09,2.14,8.43,8.43,0,0,0,0,7.06,5.08,5.08,0,0,0,2.05,2.15,5.79,5.79,0,0,0,2.82.71A5.94,5.94,0,0,0,909,756.16Z" fill="#202020"/><path d="M932.19,743.51a7.32,7.32,0,0,1,1.94,5.47v10.13h-2.82v-9.72a5.52,5.52,0,0,0-1.29-3.94,4.58,4.58,0,0,0-3.51-1.36,4.7,4.7,0,0,0-3.59,1.41,5.76,5.76,0,0,0-1.33,4.11v9.5h-2.86V741.92h2.86v2.45a5.62,5.62,0,0,1,2.3-2,7.15,7.15,0,0,1,3.22-.72A7,7,0,0,1,932.19,743.51Z" fill="#202020"/><path d="M938.8,745.83a7.75,7.75,0,0,1,2.94-3.09,8,8,0,0,1,4.15-1.1,7.67,7.67,0,0,1,3.92,1,6.49,6.49,0,0,1,2.48,2.45v-3.14h2.89v17.19h-2.89v-3.2a6.72,6.72,0,0,1-2.52,2.5,7.55,7.55,0,0,1-3.91,1,7.82,7.82,0,0,1-4.14-1.12,8.07,8.07,0,0,1-2.92-3.17,9.88,9.88,0,0,1-1.06-4.64A9.67,9.67,0,0,1,938.8,745.83Zm12.71,1.27a5.58,5.58,0,0,0-2.12-2.21,6,6,0,0,0-5.85,0,5.5,5.5,0,0,0-2.1,2.2,7,7,0,0,0-.78,3.39,7.18,7.18,0,0,0,.78,3.43,5.59,5.59,0,0,0,2.1,2.23,5.71,5.71,0,0,0,2.92.77,5.8,5.8,0,0,0,2.93-.77,5.63,5.63,0,0,0,2.12-2.23,7.11,7.11,0,0,0,.78-3.4A7,7,0,0,0,951.51,747.1Zm-1.45-10-6.68,3.58v-2.13l6.68-3.93Z" fill="#202020"/><path d="M965,742.43a6.56,6.56,0,0,1,3.4-.82v2.95h-.75c-3.2,0-4.8,1.73-4.8,5.21v9.34H960V741.92h2.85v2.8A5.41,5.41,0,0,1,965,742.43Z" fill="#202020"/><path d="M971.8,738.57a2,2,0,0,1,1.38-3.33,1.77,1.77,0,0,1,1.33.57,2,2,0,0,1,0,2.76,1.76,1.76,0,0,1-1.33.56A1.86,1.86,0,0,1,971.8,738.57Zm2.76,3.35v17.19h-2.85V741.92Z" fill="#202020"/><path d="M982.54,758.3a7.81,7.81,0,0,1-3.07-3.12,9.51,9.51,0,0,1-1.12-4.69,9.33,9.33,0,0,1,1.15-4.66,7.91,7.91,0,0,1,3.12-3.11,9.58,9.58,0,0,1,8.84,0,8,8,0,0,1,3.12,3.09,9.23,9.23,0,0,1,1.15,4.68,9.13,9.13,0,0,1-1.18,4.69,8.15,8.15,0,0,1-3.18,3.12,9.14,9.14,0,0,1-4.45,1.09A8.84,8.84,0,0,1,982.54,758.3Zm7.26-2.14A5.45,5.45,0,0,0,992,754a6.86,6.86,0,0,0,.83-3.51A7.13,7.13,0,0,0,992,747a5.41,5.41,0,0,0-2.13-2.14,6.14,6.14,0,0,0-5.73,0,5.2,5.2,0,0,0-2.09,2.14,7.35,7.35,0,0,0-.78,3.52A7.47,7.47,0,0,0,982,754a5.14,5.14,0,0,0,2.05,2.15,5.8,5.8,0,0,0,2.83.71A5.93,5.93,0,0,0,989.8,756.16Z" fill="#202020"/><path d="M684,802.26h-7.33L675.36,806h-2.31l6.07-16.71h2.53L687.71,806h-2.32Zm-.63-1.78-3-8.49-3,8.49Z" fill="#202020"/><path d="M694.53,793.32a5.84,5.84,0,0,1,3-.75,6.11,6.11,0,0,1,3.21.85,5.89,5.89,0,0,1,2.24,2.37,7.4,7.4,0,0,1,.82,3.56,7.58,7.58,0,0,1-.82,3.57,6,6,0,0,1-5.45,3.3,5.86,5.86,0,0,1-3-.75,5.14,5.14,0,0,1-1.94-1.9V806h-2.19V788.16h2.19v7.09A5.18,5.18,0,0,1,694.53,793.32Zm6.39,3.42a4.13,4.13,0,0,0-1.63-1.68,4.44,4.44,0,0,0-2.25-.58,4.3,4.3,0,0,0-2.23.59,4.23,4.23,0,0,0-1.64,1.71,5.31,5.31,0,0,0-.62,2.59,5.37,5.37,0,0,0,.62,2.62,4.29,4.29,0,0,0,1.64,1.71,4.4,4.4,0,0,0,2.23.59,4.45,4.45,0,0,0,2.25-.59,4.27,4.27,0,0,0,1.63-1.71,5.53,5.53,0,0,0,.6-2.64A5.41,5.41,0,0,0,700.92,796.74Z" fill="#202020"/><path d="M718.38,792.79V806h-2.2v-2a4.33,4.33,0,0,1-1.75,1.58,5.38,5.38,0,0,1-2.47.57,6,6,0,0,1-2.77-.64,4.66,4.66,0,0,1-1.94-1.92,6.25,6.25,0,0,1-.71-3.11v-7.74h2.17v7.45a4.25,4.25,0,0,0,1,3,3.53,3.53,0,0,0,2.7,1,3.63,3.63,0,0,0,2.78-1.08,4.51,4.51,0,0,0,1-3.16v-7.26Z" fill="#202020"/><path d="M726.26,793.32a5.84,5.84,0,0,1,3-.75,6.11,6.11,0,0,1,3.21.85,5.89,5.89,0,0,1,2.24,2.37,7.4,7.4,0,0,1,.82,3.56,7.58,7.58,0,0,1-.82,3.57,6,6,0,0,1-5.45,3.3,5.86,5.86,0,0,1-3-.75,5.14,5.14,0,0,1-1.94-1.9V806h-2.19V788.16h2.19v7.09A5.18,5.18,0,0,1,726.26,793.32Zm6.39,3.42a4.13,4.13,0,0,0-1.63-1.68,4.44,4.44,0,0,0-2.25-.58,4.3,4.3,0,0,0-2.23.59,4.23,4.23,0,0,0-1.64,1.71,5.31,5.31,0,0,0-.62,2.59,5.37,5.37,0,0,0,.62,2.62,4.29,4.29,0,0,0,1.64,1.71,4.4,4.4,0,0,0,2.23.59,4.45,4.45,0,0,0,2.25-.59,4.27,4.27,0,0,0,1.63-1.71,5.53,5.53,0,0,0,.6-2.64A5.41,5.41,0,0,0,732.65,796.74Z" fill="#202020"/><path d="M740.58,788.16V806h-2.19V788.16Z" fill="#202020"/><path d="M744.39,790.21a1.5,1.5,0,0,1,1.06-2.56,1.39,1.39,0,0,1,1,.44,1.55,1.55,0,0,1,0,2.12,1.38,1.38,0,0,1-1,.43A1.43,1.43,0,0,1,744.39,790.21Zm2.12,2.58V806h-2.19V792.79Z" fill="#202020"/><path d="M760.59,794a5.59,5.59,0,0,1,1.5,4.2V806h-2.17v-7.47a4.25,4.25,0,0,0-1-3,3.53,3.53,0,0,0-2.7-1,3.59,3.59,0,0,0-2.76,1.09,4.39,4.39,0,0,0-1,3.16V806h-2.19V792.79h2.19v1.88a4.37,4.37,0,0,1,1.78-1.57,5.46,5.46,0,0,1,2.47-.55A5.31,5.31,0,0,1,760.59,794Z" fill="#202020"/><path d="M774.94,793.19a4.52,4.52,0,0,1,1.89,1.91,6.5,6.5,0,0,1,.69,3.11V806h-2.17v-7.47a4.25,4.25,0,0,0-1-3,3.53,3.53,0,0,0-2.7-1,3.59,3.59,0,0,0-2.76,1.09,4.43,4.43,0,0,0-1,3.16V806h-2.2V788.16h2.2v6.51a4.28,4.28,0,0,1,1.79-1.57,5.8,5.8,0,0,1,2.57-.55A5.61,5.61,0,0,1,774.94,793.19Z" fill="#202020"/><path d="M781.11,795.79a5.94,5.94,0,0,1,2.26-2.37,6.09,6.09,0,0,1,3.19-.85,5.88,5.88,0,0,1,3,.75,5,5,0,0,1,1.9,1.88v-2.41h2.22V806h-2.22v-2.46a5.18,5.18,0,0,1-1.94,1.92,5.77,5.77,0,0,1-3,.76,6,6,0,0,1-3.19-.87,6.19,6.19,0,0,1-2.24-2.43,7.7,7.7,0,0,1-.82-3.57A7.51,7.51,0,0,1,781.11,795.79Zm9.77,1a4.24,4.24,0,0,0-1.63-1.7,4.35,4.35,0,0,0-2.25-.59,4.44,4.44,0,0,0-2.25.58,4.15,4.15,0,0,0-1.61,1.68,5.41,5.41,0,0,0-.6,2.61,5.53,5.53,0,0,0,.6,2.64,4.29,4.29,0,0,0,1.61,1.71,4.59,4.59,0,0,0,4.5,0,4.27,4.27,0,0,0,1.63-1.71,5.48,5.48,0,0,0,.6-2.62A5.4,5.4,0,0,0,790.88,796.77Z" fill="#202020"/><path d="M799.36,805.7a4.58,4.58,0,0,1-1.9-1.45,3.81,3.81,0,0,1-.77-2.13H799a2.27,2.27,0,0,0,.93,1.62,3.59,3.59,0,0,0,2.18.62,3.17,3.17,0,0,0,2-.55,1.71,1.71,0,0,0,.73-1.4,1.37,1.37,0,0,0-.78-1.29,10.7,10.7,0,0,0-2.38-.83,17.28,17.28,0,0,1-2.4-.79,4.19,4.19,0,0,1-1.59-1.18,3,3,0,0,1-.67-2.06,3.11,3.11,0,0,1,.61-1.86,4.07,4.07,0,0,1,1.71-1.33,6.14,6.14,0,0,1,2.53-.5,5.4,5.4,0,0,1,3.54,1.11,4,4,0,0,1,1.45,3H804.6a2.25,2.25,0,0,0-.84-1.66,3.06,3.06,0,0,0-2-.63,3.18,3.18,0,0,0-1.88.5,1.56,1.56,0,0,0-.7,1.33,1.44,1.44,0,0,0,.42,1.07,2.94,2.94,0,0,0,1.06.68q.64.25,1.77.57a20,20,0,0,1,2.32.75,4.13,4.13,0,0,1,1.53,1.13,3.05,3.05,0,0,1,.66,1.95,3.36,3.36,0,0,1-.6,2,3.93,3.93,0,0,1-1.7,1.36,6.06,6.06,0,0,1-2.52.5A6.82,6.82,0,0,1,799.36,805.7Z" fill="#202020"/><rect x="647.84" y="775.14" width="624.94" height="163.36" rx="6" fill="none" stroke="#202020" stroke-miterlimit="10"/><path d="M663.18,619.25v2.32h-9.51v7.37h7.72v2.32h-7.72v9.85h-2.85V619.25Z" fill="#202020"/><path d="M681.87,623.92v17.19H679v-2.54a5.69,5.69,0,0,1-2.28,2.06,7,7,0,0,1-3.21.73,7.65,7.65,0,0,1-3.61-.83A5.93,5.93,0,0,1,667.4,638a8.19,8.19,0,0,1-.93-4V623.92h2.82v9.7a5.46,5.46,0,0,0,1.29,3.9,4.6,4.6,0,0,0,3.51,1.37,4.67,4.67,0,0,0,3.61-1.42,5.79,5.79,0,0,0,1.32-4.1v-9.45Z" fill="#202020"/><path d="M700.16,625.51A7.32,7.32,0,0,1,702.1,631v10.13h-2.82v-9.72a5.52,5.52,0,0,0-1.29-3.94,4.59,4.59,0,0,0-3.51-1.36,4.7,4.7,0,0,0-3.59,1.41,5.76,5.76,0,0,0-1.34,4.11v9.5H686.7V623.92h2.85v2.45a5.71,5.71,0,0,1,2.31-2,7.14,7.14,0,0,1,3.21-.72A7,7,0,0,1,700.16,625.51Z" fill="#202020"/><path d="M706.77,627.83a7.62,7.62,0,0,1,3-3.09,9.38,9.38,0,0,1,9.56.44,7.27,7.27,0,0,1,2.72,4.26h-3.08a4.36,4.36,0,0,0-1.71-2.47,5.22,5.22,0,0,0-3.15-.91,5,5,0,0,0-4,1.68,6.87,6.87,0,0,0-1.51,4.75,7,7,0,0,0,1.51,4.8,5,5,0,0,0,4,1.69,5.31,5.31,0,0,0,3.14-.88,4.43,4.43,0,0,0,1.72-2.51H722a7.57,7.57,0,0,1-2.76,4.22,8.25,8.25,0,0,1-5.18,1.58,8.5,8.5,0,0,1-4.34-1.09,7.61,7.61,0,0,1-3-3.11,9.88,9.88,0,0,1-1.06-4.7A9.74,9.74,0,0,1,706.77,627.83Z" fill="#202020"/><path d="M725.91,620.57a2,2,0,0,1,0-2.76,1.85,1.85,0,0,1,1.38-.57,1.79,1.79,0,0,1,1.33.57,2,2,0,0,1,0,2.76,1.78,1.78,0,0,1-1.33.56A1.84,1.84,0,0,1,725.91,620.57Zm2.76,3.35v17.19h-2.86V623.92Z" fill="#202020"/><path d="M736.65,640.3a7.9,7.9,0,0,1-3.08-3.12,9.62,9.62,0,0,1-1.11-4.69,9.23,9.23,0,0,1,1.15-4.66,7.91,7.91,0,0,1,3.12-3.11,9.58,9.58,0,0,1,8.84,0,8,8,0,0,1,3.12,3.09,10,10,0,0,1,0,9.37,8.22,8.22,0,0,1-3.18,3.12,9.17,9.17,0,0,1-4.46,1.09A8.78,8.78,0,0,1,736.65,640.3Zm7.26-2.14a5.52,5.52,0,0,0,2.18-2.16,7.9,7.9,0,0,0,0-7,5.29,5.29,0,0,0-2.13-2.14,6.12,6.12,0,0,0-5.72,0,5.14,5.14,0,0,0-2.09,2.14,8.43,8.43,0,0,0,0,7.06,5.08,5.08,0,0,0,2.05,2.15,5.79,5.79,0,0,0,2.82.71A5.94,5.94,0,0,0,743.91,638.16Z" fill="#202020"/><path d="M767.06,625.51A7.32,7.32,0,0,1,769,631v10.13h-2.82v-9.72a5.52,5.52,0,0,0-1.29-3.94,4.59,4.59,0,0,0-3.51-1.36,4.7,4.7,0,0,0-3.59,1.41,5.76,5.76,0,0,0-1.34,4.11v9.5H753.6V623.92h2.85v2.45a5.71,5.71,0,0,1,2.31-2,7.14,7.14,0,0,1,3.21-.72A7,7,0,0,1,767.06,625.51Z" fill="#202020"/><path d="M773.67,627.83a7.68,7.68,0,0,1,2.94-3.09,8,8,0,0,1,4.15-1.1,7.7,7.7,0,0,1,3.92,1,6.49,6.49,0,0,1,2.48,2.45v-3.14H790v17.19h-2.88v-3.2a6.68,6.68,0,0,1-2.53,2.5,7.51,7.51,0,0,1-3.9,1,7.79,7.79,0,0,1-4.14-1.12,8,8,0,0,1-2.92-3.17,9.88,9.88,0,0,1-1.06-4.64A9.67,9.67,0,0,1,773.67,627.83Zm12.71,1.27a5.58,5.58,0,0,0-2.12-2.21,6,6,0,0,0-5.85,0,5.5,5.5,0,0,0-2.1,2.2,7,7,0,0,0-.79,3.39,7.18,7.18,0,0,0,.79,3.43,5.59,5.59,0,0,0,2.1,2.23,5.71,5.71,0,0,0,2.92.77,5.8,5.8,0,0,0,2.93-.77,5.63,5.63,0,0,0,2.12-2.23,7.11,7.11,0,0,0,.78-3.4A7,7,0,0,0,786.38,629.1Zm-1.45-10-6.68,3.58v-2.13l6.68-3.93Z" fill="#202020"/><path d="M799.88,624.43a6.56,6.56,0,0,1,3.4-.82v2.95h-.75c-3.2,0-4.8,1.73-4.8,5.21v9.34h-2.85V623.92h2.85v2.8A5.41,5.41,0,0,1,799.88,624.43Z" fill="#202020"/><path d="M806.67,620.57a2,2,0,0,1,0-2.76,1.85,1.85,0,0,1,1.38-.57,1.79,1.79,0,0,1,1.33.57,2,2,0,0,1,0,2.76,1.78,1.78,0,0,1-1.33.56A1.84,1.84,0,0,1,806.67,620.57Zm2.76,3.35v17.19h-2.86V623.92Z" fill="#202020"/><path d="M817.41,640.3a7.81,7.81,0,0,1-3.07-3.12,9.51,9.51,0,0,1-1.12-4.69,9.23,9.23,0,0,1,1.15-4.66,7.91,7.91,0,0,1,3.12-3.11,9.58,9.58,0,0,1,8.84,0,8,8,0,0,1,3.12,3.09,9.23,9.23,0,0,1,1.15,4.68,9.13,9.13,0,0,1-1.18,4.69,8.15,8.15,0,0,1-3.18,3.12,9.14,9.14,0,0,1-4.45,1.09A8.81,8.81,0,0,1,817.41,640.3Zm7.26-2.14a5.45,5.45,0,0,0,2.18-2.16,7,7,0,0,0,.83-3.51,7.13,7.13,0,0,0-.81-3.52,5.37,5.37,0,0,0-2.14-2.14,6.12,6.12,0,0,0-5.72,0,5.2,5.2,0,0,0-2.09,2.14,7.35,7.35,0,0,0-.78,3.52,7.47,7.47,0,0,0,.77,3.54,5.14,5.14,0,0,0,2.05,2.15,5.8,5.8,0,0,0,2.83.71A5.93,5.93,0,0,0,824.67,638.16Z" fill="#202020"/><rect x="648.07" y="662.14" width="106.26" height="47.05" rx="23.52" fill="none" stroke="#202020" stroke-miterlimit="10"/><circle cx="673.34" cy="685.5" r="19" fill="#202020"/><path d="M680,695.12h-2.2L668.9,681.7v13.42h-2.2V678.24h2.2l8.85,13.4v-13.4H680Z" fill="#fff"/><path d="M148.37,50.79V59l5.06.84a15.65,15.65,0,0,0,1.6,3.84l-3,4.12,5.81,5.9,4.22-2.91a19.74,19.74,0,0,0,3.84,1.6l.85,5H175l.84-5.06a16.78,16.78,0,0,0,3.84-1.59l4.13,2.9,5.91-5.8-3-4.12a18.91,18.91,0,0,0,1.59-3.93l5.06-.75V50.79L188.31,50a18.15,18.15,0,0,0-1.59-3.84l3-4.21-5.82-5.81-4.22,3a18.17,18.17,0,0,0-3.93-1.59l-.85-5h-8.25l-.84,5.05A20.07,20.07,0,0,0,162,39.18l-4.22-3L151.93,42l3,4.21A18.15,18.15,0,0,0,153.34,50Zm22.47-4.53a8.63,8.63,0,1,1-8.62,8.62A8.6,8.6,0,0,1,170.84,46.26Z" fill="#fff"/></svg>