<svg id="Camada_1" data-name="Camada 1" xmlns="http://www.w3.org/2000/svg" xmlns:xlink="http://www.w3.org/1999/xlink" viewBox="0 0 1920 1080"><defs><linearGradient id="Gradiente_sem_nome_67" x1="1074" y1="540" x2="1920" y2="540" gradientUnits="userSpaceOnUse"><stop offset="0.47"/><stop offset="1"/></linearGradient><linearGradient id="Gradiente_sem_nome_67-2" x1="875.71" y1="788.99" x2="198.74" y2="788.99" xlink:href="#Gradiente_sem_nome_67"/></defs><rect x="1074" width="846" height="1080" fill="url(#Gradiente_sem_nome_67)"/><g opacity="0.1"><path d="M875.71,443.9a14.38,14.38,0,0,1-14.39,14.38H213.12a14.38,14.38,0,0,1-14.38-14.38V351.84a14.38,14.38,0,0,1,14.38-14.38h648.2a14.38,14.38,0,0,1,14.39,14.38Z" fill="#a3a3a3" fill-rule="evenodd"/></g><path d="M861.32,340.28a11.58,11.58,0,0,1,11.58,11.56V443.9a11.58,11.58,0,0,1-11.58,11.57H213.12a11.58,11.58,0,0,1-11.57-11.57V351.84a11.58,11.58,0,0,1,11.57-11.56h648.2m0-2.82H213.12a14.38,14.38,0,0,0-14.38,14.38V443.9a14.38,14.38,0,0,0,14.38,14.38h648.2a14.38,14.38,0,0,0,14.39-14.38V351.84a14.38,14.38,0,0,0-14.39-14.38Z" fill="#c9c9c9"/><g opacity="0.1"><path d="M875.71,601.42a14.39,14.39,0,0,1-14.39,14.39H213.12a14.38,14.38,0,0,1-14.38-14.39v-92A14.38,14.38,0,0,1,213.12,495h648.2a14.38,14.38,0,0,1,14.39,14.38Z" fill="#a3a3a3" fill-rule="evenodd"/></g><path d="M875.71,821.76c0,5.66-6.44,10.24-14.39,10.24H213.12c-7.94,0-14.38-4.58-14.38-10.24V756.23c0-5.66,6.44-10.24,14.38-10.24h648.2c7.95,0,14.39,4.58,14.39,10.24Z" fill="url(#Gradiente_sem_nome_67-2)"/><path d="M861.32,497.8a11.58,11.58,0,0,1,11.58,11.57v92A11.58,11.58,0,0,1,861.32,613H213.12a11.58,11.58,0,0,1-11.57-11.57v-92a11.58,11.58,0,0,1,11.57-11.57h648.2m0-2.81H213.12a14.38,14.38,0,0,0-14.38,14.38v92a14.38,14.38,0,0,0,14.38,14.39h648.2a14.39,14.39,0,0,0,14.39-14.39v-92A14.38,14.38,0,0,0,861.32,495Z" fill="#c9c9c9"/><path d="M261.53,546.83h-2.18V544.1a9.1,9.1,0,0,0-18.19,0v2.73H239a3.11,3.11,0,0,0-3.1,3.1v17.69a3.11,3.11,0,0,0,3.1,3.12h22.55a3.13,3.13,0,0,0,3.13-3.12V549.93A3.12,3.12,0,0,0,261.53,546.83Zm-16.26-2.73a5,5,0,1,1,10,0v2.73h-10Zm6.67,18.45v4.52a.35.35,0,0,1-.36.34h-2.17a.33.33,0,0,1-.32-.34v-4.52a4,4,0,1,1,2.85,0Z" fill="#121212"/><path d="M227.13,654.07a2.33,2.33,0,0,1,2.32,2.33V678a2.33,2.33,0,0,1-2.32,2.33H205.49a2.33,2.33,0,0,1-2.32-2.33V656.4a2.33,2.33,0,0,1,2.32-2.33h21.64m0-2.81H205.49a5.14,5.14,0,0,0-5.14,5.14V678a5.14,5.14,0,0,0,5.14,5.14h21.64a5.14,5.14,0,0,0,5.14-5.14V656.4a5.14,5.14,0,0,0-5.14-5.14Z" fill="#121212"/><path d="M214.33,672.57h0a1.34,1.34,0,0,1-1-.4l-4-4a1.4,1.4,0,0,1,2-2l3,3,6.94-6.93a1.4,1.4,0,0,1,2,2l-7.93,7.93A1.36,1.36,0,0,1,214.33,672.57Z" fill="#121212"/><path d="M299.46,406v-6.9a3.89,3.89,0,0,1,1.05-2.86,4.32,4.32,0,0,1,3.2-1.06,4.22,4.22,0,0,1,3.18,1.06,4,4,0,0,1,1,2.86v4.58h-6.15v2.2a1.75,1.75,0,0,0,.62,1.47,3.56,3.56,0,0,0,2.15.48,10,10,0,0,0,3-.45v2.15a12.63,12.63,0,0,1-3.2.4Q299.46,410,299.46,406Zm2.3-4.22h3.93v-2.65a2,2,0,0,0-3.93,0Z" fill="#202020"/><path d="M310,400.65h4.45v2H310Z" fill="#202020"/><path d="M324.54,396.37a6.69,6.69,0,0,1,3.36-1,3.6,3.6,0,0,1,2.55.82,3.16,3.16,0,0,1,.89,2.43v11.17H329V399.05a1.32,1.32,0,0,0-1.5-1.48,4.18,4.18,0,0,0-2.27.68,2,2,0,0,1,.12.77v10.8h-2.4V399.05a1.3,1.3,0,0,0-1.47-1.48,4.82,4.82,0,0,0-2.18.55v11.7h-2.35V395.45h2.25v.65a7.59,7.59,0,0,1,3-.7A3,3,0,0,1,324.54,396.37Z" fill="#202020"/><path d="M334.16,395.8a11.56,11.56,0,0,1,3.63-.48q4.27,0,4.27,3.88v10.62h-2.25v-1a3.93,3.93,0,0,1-2.9,1.1q-3.45,0-3.45-3.48v-.82a3.38,3.38,0,0,1,.73-2.27,4.6,4.6,0,0,1,2.32-1.31l3.28-.9V399.2a1.64,1.64,0,0,0-.5-1.34,3.61,3.61,0,0,0-2.11-.41,8.78,8.78,0,0,0-3,.5Zm1.63,9.9v.75a1.69,1.69,0,0,0,.39,1.22,2.1,2.1,0,0,0,1.52.4,3.28,3.28,0,0,0,2.09-.77v-4.18l-2.38.65a2.48,2.48,0,0,0-1.3.69A2,2,0,0,0,335.79,405.7Z" fill="#202020"/><path d="M347.59,392.81a1.38,1.38,0,1,1-1.38-1.39A1.23,1.23,0,0,1,347.59,392.81ZM345,395.62h2.35v14.2H345Z" fill="#202020"/><path d="M350.49,391.62h2.35v18.2h-2.35Z" fill="#202020"/><path d="M505.41,778.18h3.21v20.17h6.69v2.74h-9.9Z" fill="#fff"/><path d="M517.23,783.42a5.47,5.47,0,0,1,1.54-4.06,7.61,7.61,0,0,1,9.15,0,5.44,5.44,0,0,1,1.55,4v12.47a5.39,5.39,0,0,1-1.55,4,7.62,7.62,0,0,1-9.13,0,5.36,5.36,0,0,1-1.56-4Zm9.06.1c0-1.85-1-2.77-2.94-2.77s-2.94.92-2.94,2.77v12.23c0,1.87,1,2.81,2.94,2.81s2.94-.94,2.94-2.81Z" fill="#fff"/><path d="M533,783.25a4.74,4.74,0,0,1,1.68-3.86,7.86,7.86,0,0,1,5.08-1.38,15.58,15.58,0,0,1,4.3.57v3a13.2,13.2,0,0,0-4.26-.68q-3.59,0-3.59,2.57V796c0,1.63,1,2.44,3,2.44a4.4,4.4,0,0,0,2.5-.58v-8.28h3.14v10.38a11.28,11.28,0,0,1-5.52,1.35,7.43,7.43,0,0,1-4.68-1.27,4.5,4.5,0,0,1-1.63-3.8Z" fill="#fff"/><path d="M548.67,778.18h3.21v22.91h-3.21Z" fill="#fff"/><path d="M565.9,778.18H569v22.91h-3.38q-5.29-13.55-6.92-18c0,.25,0,.77.13,1.56q.27,2.94.27,6.52v9.9H556V778.18h3.42q4.69,11.9,5.71,14.73c.67,1.9,1.06,3,1.15,3.21,0-.2-.07-1.2-.19-3s-.2-3.52-.22-5.19Z" fill="#fff"/><path d="M298.81,554.68a3.39,3.39,0,0,1,1.17-2.75,5,5,0,0,1,3.31-1,11.32,11.32,0,0,1,3.5.45v2.25a9.05,9.05,0,0,0-3.28-.53c-1.55,0-2.32.58-2.32,1.73v1a2.17,2.17,0,0,0,.31,1.26,3.26,3.26,0,0,0,1.11.92l2.9,1.62a3.57,3.57,0,0,1,2,3.33v1.4a3.36,3.36,0,0,1-1.28,2.81,5.71,5.71,0,0,1-3.58,1,10.83,10.83,0,0,1-3.72-.53v-2.25a10.1,10.1,0,0,0,3.48.6c1.81,0,2.72-.61,2.72-1.85v-.85a2.09,2.09,0,0,0-.27-1.16,2.67,2.67,0,0,0-1-.81L301,559.76a3.84,3.84,0,0,1-2.23-3.58Z" fill="#202020"/><path d="M309.54,564.23v-6.9a3.89,3.89,0,0,1,1-2.86,4.3,4.3,0,0,1,3.2-1.06,4.21,4.21,0,0,1,3.17,1.06,3.92,3.92,0,0,1,1,2.86v4.58h-6.15v2.2a1.73,1.73,0,0,0,.61,1.47,3.61,3.61,0,0,0,2.15.48,10,10,0,0,0,3-.45v2.15a12.69,12.69,0,0,1-3.2.4Q309.55,568.16,309.54,564.23Zm2.3-4.22h3.92v-2.65a2,2,0,0,0-3.92,0Z" fill="#202020"/><path d="M322.91,554.31a7.48,7.48,0,0,1,3-.7,3.23,3.23,0,0,1,2.28.83,3.18,3.18,0,0,1,.88,2.42V568h-2.4V557.26a1.3,1.3,0,0,0-1.47-1.48,5,5,0,0,0-2.18.55V568h-2.35V553.66h2.25Z" fill="#202020"/><path d="M332,549.83h2.35v4.3a7,7,0,0,1,2.74-.55,3.43,3.43,0,0,1,2.38.83,3.09,3.09,0,0,1,.93,2.45V568H338V557.26a1.31,1.31,0,0,0-1.48-1.48,4.79,4.79,0,0,0-2.17.53V568H332Z" fill="#202020"/><path d="M343.26,554a11.56,11.56,0,0,1,3.63-.48q4.28,0,4.27,3.88V568h-2.25v-1a3.93,3.93,0,0,1-2.9,1.1q-3.45,0-3.45-3.48v-.82a3.38,3.38,0,0,1,.73-2.27,4.6,4.6,0,0,1,2.32-1.31l3.28-.9v-1.92a1.64,1.64,0,0,0-.5-1.34,3.61,3.61,0,0,0-2.11-.41,8.78,8.78,0,0,0-3,.5Zm1.63,9.9v.75a1.67,1.67,0,0,0,.39,1.22,2.1,2.1,0,0,0,1.52.4,3.28,3.28,0,0,0,2.09-.77v-4.18l-2.38.65a2.55,2.55,0,0,0-1.3.69A2,2,0,0,0,344.89,563.91Z" fill="#202020"/><path d="M251.71,660.36h2.38v14.93h5v2h-7.33Z" fill="#202020"/><path d="M260.46,673.51v-6.9a3.89,3.89,0,0,1,1.05-2.86,4.32,4.32,0,0,1,3.2-1.06,4.24,4.24,0,0,1,3.18,1.06,4,4,0,0,1,1,2.86v4.58h-6.15v2.2a1.75,1.75,0,0,0,.62,1.47,3.56,3.56,0,0,0,2.15.48,10,10,0,0,0,3-.45V677a12.63,12.63,0,0,1-3.2.4Q260.46,677.44,260.46,673.51Zm2.3-4.22h3.93v-2.65a2,2,0,0,0-3.93,0Z" fill="#202020"/><path d="M279.21,663.86a6.75,6.75,0,0,1,3.37-1,3.64,3.64,0,0,1,2.55.82,3.16,3.16,0,0,1,.88,2.43v11.17h-2.37V666.54a1.32,1.32,0,0,0-1.5-1.48,4.24,4.24,0,0,0-2.28.68,1.78,1.78,0,0,1,.13.77v10.8h-2.4V666.54a1.31,1.31,0,0,0-1.48-1.48,4.91,4.91,0,0,0-2.17.55v11.7h-2.35V662.94h2.25v.65a7.52,7.52,0,0,1,3.05-.7A3,3,0,0,1,279.21,663.86Z" fill="#202020"/><path d="M289,659.11h2.35v4.3a7.35,7.35,0,0,1,2.83-.55,3.31,3.31,0,0,1,2.38.84,3.2,3.2,0,0,1,.89,2.44v7.47a3.54,3.54,0,0,1-1,2.75,3.81,3.81,0,0,1-2.72.95H289Zm6.07,7.43a1.33,1.33,0,0,0-1.52-1.48,6.4,6.4,0,0,0-2.2.5v9.6h1.77q2,0,1.95-1.8Z" fill="#202020"/><path d="M305.39,662.86H306v2.23h-.75a4.62,4.62,0,0,0-2.57.95v11.27h-2.35V662.94h2.25v1l.29-.2.27-.19.25-.16a.83.83,0,0,1,.26-.15l.24-.12.26-.11a1.68,1.68,0,0,0,.27-.09.85.85,0,0,1,.31-.06C305,662.88,305.22,662.86,305.39,662.86Z" fill="#202020"/><path d="M307.39,673.51v-6.9a3.89,3.89,0,0,1,1.05-2.86,4.3,4.3,0,0,1,3.2-1.06,4.21,4.21,0,0,1,3.17,1.06,3.92,3.92,0,0,1,1,2.86v4.58h-6.15v2.2a1.75,1.75,0,0,0,.61,1.47,3.58,3.58,0,0,0,2.15.48,10,10,0,0,0,3-.45V677a12.69,12.69,0,0,1-3.2.4C309,677.44,307.39,676.13,307.39,673.51Zm2.3-4.22h3.92v-2.65a2,2,0,0,0-3.92,0Z" fill="#202020"/><path d="M318,668.14h4.45v2H318Z" fill="#202020"/><path d="M332.46,663.86a6.75,6.75,0,0,1,3.37-1,3.64,3.64,0,0,1,2.55.82,3.16,3.16,0,0,1,.88,2.43v11.17h-2.37V666.54a1.32,1.32,0,0,0-1.5-1.48,4.24,4.24,0,0,0-2.28.68,1.78,1.78,0,0,1,.13.77v10.8h-2.4V666.54a1.31,1.31,0,0,0-1.48-1.48,4.91,4.91,0,0,0-2.17.55v11.7h-2.35V662.94h2.25v.65a7.52,7.52,0,0,1,3.05-.7A3,3,0,0,1,332.46,663.86Z" fill="#202020"/><path d="M342,673.51v-6.9a3.89,3.89,0,0,1,1.05-2.86,4.3,4.3,0,0,1,3.2-1.06,4.21,4.21,0,0,1,3.17,1.06,3.92,3.92,0,0,1,1,2.86v4.58h-6.15v2.2a1.75,1.75,0,0,0,.61,1.47,3.58,3.58,0,0,0,2.15.48,10,10,0,0,0,3-.45V677a12.69,12.69,0,0,1-3.2.4C343.6,677.44,342,676.13,342,673.51Zm2.3-4.22h3.92v-2.65a2,2,0,0,0-3.92,0Z" fill="#202020"/><path d="M637,660.36h2.33v16.95h-2.5q-3.93-10-5.13-13.3c0,.19,0,.57.1,1.15.14,1.45.2,3.06.2,4.83v7.32h-2.3V660.36h2.53q3.48,8.8,4.22,10.9c.5,1.4.79,2.19.85,2.38,0-.15,0-.89-.13-2.22s-.15-2.6-.17-3.83Z" fill="#202020"/><path d="M642.29,663.29a11.54,11.54,0,0,1,3.62-.48q4.27,0,4.28,3.88v10.62h-2.25v-1a3.94,3.94,0,0,1-2.9,1.1q-3.45,0-3.45-3.48v-.82a3.43,3.43,0,0,1,.72-2.27,4.63,4.63,0,0,1,2.33-1.31l3.27-.9v-1.92a1.61,1.61,0,0,0-.5-1.34,3.56,3.56,0,0,0-2.11-.41,8.72,8.72,0,0,0-3,.5Zm5.67-4h1.48v.27c0,1.39-.64,2.08-1.83,2.08a3.11,3.11,0,0,1-1.5-.5,2.9,2.9,0,0,0-1.17-.5c-.37,0-.55.27-.55.82v.23h-1.48v-.25c0-1.4.65-2.1,1.85-2.1a3,3,0,0,1,1.55.5,3.38,3.38,0,0,0,1.1.5c.37,0,.55-.28.55-.83Zm-4.05,13.9v.75a1.67,1.67,0,0,0,.39,1.22,2.15,2.15,0,0,0,1.53.4,3.25,3.25,0,0,0,2.08-.77v-4.18l-2.37.65a2.5,2.5,0,0,0-1.3.69A2,2,0,0,0,643.91,673.19Z" fill="#202020"/><path d="M652.91,666.61a3.89,3.89,0,0,1,1.05-2.86,4.32,4.32,0,0,1,3.2-1.06,4.37,4.37,0,0,1,3.22,1.06,3.9,3.9,0,0,1,1.06,2.86v7a3.9,3.9,0,0,1-1.06,2.86,4.37,4.37,0,0,1-3.22,1.06,4.32,4.32,0,0,1-3.2-1.06,3.89,3.89,0,0,1-1.05-2.86Zm6.18,0a1.93,1.93,0,0,0-3.85,0v6.93a1.93,1.93,0,0,0,3.85,0Z" fill="#202020"/><path d="M669,659.11h2.35v18.2H669Z" fill="#202020"/><path d="M674.16,673.51v-6.9a3.89,3.89,0,0,1,1.05-2.86,4.32,4.32,0,0,1,3.2-1.06,4.24,4.24,0,0,1,3.18,1.06,4,4,0,0,1,1,2.86v4.58h-6.15v2.2a1.77,1.77,0,0,0,.61,1.47,3.61,3.61,0,0,0,2.15.48,10,10,0,0,0,3-.45V677a12.63,12.63,0,0,1-3.2.4Q674.17,677.44,674.16,673.51Zm2.3-4.22h3.93v-2.65a2,2,0,0,0-3.93,0Z" fill="#202020"/><path d="M692.91,663.86a6.72,6.72,0,0,1,3.36-1,3.6,3.6,0,0,1,2.55.82,3.13,3.13,0,0,1,.89,2.43v11.17h-2.37V666.54a1.32,1.32,0,0,0-1.5-1.48,4.24,4.24,0,0,0-2.28.68,1.78,1.78,0,0,1,.13.77v10.8h-2.4V666.54a1.31,1.31,0,0,0-1.48-1.48,4.91,4.91,0,0,0-2.17.55v11.7h-2.35V662.94h2.25v.65a7.52,7.52,0,0,1,3.05-.7A3,3,0,0,1,692.91,663.86Z" fill="#202020"/><path d="M702.69,659.11H705v4.3a7.35,7.35,0,0,1,2.83-.55,3.31,3.31,0,0,1,2.38.84,3.2,3.2,0,0,1,.89,2.44v7.47a3.57,3.57,0,0,1-1,2.75,3.81,3.81,0,0,1-2.72.95h-4.7Zm6.07,7.43a1.33,1.33,0,0,0-1.52-1.48,6.4,6.4,0,0,0-2.2.5v9.6h1.77q2,0,2-1.8Z" fill="#202020"/><path d="M719.09,662.86h.57v2.23h-.75a4.62,4.62,0,0,0-2.57.95v11.27H714V662.94h2.25v1l.28-.2.28-.19.25-.16a.83.83,0,0,1,.26-.15l.24-.12.26-.11a1.35,1.35,0,0,0,.26-.09,1,1,0,0,1,.32-.06C718.69,662.88,718.92,662.86,719.09,662.86Z" fill="#202020"/><path d="M721.09,666.61a3.89,3.89,0,0,1,1-2.86,4.3,4.3,0,0,1,3.2-1.06,4.36,4.36,0,0,1,3.21,1.06,3.86,3.86,0,0,1,1.06,2.86v7a3.86,3.86,0,0,1-1.06,2.86,4.36,4.36,0,0,1-3.21,1.06,4.3,4.3,0,0,1-3.2-1.06,3.89,3.89,0,0,1-1-2.86Zm6.17,0a1.93,1.93,0,0,0-3.85,0v6.93a1.93,1.93,0,0,0,3.85,0Z" fill="#202020"/><path d="M737,663.29a11.49,11.49,0,0,1,3.62-.48q4.27,0,4.28,3.88v10.62h-2.25v-1a3.94,3.94,0,0,1-2.9,1.1q-3.45,0-3.45-3.48v-.82a3.43,3.43,0,0,1,.72-2.27,4.59,4.59,0,0,1,2.33-1.31l3.27-.9v-1.92a1.64,1.64,0,0,0-.5-1.34,3.58,3.58,0,0,0-2.11-.41,8.68,8.68,0,0,0-3,.5Zm1.62,9.9v.75a1.67,1.67,0,0,0,.39,1.22,2.12,2.12,0,0,0,1.52.4,3.26,3.26,0,0,0,2.09-.77v-4.18l-2.37.65a2.5,2.5,0,0,0-1.3.69A2,2,0,0,0,738.61,673.19Z" fill="#202020"/><path d="M760.19,663.86a6.69,6.69,0,0,1,3.36-1,3.6,3.6,0,0,1,2.55.82,3.16,3.16,0,0,1,.89,2.43v11.17h-2.38V666.54a1.32,1.32,0,0,0-1.5-1.48,4.18,4.18,0,0,0-2.27.68,2,2,0,0,1,.12.77v10.8h-2.4V666.54a1.3,1.3,0,0,0-1.47-1.48,4.92,4.92,0,0,0-2.18.55v11.7h-2.35V662.94h2.25v.65a7.56,7.56,0,0,1,3.05-.7A3,3,0,0,1,760.19,663.86Z" fill="#202020"/><path d="M772.51,660.3a1.38,1.38,0,1,1-1.37-1.39A1.22,1.22,0,0,1,772.51,660.3ZM770,663.11h2.35v14.2H770Z" fill="#202020"/><path d="M777.66,663.59a7.44,7.44,0,0,1,3-.7,3,3,0,0,1,3.16,3.25v11.17h-2.4V666.54a1.3,1.3,0,0,0-1.47-1.48,4.92,4.92,0,0,0-2.18.55v11.7h-2.35V662.94h2.25Z" fill="#202020"/><path d="M786.78,659.11h2.35v4.3a6.81,6.81,0,0,1,2.74-.55,3.46,3.46,0,0,1,2.39.83,3.09,3.09,0,0,1,.92,2.45v11.17h-2.4V666.54a1.3,1.3,0,0,0-1.47-1.48,4.83,4.83,0,0,0-2.18.53v11.72h-2.35Z" fill="#202020"/><path d="M798,663.29a11.54,11.54,0,0,1,3.62-.48q4.27,0,4.28,3.88v10.62h-2.25v-1a3.93,3.93,0,0,1-2.9,1.1q-3.45,0-3.45-3.48v-.82a3.43,3.43,0,0,1,.72-2.27,4.63,4.63,0,0,1,2.33-1.31l3.27-.9v-1.92a1.61,1.61,0,0,0-.5-1.34,3.56,3.56,0,0,0-2.11-.41,8.72,8.72,0,0,0-3,.5Zm1.62,9.9v.75a1.67,1.67,0,0,0,.39,1.22,2.15,2.15,0,0,0,1.53.4,3.23,3.23,0,0,0,2.08-.77v-4.18l-2.37.65a2.55,2.55,0,0,0-1.3.69A2,2,0,0,0,799.63,673.19Z" fill="#202020"/><path d="M812.68,666.44a3.38,3.38,0,0,1,1.07-2.73,5.32,5.32,0,0,1,3.46-.9,9.57,9.57,0,0,1,2.85.4v2.15a7.48,7.48,0,0,0-2.65-.45,3.28,3.28,0,0,0-1.93.39,1.56,1.56,0,0,0-.47,1.26v.5a1.69,1.69,0,0,0,.27,1,3.55,3.55,0,0,0,1.05.75l2.13,1.15a3.46,3.46,0,0,1,2.15,3.1v.65c0,2.46-1.6,3.7-4.8,3.7a12.32,12.32,0,0,1-3.08-.38v-2.17a9,9,0,0,0,2.82.42,4,4,0,0,0,2.12-.4,1.37,1.37,0,0,0,.59-1.22v-.43a1.46,1.46,0,0,0-.31-1,4.43,4.43,0,0,0-1.24-.84l-2-1.05a3.36,3.36,0,0,1-2-3.17Z" fill="#202020"/><path d="M822.56,673.51v-6.9a3.89,3.89,0,0,1,1.05-2.86,4.3,4.3,0,0,1,3.2-1.06,4.21,4.21,0,0,1,3.17,1.06,3.92,3.92,0,0,1,1,2.86v4.58h-6.15v2.2a1.75,1.75,0,0,0,.61,1.47,3.61,3.61,0,0,0,2.15.48,10,10,0,0,0,3-.45V677a12.69,12.69,0,0,1-3.2.4C824.17,677.44,822.56,676.13,822.56,673.51Zm2.3-4.22h3.92v-2.65a2,2,0,0,0-3.92,0Z" fill="#202020"/><path d="M835.93,663.59a7.48,7.48,0,0,1,3-.7,3.23,3.23,0,0,1,2.28.83,3.18,3.18,0,0,1,.88,2.42v11.17h-2.4V666.54a1.3,1.3,0,0,0-1.47-1.48,5,5,0,0,0-2.18.55v11.7h-2.35V662.94h2.25Z" fill="#202020"/><path d="M845.06,659.11h2.35v4.3a6.78,6.78,0,0,1,2.74-.55,3.43,3.43,0,0,1,2.38.83,3.09,3.09,0,0,1,.93,2.45v11.17h-2.4V666.54a1.31,1.31,0,0,0-1.48-1.48,4.79,4.79,0,0,0-2.17.53v11.72h-2.35Z" fill="#202020"/><path d="M856.28,663.29a11.56,11.56,0,0,1,3.63-.48q4.27,0,4.27,3.88v10.62h-2.25v-1a3.93,3.93,0,0,1-2.9,1.1q-3.45,0-3.45-3.48v-.82a3.38,3.38,0,0,1,.73-2.27,4.6,4.6,0,0,1,2.32-1.31l3.28-.9v-1.92a1.64,1.64,0,0,0-.5-1.34,3.62,3.62,0,0,0-2.12-.41,8.76,8.76,0,0,0-3,.5Zm1.63,9.9v.75a1.71,1.71,0,0,0,.38,1.22,2.15,2.15,0,0,0,1.53.4,3.28,3.28,0,0,0,2.09-.77v-4.18l-2.38.65a2.55,2.55,0,0,0-1.3.69A2,2,0,0,0,857.91,673.19Z" fill="#202020"/><path d="M1606.79,577.17l7.25-1.88c1.27-2.5,2.47-5,3.57-7.62a11.85,11.85,0,0,1-5.13-2A120.09,120.09,0,0,1,1606.79,577.17Z" fill="#fff"/><path d="M1376.41,548.79a6.63,6.63,0,0,0,1.79-.78,6.9,6.9,0,0,0,1.08-.76l.08-.07a4.37,4.37,0,0,0,1.17-1.44c.15-.3.31-.62.47-1q-1-4.49-1.72-9.08c-.33.71-.65,1.42-1,2.14l-3,6.7c.31,1.44.65,2.86,1,4.28Z" fill="#fff"/><path d="M1622.82,514.6v0l.46-.94.84-1.87c2.64-6.48,2.48-10,1.45-11.13a2.79,2.79,0,0,0-1.27-.8,6.29,6.29,0,0,0-2-.27c-.31,0-.62,0-1,0a2.68,2.68,0,0,0-.33,0,122.19,122.19,0,0,1,1.29,15.88C1622.49,515.22,1622.66,514.92,1622.82,514.6Z" fill="#fff"/><path d="M1399.42,588.46l.08-1.66-.35-.52a38.15,38.15,0,0,1-3.61,3.49l-.45.36c1.28,1.83,2.6,3.64,4,5.41l.24-4.67Z" fill="#fff"/><path d="M1411.44,601.51c-1.7-1.79-3.34-3.64-4.93-5.53-.6.07-1.2.13-1.82.17l-4.87.36c1.43,1.83,2.93,3.61,4.46,5.36Z" fill="#fff"/><path d="M1568.35,618.89A122.15,122.15,0,0,1,1455,631.12q-6.4.28-12.37.46a127.5,127.5,0,0,0,137.87-14.85Q1574.36,617.87,1568.35,618.89Z" fill="#fff"/><path d="M1378.8,483.81h0a16.09,16.09,0,0,1,5.8-6.15,122.21,122.21,0,0,1,233.46,7.9c.18,0,.37-.06.56-.09l2.08-.25c1-.11,2-.18,2.92-.22a127.73,127.73,0,0,0-248.4,5.72c.38-.74.77-1.51,1.18-2.29C1377.17,487,1378,485.42,1378.8,483.81Z" fill="#fff"/><path d="M1422.9,382.05a8.58,8.58,0,0,0,4.27.94,37,37,0,0,0,5.46-.74,36,36,0,0,1,4.13-.65,6.41,6.41,0,0,1,2.88.39,3.78,3.78,0,0,1,2,2,4.43,4.43,0,0,1,.13,3.81,6.48,6.48,0,0,1-3.32,3.12,5.89,5.89,0,0,1-4.37.61,5.26,5.26,0,0,1-3.05-2.41l-5.18,2.54a8.31,8.31,0,0,0,3.54,3.79,9.73,9.73,0,0,0,5.19,1.13,14.69,14.69,0,0,0,5.86-1.58,12.69,12.69,0,0,0,4.86-3.88,9.65,9.65,0,0,0,2-4.93,9,9,0,0,0-.87-4.85,8,8,0,0,0-3.49-3.84,8.72,8.72,0,0,0-4.36-.95,40.77,40.77,0,0,0-5.56.72,36,36,0,0,1-4,.6,6.41,6.41,0,0,1-2.77-.35,3.4,3.4,0,0,1-1.92-1.83,4.11,4.11,0,0,1-.19-3.71,5.88,5.88,0,0,1,2.89-2.72,6.25,6.25,0,0,1,4.26-.65,4.3,4.3,0,0,1,2.87,2l5.36-2.62a8.82,8.82,0,0,0-5.92-4.4,12.29,12.29,0,0,0-8.08,1.29,14.55,14.55,0,0,0-4.82,3.61,9.26,9.26,0,0,0-2.14,4.68,8.82,8.82,0,0,0,.92,5.09A7.8,7.8,0,0,0,1422.9,382.05Z" fill="#fff"/><polygon points="1454.76 358.76 1462.13 386.26 1467.34 384.87 1459.97 357.36 1468.42 355.1 1467.28 350.84 1445.13 356.79 1446.26 361.04 1454.76 358.76" fill="#fff"/><path d="M1481,376.57a10.67,10.67,0,0,0,4.84,3.9,15.94,15.94,0,0,0,12.92-.72,10.92,10.92,0,0,0,4.45-4.41,12.59,12.59,0,0,0,1.37-6.9l-1.16-20.83-5.39.3,1.16,20.92a7.5,7.5,0,0,1-1.64,5.73,7.63,7.63,0,0,1-5.4,2.19,6.74,6.74,0,0,1-7.83-7.09l-1.17-20.93-5.37.3,1.14,20.83A13,13,0,0,0,1481,376.57Z" fill="#fff"/><path d="M1530.55,382.16a14.22,14.22,0,0,0,7-4.52,17.06,17.06,0,0,0,3.6-8.21,17.45,17.45,0,0,0-.62-9,14.46,14.46,0,0,0-5-6.72,20,20,0,0,0-8.73-3.55l-10.58-1.83-5.6,32.39,10.58,1.83A20.25,20.25,0,0,0,1530.55,382.16Zm-9.82-28.6,5.27.91q5.68,1,8.17,4.67t1.51,9.35q-1,5.58-4.53,8.14t-9.25,1.57l-5.27-.91Z" fill="#fff"/><rect x="1533.64" y="370.15" width="32.87" height="5.39" transform="matrix(0.33, -0.95, 0.95, 0.33, 693.58, 1717.52)" fill="#fff"/><path d="M1559.55,392.18a17.75,17.75,0,0,0,14.83,8.19,15.86,15.86,0,0,0,8.22-2.32,17.23,17.23,0,0,0,6.14-6.54,16.85,16.85,0,0,0,2.23-8.65,16,16,0,0,0-2.42-8.18,17.31,17.31,0,0,0-6.4-6,17,17,0,0,0-8.44-2.19,15.93,15.93,0,0,0-8.22,2.29,17.82,17.82,0,0,0-8.38,15.17A15.89,15.89,0,0,0,1559.55,392.18Zm4.63-14.22a13.59,13.59,0,0,1,4.34-4.89,10.17,10.17,0,0,1,5.55-1.75,12.25,12.25,0,0,1,10.18,5.62,10.11,10.11,0,0,1,1.46,5.61,13.47,13.47,0,0,1-1.82,6.3,13.69,13.69,0,0,1-4.36,4.91,10.43,10.43,0,0,1-5.56,1.8,11.52,11.52,0,0,1-5.81-1.51,11.37,11.37,0,0,1-4.37-4.12,10.4,10.4,0,0,1-1.45-5.66A13.78,13.78,0,0,1,1564.18,378Z" fill="#fff"/><path d="M1470.94,439.38a83.71,83.71,0,0,0-54.16,72.75,8.6,8.6,0,0,1,1-.06,8.8,8.8,0,0,1,1.62.15,80.92,80.92,0,0,1,51.84-70.17A18.41,18.41,0,0,1,1470.94,439.38Z" fill="#fff"/><path d="M1428.14,560c.47-.91.93-1.85,1.37-2.81-.52-.93-1-1.88-1.51-2.85-.23,1.36-.49,2.73-.77,4.09C1427.52,558.91,1427.82,559.44,1428.14,560Z" fill="#fff"/><path d="M1477.18,598c3-.2,5.94-.41,8.92-.63a80.78,80.78,0,0,1-45.28-24.67l-.82,1.16c-.23.34-.46.67-.7,1A83.54,83.54,0,0,0,1477.17,598Z" fill="#fff"/><path d="M1576.75,491.59a11.73,11.73,0,0,1,2.92.48,84,84,0,0,0-51.6-53.15,18.64,18.64,0,0,1-.26,2.68A81.07,81.07,0,0,1,1576.75,491.59Z" fill="#fff"/><path d="M1572.16,559.94a18.76,18.76,0,0,1-.74-1.77c-.17-.47-.33-.93-.47-1.38a81.08,81.08,0,0,1-41.9,36.44c3.07-.38,6.09-.77,9.07-1.19A84.26,84.26,0,0,0,1572.16,559.94Z" fill="#fff"/><path d="M1400,491.75a9.73,9.73,0,0,1,7.48-3.59h.22l-5.39-1.76C1401.52,488.27,1400.76,490,1400,491.75Z" fill="#fff"/><path d="M1588.56,500.12a53.15,53.15,0,0,1,6.55-5.77,44.19,44.19,0,0,1,14.63-7.05l.13,0a113.89,113.89,0,0,0-98.79-83c4.37,1.62,8.55,4.05,11.1,7.7,4.82,6.91,6.58,15.23,7,20.6A90.16,90.16,0,0,1,1588,498.82v0A11.51,11.51,0,0,1,1588.56,500.12Zm-49.76-67.89-1.13-.5,5-11.19,1.14.5Zm16.89,9.91-1-.73,7.21-9.91,1,.72Zm14.47,13.2-.83-.93,9.11-8.2.82.93Zm30.91,30.07-11.66,3.78L1589,488l11.66-3.78Zm-19.51-14.16-.62-1.07,10.62-6.13.62,1.07Z" fill="#fff"/><path d="M1543.62,622.78c-23.26,3.33-44.47,5.48-63.43,6.85a114.33,114.33,0,0,0,63.43-6.85Z" fill="#fff"/><path d="M1386.87,528.68c.06.8.15,1.61.25,2.41.41-1,.7-1.81.89-2.44Z" fill="#fff"/><path d="M1394.91,505.87a18.79,18.79,0,0,1,.19-3.37c-1.18,2.5-2.46,5.13-3.89,8-.61,1.24-1.27,2.54-2,3.91l-.17.35a.3.3,0,0,0,0,.08l1,0c2.59-.08,3.85-.14,6.41-.28.62,0,1.22-.05,1.78-.05h.72a9,9,0,0,1-3.77-5.78,11.83,11.83,0,0,1-.24-1.63l-.26,0,.14-1.23Z" fill="#fff"/><path d="M1411.38,489a7.4,7.4,0,0,1,2.92,2.14A90.22,90.22,0,0,1,1469.73,433c.32-5.35,2-14,7-21.08,2.45-3.52,6.44-5.91,10.66-7.53A113.91,113.91,0,0,0,1395,474c1.54-.27,3.18-.47,4.93-.6l8.17-.58-3.18,7.56q-1.08,2.58-2.07,4.9l8.44,2.74-.26.81C1411.12,488.87,1411.26,488.92,1411.38,489Zm46.24-68.44,5,11.19-1.12.5-5-11.19Zm-19.24,11,7.21,9.91-1,.73-7.2-9.92Zm-16.54,14.71,9.11,8.2-.83.93-9.11-8.2Zm-13.74,18.91.62-1.07,10.61,6.13-.62,1.07Z" fill="#fff"/><path d="M1411.18,546.38a5,5,0,0,0,.28-.9,30.45,30.45,0,0,0,.18-7.14V538c-.08-1.39-.17-2.65-.29-3.78l-1.93-2.63c-2.46,6.34-4.78,12.09-6.81,17l3.83-1.25,1.3-2.77.17,2.3,3-1,.22.68s0-.05,0-.08Z" fill="#fff"/><path d="M1402,550.09c-1.47,3.57-2.77,6.67-3.85,9.22-.69,1.6-1.34,3.14-2,4.59q.55,1.25,1.14,2.49c.78-1.39,1.52-2.85,2.24-4.38l6.16-13.12Z" fill="#fff"/><path d="M1404.86,578.88c.06-.21.13-.44.2-.71-.2.34-.4.69-.62,1,.08.13.16.24.23.36Z" fill="#fff"/><path d="M1462.16,598.91a89.7,89.7,0,0,1-26.72-19.15c-6,7-12.42,11.6-19.71,14.14q3.33,3.69,7,7.08l16.65-.82,5.22-7.2,1,.72-4.65,6.4C1447.91,599.72,1455,599.33,1462.16,598.91Z" fill="#fff"/><path d="M1410.4,514a9.3,9.3,0,0,1-4.7,2,9.68,9.68,0,0,1,2.16,1.5,13.74,13.74,0,0,1,2.51-2.56C1410.37,514.66,1410.39,514.35,1410.4,514Z" fill="#fff"/><path d="M1408.22,551.37l1.27-1.75a2.41,2.41,0,0,0-.86-.18l-.23,0a3.51,3.51,0,0,0,.58-.3,5.59,5.59,0,0,0,1.78-1.92l-2.77.9Z" fill="#fff"/><path d="M1575.8,584.84c6.79-1.61,13.28-3.21,19.46-4.75a111.26,111.26,0,0,0,7.49-13.26,42.9,42.9,0,0,1-10.27,2.55l-1.14.12.84.48-.62,1.06-2.49-1.44h-.3a20,20,0,0,1-9.47-2.16,15.9,15.9,0,0,1-3.12-2.16,90.49,90.49,0,0,1-22.47,24.29c5.53-1,10.81-2.05,15.77-3.23l4.86-1.15-5-4.52.83-.92Z" fill="#fff"/><path d="M1408.94,561.3l0,.49.09-.44Z" fill="#fff"/><path d="M1607.47,506.68c-.92.9-1.83,1.88-2.72,2.91-.36.42-.69.81-1,1.22a69.84,69.84,0,0,0-8.54,14c-.33.67-.61,1.33-.89,2l11.24,1.19-.13,1.23L1593.79,528a65,65,0,0,0-4.81,16.78,28.61,28.61,0,0,0-.26,5.35c.12,2,.56,3.49,1.24,4.13a3,3,0,0,0,1.52.28,10.67,10.67,0,0,0,1.09-.06c2.22-.25,4.76-1.53,7.56-3.81l-11.1-3.6.38-1.18,11.66,3.79-.09.27c.37-.32.75-.65,1.13-1a52.48,52.48,0,0,0,3.88-4.05,67.54,67.54,0,0,0,6.52-9.1q.57-3.51.91-7.08c.1-1,.18-2,.25-3q.28-4.07.29-8.2a114.62,114.62,0,0,0-1-15.15A27.71,27.71,0,0,0,1607.47,506.68Z" fill="#fff"/><path d="M1484.59,452.74a5.45,5.45,0,0,1-.81-.52,1,1,0,0,0-.88-.11,2.4,2.4,0,0,0,1.29.92C1484.32,452.93,1484.47,452.84,1484.59,452.74Z" fill="#fff"/><path d="M1484.83,462.05a3.13,3.13,0,0,1,.1.38,11.24,11.24,0,0,0,2.25,1.17A4.76,4.76,0,0,0,1484.83,462.05Z" fill="#fff"/><path d="M1504,469.34c-.76-.13-.82,2.41-.82,3.19l.06,0,.29.11a2.08,2.08,0,0,0,2-.19,7.89,7.89,0,0,1,0-1.2A2,2,0,0,0,1504,469.34Z" fill="#fff"/><path d="M1487.36,467.7c0,.16,0,.34-.07.52a2.86,2.86,0,0,0,.12,1.95,1.13,1.13,0,0,0,.66.39c.14-.66.46-2.31.08-2.64A.83.83,0,0,0,1487.36,467.7Z" fill="#fff"/><path d="M1496.23,442.88a24.71,24.71,0,0,0-1.52,3.31,23.66,23.66,0,0,1-.27,2.82c-.28,1.09.14,1.07.14,1.07l.13.15a4.77,4.77,0,0,0,1.42-3.53,4.48,4.48,0,0,1-1.14,3.85,8.36,8.36,0,0,1,1.41,2.39c.07-.19.14-.36.2-.51.2-1.5.33-4.57.39-4.91s-.19-1.56,0-1.71a7.93,7.93,0,0,0,.43-2.62,12.47,12.47,0,0,1,0-1.5A5.47,5.47,0,0,0,1496.23,442.88Z" fill="#fff"/><path d="M1502,445.83c.17.15-.09,1.3,0,1.71s.19,3.39.4,4.9l.2.51a8.92,8.92,0,0,1,1.4-2.39,4.52,4.52,0,0,1-1.14-3.85,4.77,4.77,0,0,0,1.42,3.54l.14-.15s.41,0,.13-1.07a23.6,23.6,0,0,1-.27-2.83,23.13,23.13,0,0,0-1.53-3.32,5.63,5.63,0,0,0-1.17-1.17,10.46,10.46,0,0,1,0,1.49A7.93,7.93,0,0,0,1502,445.83Z" fill="#fff"/><path d="M1485.42,452.17l-.81.1.21.32Z" fill="#fff"/><path d="M1505.92,469.82c-.26.33.06,1.51.31,2.28l.12,0a1,1,0,0,0,.7.1.53.53,0,0,0,.24-.24l.08-.2c-.11-.83-.35-2.44-.41-2.72S1506.31,469.31,1505.92,469.82Z" fill="#fff"/><path d="M1495.42,472.57l.27-.1.07,0c0-.78-.07-3.3-.82-3.18a2,2,0,0,0-1.58,1.85,6.93,6.93,0,0,1,.05,1.2A2.07,2.07,0,0,0,1495.42,472.57Z" fill="#fff"/><path d="M1496.81,469.08c-.46.32-.9,2.73-1,3.46l.15.1a3.1,3.1,0,0,0,2.53.44c1-.47.7-1.92.7-1.92a3.59,3.59,0,0,0-.55-1.13C1498.06,469.43,1497.36,468.7,1496.81,469.08Z" fill="#fff"/><path d="M1502.17,469.1c-.56-.38-1.25.36-1.81.95a3.29,3.29,0,0,0-.55,1.13,2.59,2.59,0,0,0,0,.52,1.44,1.44,0,0,0,.76,1.4,3.16,3.16,0,0,0,2.53-.45l.14-.1C1503.07,471.82,1502.63,469.42,1502.17,469.1Z" fill="#fff"/><polygon points="1490.29 471.74 1490.39 471.74 1490.29 471.72 1490.29 471.74" fill="#fff"/><path d="M1492,469.08c-.07.28-.29,1.9-.4,2.72l.07.2a.48.48,0,0,0,.25.24,1,1,0,0,0,.69-.1l.11-.06c.25-.76.58-1.94.32-2.27C1492.67,469.31,1492.1,468.71,1492,469.08Z" fill="#fff"/><path d="M1488.81,471v.13c0,.18.35.24.79.17l.2,0c.24-.77.69-2.42.19-2.71S1489.09,469.55,1488.81,471Z" fill="#fff"/><path d="M1491.13,471.62c.13-.79.42-2.74.14-2.81-.59-.14-.86,1.39-.89,2.34h.06l-.06.26c0,.15,0,.25,0,.34a3.48,3.48,0,0,0,.65-.09Z" fill="#fff"/><path d="M1497.32,447.34l-.32,3.92c.45-1.44,1.34-4.45,1.34-4.45l.25,1.11.14-.89.53-.36v-.1h0v-.21h0l0-3.71.2,2.71.2-2.74,0,3.72h0l0,.21v.07h-.1v0l.52.38.15.88.24-1.11s.9,3,1.34,4.46l-.32-3.93.08-1.44s-.86-2.83-.42-4.39a4,4,0,0,0-1.92-.84,4.6,4.6,0,0,0-1.7.82c.43,1.56-.42,4.39-.42,4.39Z" fill="#fff"/><path d="M1509,468.55c-.49.28,0,1.94.2,2.7l.2,0c.43.07.74,0,.79-.18V471C1509.89,469.56,1509.64,468.19,1509,468.55Z" fill="#fff"/><polygon points="1508.69 471.73 1508.58 471.75 1508.7 471.75 1508.69 471.73" fill="#fff"/><path d="M1511.61,467.7a.83.83,0,0,0-.79.22c-.38.33-.06,2,.09,2.64a1.21,1.21,0,0,0,.66-.38,2.89,2.89,0,0,0,.11-2C1511.65,468,1511.63,467.86,1511.61,467.7Z" fill="#fff"/><path d="M1507.7,468.82c-.27.06,0,2,.14,2.81l.11,0a3.67,3.67,0,0,0,.63.1,1.58,1.58,0,0,0,0-.34l-.08-.27.07,0C1508.57,470.21,1508.3,468.68,1507.7,468.82Z" fill="#fff"/><path d="M1497.14,406.05c-4.32.78-13.35,3-17,8.27-.21.31-.42.63-.62.95s-.41.65-.6,1l-.39.67c-.14.27-.28.53-.41.8s-.31.59-.44.87-.13.27-.19.4c-.14.3-.27.6-.4.89a41,41,0,0,0-1.62,4.56c-.1.37-.21.74-.3,1.11s-.16.61-.22.91a1,1,0,0,0-.05.18c-.08.36-.16.72-.23,1.07a38.92,38.92,0,0,0-.62,3.9,26.09,26.09,0,0,0-.19,2.95h0v.21a1.48,1.48,0,0,0,0,.21c0,.13,0,.26,0,.37a13.8,13.8,0,0,0,.19,2,23.55,23.55,0,0,0,.7,3.09c.71.78,1.26-1.26,1.07-2.21a4.14,4.14,0,0,1,0-1.44l.36-.11a4.84,4.84,0,0,0,.41,1.54c.36-.16.74-1.16,1-1.94l.24-.07a7.18,7.18,0,0,1-.55,2.31,8,8,0,0,0-.69,4.39,3.45,3.45,0,0,0,.21.81l.79-1.12,0-.06s0,0,0,.05a19.84,19.84,0,0,1-1.29,4.82,8,8,0,0,1-.26,1.49,7.24,7.24,0,0,1-1.12,2.34,5.85,5.85,0,0,1-.59.71,2.07,2.07,0,0,0-.56,1,3.83,3.83,0,0,0,1,3c.46.52.92,1,1.37,1.45a24.64,24.64,0,0,0,2.77,2.47c.16-.18.36-.42.59-.66a18.67,18.67,0,0,1-4-3.73,7.09,7.09,0,0,1-.65-.95,1.34,1.34,0,0,0-.06-.12c-.37-.84.25-2.1.77-2.93a7.49,7.49,0,0,1,.6-.87c0,.08-.14.48-.32,1s-.3.89-.48,1.33c-.47,1.25.77,2.36,1.14,2.68s-.23-1.12-.28-1.26l2.88,3.19-1.48-.88c-.85-.36,1.12,1.42,1.55,1.68a1.09,1.09,0,0,0,.53.1,4.32,4.32,0,0,0,.68-.07,6.72,6.72,0,0,0,.6-1c.19-.35.38-.73.55-1.13l.32-.71c.29-.69.51-1.24.56-1.31a12.89,12.89,0,0,1,1.16-.87,3.4,3.4,0,0,1-2.08-1.5c-.25-.33-.26.47-.26.47a13.88,13.88,0,0,1-.62-1.4c-.22-.58-.46-1.27-.69-2.07,0-.07,0-.15-.06-.21-.09-.31-.18-.63-.26-1-.16-.62-.31-1.3-.45-2a8.13,8.13,0,0,1,.11-3.62h0a5.69,5.69,0,0,1,.87-1.84h0s.73-1.47,7.07-.83c0,0-4.44.13-5.79,1.11a6.48,6.48,0,0,0,.89,0c.92,0,3.61-.33,3.61-.33l-.65.46-.61.44a55.31,55.31,0,0,1,7.49.57l.18.06a3,3,0,0,1,1.28,1.39,12.29,12.29,0,0,1,.83,1.86c0,.09.07.18.09.27s0,.1,0,.14a1.54,1.54,0,0,1,0,.17,1.82,1.82,0,0,1,.07-.25,0,0,0,0,1,0,0,2.29,2.29,0,0,1,.08-.28.09.09,0,0,0,0-.05,11,11,0,0,0-1-3.19c-.22-.46-.43-.87-.59-1.18h0l-.16-.3c-.09-.17-.16-.28-.17-.32l.22.21,0,0a11.17,11.17,0,0,1,2.08,3.9,6.34,6.34,0,0,1,.27-.62,13.58,13.58,0,0,1,1.62-2.29c.11-.13-.4-1.11-.47-1.24l.83,1.06,0,0,1.67-.77.42-.2v0l.41.19,1.67.77,0,0,.83-1.05c-.07.13-.58,1.1-.47,1.24a13.09,13.09,0,0,1,1.63,2.29c.08.17.17.39.27.62a13.81,13.81,0,0,1,.61-1.61,7.83,7.83,0,0,1,1.47-2.3v0l.23-.21-.18.32-.15.27h0a15,15,0,0,0-1.63,4.3.69.69,0,0,0,0,.13,1.66,1.66,0,0,1,.06.21l0,.08c0,.09,0,.18.07.28,0-.05,0-.11.05-.16l.09-.28c0-.08,0-.15.09-.24a13.41,13.41,0,0,1,.77-1.75,3,3,0,0,1,1.29-1.4l.19-.06a54,54,0,0,1,7.48-.58l-1.07-.77-.19-.13s2.69.32,3.61.33a6.64,6.64,0,0,0,.89,0c-1.34-1-5.79-1.1-5.79-1.1,6.33-.65,7.06.82,7.06.82h0a5.73,5.73,0,0,1,.74,1.46,7.74,7.74,0,0,1,.23,4c-.11.59-.23,1.15-.35,1.67s-.22.89-.34,1.3h0a22.57,22.57,0,0,1-.74,2.27,15.22,15.22,0,0,1-.61,1.42s0-.8-.26-.47a3.48,3.48,0,0,1-2.09,1.5c.61.44,1.12.81,1.17.88s.26.61.56,1.31c.1.22.21.46.31.71s.28.6.43.88a5.72,5.72,0,0,0,.73,1.21,2,2,0,0,0,1.21,0l.1-.07c.57-.42,2.24-1.95,1.45-1.62l-1.14.68-.35.21.44-.49h0l2.44-2.7c-.06.14-.65,1.55-.28,1.25s1.61-1.43,1.13-2.67c-.18-.45-.35-.93-.48-1.34s-.31-.91-.33-1a7.89,7.89,0,0,1,.61.86c.52.83,1.14,2.09.77,2.93a2.71,2.71,0,0,1-.27.47,1.67,1.67,0,0,1-.13.2,19.19,19.19,0,0,1-4.16,4.06h0l-.12.08.07.07a7.67,7.67,0,0,1,.52.58,24.44,24.44,0,0,0,2.76-2.46c.45-.45.91-.94,1.37-1.46a3.79,3.79,0,0,0,1-3,2.07,2.07,0,0,0-.57-1.08,5.21,5.21,0,0,1-.6-.72,7.22,7.22,0,0,1-1.23-2.81,8.35,8.35,0,0,1-.15-1,20.38,20.38,0,0,1-1.3-4.86l.84,1.17a4.41,4.41,0,0,0,.25-1.19,8.3,8.3,0,0,0-.74-4,7.94,7.94,0,0,1-.58-2.66l.14,0c.24.79.69,2.14,1.11,2.33a5,5,0,0,0,.45-1.91l.25.07a5.31,5.31,0,0,1,.12,1.84c-.21,1,.36,3,1.07,2.21A24.4,24.4,0,0,0,1525,437a14.73,14.73,0,0,0,.13-1.62c0-.36,0-.76,0-1.19,0-.86-.1-1.85-.23-3-.11-.92-.27-1.92-.48-3-.05-.28-.11-.57-.18-.86s-.12-.6-.2-.9a1.2,1.2,0,0,0-.06-.24.17.17,0,0,0,0-.07c-.06-.24-.12-.47-.19-.71,0,0,0-.05,0-.06-.09-.34-.18-.68-.29-1,0-.15-.08-.3-.13-.45s-.15-.49-.24-.74-.17-.52-.27-.79a.88.88,0,0,0,0-.15c-.1-.28-.21-.57-.31-.86s-.16-.42-.25-.63a.67.67,0,0,0-.07-.18c-.11-.27-.22-.55-.35-.82s-.32-.73-.5-1.1c0,0,0-.05,0-.08-.17-.33-.34-.67-.52-1a.06.06,0,0,0,0,0c-.18-.35-.38-.71-.58-1.05s-.28-.5-.44-.74l-.26-.43c-.2-.32-.41-.64-.63-.95-3.7-5.29-12.66-7.48-17-8.26A13,13,0,0,0,1497.14,406.05Zm4.83,27.27a4.57,4.57,0,0,0-1.24,1.72,11.22,11.22,0,0,1,.77-1.78h.52S1502,433.29,1502,433.32Zm-.75-.07a4.75,4.75,0,0,0-.71.68c.06-.11.19-.37.39-.68Zm-2.8.67a6.09,6.09,0,0,0-.67-.65h.29A5.31,5.31,0,0,1,1498.42,433.92Zm-.23,1.11a4.55,4.55,0,0,0-1.23-1.72,3.24,3.24,0,0,1,.44,0h0a.09.09,0,0,0,0,.06A10.45,10.45,0,0,1,1498.19,435Zm-20,17.1h0l-.13,0a.32.32,0,0,1-.34-.3.3.3,0,0,1,.18-.26.4.4,0,0,1,.15,0,.33.33,0,0,1,.35.29A.3.3,0,0,1,1478.18,452.13Zm.89,1.29a.51.51,0,0,1,.52.51.53.53,0,0,1-.51.52.52.52,0,0,1-.52-.51.51.51,0,0,1,.35-.49A.29.29,0,0,1,1479.07,453.42Zm-.54-13.9a6.2,6.2,0,0,1,4-3,2.92,2.92,0,0,0-1.17.74,5.72,5.72,0,0,1,3.09-.19A14.08,14.08,0,0,0,1478.53,439.52Zm17.19-1.8c-.88-.68-1.62-1.23-1.72-1.28a11.25,11.25,0,0,1-1-.6l.36.6-2.13-.86,1.51,0-2.09-1.15a6.93,6.93,0,0,0-1.31-.48c.53-.07,1.06-.14,1.6-.19a29.06,29.06,0,0,1,4.17,2.16l1.42-.76-.82,1,.78,1h0l-.85-.21.54.45.11.09.28.23Zm24.15,16.71a.44.44,0,0,1-.32-.12.5.5,0,0,1-.19-.4.51.51,0,0,1,.52-.51.86.86,0,0,1,.17,0,.53.53,0,0,1,.34.49A.51.51,0,0,1,1519.87,454.43Zm-5.4-17.34a5.66,5.66,0,0,1,3.08.19,3,3,0,0,0-1.16-.74,6.24,6.24,0,0,1,4,3A14.42,14.42,0,0,0,1514.47,437.09Zm6.77,14.77a.3.3,0,0,1-.34.28l-.12,0a.31.31,0,0,1-.21-.27.32.32,0,0,1,.34-.3.3.3,0,0,1,.16.05A.28.28,0,0,1,1521.24,451.86Zm-13-17.45-2.08,1.17h1.5l-2.13.87.36-.61a10.87,10.87,0,0,1-1,.6c-.11,0-.83.6-1.7,1.27h-.83l.26-.22.1-.08.55-.45-.86.21h0v0l.78-1-.82-1,1.42.77a27.11,27.11,0,0,1,4.51-2.29c.57.05,1.15.12,1.71.2A7.71,7.71,0,0,0,1508.28,434.41Z" fill="#fff"/><path d="M1514,462.43c0-.1.06-.23.11-.39a4.84,4.84,0,0,0-2.35,1.56A11.09,11.09,0,0,0,1514,462.43Z" fill="#fff"/><path d="M1515.43,460.81a3.06,3.06,0,0,1,1.78.27c.41.18,1.07,0,1.91-.53.19-.11.37-.23.57-.37l-.32-.37-.26-.32a3.51,3.51,0,0,1-2.63.68s1.9-.63,1.92-1.5a12,12,0,0,1-.94-1.38c-.13-.25-.27-.51-.38-.78l-.06-.15c0-.13-.1-.26-.16-.38a5.57,5.57,0,0,0-1.64-2.17,2.5,2.5,0,0,0-.26-.18l-.08-.05a7.41,7.41,0,0,1-1,.19,15.51,15.51,0,0,1-2.08.13c-.52,0-1.08,0-1.69-.06,0,0,.77,0,1.77-.17a15.94,15.94,0,0,0,1.82-.33,6,6,0,0,0,.64-.18,3.83,3.83,0,0,1-.29-.28l-.22.12.13-.2-.26-.27-.34-.38-.73-.08h-.15c-.41,0-1.3,0-2,0h-1l.83.35,1,.43-1.14-.22h0l-2.16-.4-.3-.06-.62-.12.64-.29-.16-.09c-.15-.1-.4-.24-.67-.4s-.57-.33-.85-.51l-.56-.34c-.34,0-.74-.06-.89.1l-.07.06a7.13,7.13,0,0,0,.63.56,11.25,11.25,0,0,0,1.3.9,5.75,5.75,0,0,1-1.75-.82,4.52,4.52,0,0,1-.46-.34c-.13.14-.28.32-.45.52h0a5,5,0,0,0-1,1.82l0,.17c.19.52.38,1,.44,1.26.11.48,1.36,2.93.69,4.43l-.3.71,0,.06h0l.54-.15s-.19.14-.5.33a5.18,5.18,0,0,1-2.38.83,1.09,1.09,0,0,1-1-.56,3,3,0,0,1-.37-2.65l.16.1,1,.67-.3-2.11-.45.66-.3-1.83-.37-2.28-.11-.62,0-.18,0,.19-.29,1.86-.15.89-.32,2-.45-.67-.3,2.1,1-.69.13-.09a3.07,3.07,0,0,1-.36,2.66,1.12,1.12,0,0,1-1,.55h0a5.11,5.11,0,0,1-2.28-.8c-.27-.16-.45-.29-.52-.32l0,0h0l.57.14-.32-.76c-.67-1.5.58-3.95.68-4.44.06-.22.25-.73.44-1.25l0-.18a5.18,5.18,0,0,0-1.06-1.82l-.46-.53a3.5,3.5,0,0,1-.46.35,5.75,5.75,0,0,1-1.75.82,12.19,12.19,0,0,0,1.3-.9c.23-.18.44-.38.63-.56,0,0-.05,0-.07-.06s-.55-.15-.89-.1l-.56.35-.79.48-.69.39-.21.12.65.29-.11,0-.81.16-2.16.41-1.15.22,1-.44.82-.35h-1c-.72,0-1.61,0-2,0h-.16l-.73.08c-.15.17-.36.4-.6.65l.14.2-.23-.11-.1.1h0c0,.06-.11.11-.16.16l.3.09.09,0a13.59,13.59,0,0,0,2.1.4c1,.13,1.75.17,1.75.17-.6,0-1.16.06-1.66.06a16.07,16.07,0,0,1-1.81-.09l-.19,0a7.45,7.45,0,0,1-1.08-.2l-.07.05a5.29,5.29,0,0,0-1.9,2.35,2.59,2.59,0,0,0-.17.38.94.94,0,0,1-.06.15,6.71,6.71,0,0,1-.51,1,10.57,10.57,0,0,1-.8,1.17c0,.87,1.93,1.49,1.93,1.49a3.29,3.29,0,0,1-2.51-.6l-.12-.07-.59.69a9.24,9.24,0,0,0,1,.62,1.94,1.94,0,0,0,1.47.28,3,3,0,0,1,1.78-.27,1.92,1.92,0,0,0-.41-1.48l1.47.65a30.43,30.43,0,0,1,3.33,1.68h-.67a12.85,12.85,0,0,1,.92,1.88l.06.18h0a4,4,0,0,1,.19.78,1,1,0,0,1,0,.16l-.13-.11-.43-.35-.22-.18-.13.31a5.27,5.27,0,0,0-.25.7.2.2,0,0,0,0,.07,3.57,3.57,0,0,0-.17,1.11,1,1,0,0,0,.37.43.45.45,0,0,0,.5.05c.4-.22.47-.83.48-1.1v-.13l0,.1c0,.07,0,.16.06.27a4.15,4.15,0,0,0,.44,1,.81.81,0,0,0,.27.28.31.31,0,0,0,.18.07.24.24,0,0,0,.2-.05.68.68,0,0,0,.24-.3,4.82,4.82,0,0,0,.27-1.45,6.64,6.64,0,0,0,.55,1.87,1.3,1.3,0,0,0,.21.31h0l0,0a.92.92,0,0,0,.26.22h.37v-2.44a.82.82,0,0,0,0,.1,7,7,0,0,0,.15.85c.13.54.33,1.13.64,1.28,0,0,0,0,.09,0a2,2,0,0,1,.32.17,12.7,12.7,0,0,1,1.09.69l0,0,.19.12v0l-.23-1.63,0-.34,0-.41-.07-.91,0-.23,0-.09-.6-1.2.63.27,1.41-2.21-1.06,2.72.14.63v0l.1.53.06.27-.29.1s.24,2.27,1.45,2.46a.71.71,0,0,0,.25,0c1.23-.09.33-1.09.06-1.36l-.07-.08,0-.68,0-.47.07-1.09v0l.1-1.51.18,1.47.2,1.66.62,1.11.32.58,1.55.54s.15-.55.24-1.12a3,3,0,0,0,0-1.1c0-.17-.13-.44-.23-.73l-.28-.82c-.1-.3-.2-.54-.24-.65l.44.73.33.56.42.7.38-.68.34-.58.41-.71-.25.65c-.09.24-.2.52-.29.78s-.19.6-.24.77a3.13,3.13,0,0,0,.06,1.11,11.32,11.32,0,0,0,.24,1.11l1.53-.54.34-.61.6-1.09.2-1.55V465l.11-.9.07-.56,0,.31.08,1.22v.07l.08,1.26,0,.22,0,.69-.09.09c-.28.3-1.11,1.25.08,1.34a1.06,1.06,0,0,0,.26,0c1.2-.19,1.45-2.46,1.45-2.46l-.31-.09.06-.28.11-.52v0l.13-.64-1-2.71,1.41,2.2.63-.27-.6,1.22,0,.07,0,.21v0l-.08.91,0,.39,0,.37-.22,1.64s.69-.48,1.27-.8a2.11,2.11,0,0,1,.32-.18l.13-.07c.3-.13.51-.71.65-1.24a9.59,9.59,0,0,0,.19-1v1.12l0,1.32h.3a1,1,0,0,0,.28-.23h0a.25.25,0,0,1,0-.07,1.78,1.78,0,0,0,.17-.27,6.52,6.52,0,0,0,.53-1.85,5.12,5.12,0,0,0,.29,1.45.75.75,0,0,0,.18.26h0a.27.27,0,0,0,.25.09.4.4,0,0,0,.21-.09.89.89,0,0,0,.25-.26,4.16,4.16,0,0,0,.4-.95c0-.14.07-.27.08-.35l0-.11v.14c0,.27.08.87.48,1.09a.47.47,0,0,0,.51-.05,1.18,1.18,0,0,0,.36-.43,2.86,2.86,0,0,0-.13-.93.58.58,0,0,0,0-.18.64.64,0,0,1,0-.07h0v0c-.07-.22-.15-.45-.24-.66l-.12-.31-.23.18-.44.38-.12.09s0-.09,0-.13a4.54,4.54,0,0,1,.2-.83,1.27,1.27,0,0,1,.06-.18,12.24,12.24,0,0,1,.91-1.88h-.66a31.73,31.73,0,0,1,3.32-1.69l1.47-.65A1.93,1.93,0,0,0,1515.43,460.81Zm-27-1.61h0l-.36-.5.48.23.35-.45.47,1.45.32,1.05Zm5.12-3.58-.32.5a3.86,3.86,0,0,0-.51,1.16,14.51,14.51,0,0,0,.39,2.85,4.69,4.69,0,0,1-.17,1.57l-.25,1.8-.19-1.7.28-1.32a13.89,13.89,0,0,0-.62-3.1c-.33-.43-1.6-.69-1.68-.1a12.31,12.31,0,0,0,.2,2.24l-1.29-2.29-2.2.86-1.57-.63h-.47l.27-.23,0,0,.24,0,1.56.26s2.87-1.84,4.78-1.95l.82-.44.47-.26.42-.22.18.44S1493.73,455.31,1493.53,455.62Zm17,3.56h0L1509.3,461l.33-1.07.45-1.43.35.45.48-.24Zm2.81-1.72h0l-1.57.63-2.2-.85-1.28,2.28a12.4,12.4,0,0,0,.19-2.23c-.09-.6-1.36-.34-1.69.1a14.44,14.44,0,0,0-.61,3.11l.29,1.31-.2,1.7-.25-1.79a4.54,4.54,0,0,1-.16-1.57,15.53,15.53,0,0,0,.38-2.85,3.41,3.41,0,0,0-.48-1.08,3.77,3.77,0,0,0-.28-.48c-.23-.36-.43-.64-.43-.64l.17-.44.52.27.41.22.78.43c1.92.11,4.79,1.94,4.79,1.94l1.55-.26.24-.05h0l.07.06.22.2Z" fill="#fff"/><path d="M1514.34,452.27l-.81-.1.6.42Z" fill="#fff"/><path d="M1492.25,450.34c.17,0,.71-.09,1.1-.14a5.12,5.12,0,0,0,1.14-3.48,2,2,0,0,1,0-.42C1493.84,447.34,1492,450.34,1492.25,450.34Z" fill="#fff"/><path d="M1505.59,450.2a10.24,10.24,0,0,0,1.11.15c.24,0-1.6-3-2.25-4a1.89,1.89,0,0,1,0,.41A5.06,5.06,0,0,0,1505.59,450.2Z" fill="#fff"/><path d="M1516.05,452.11a1,1,0,0,0-.88.11,5.11,5.11,0,0,1-.82.52l.41.28A2.39,2.39,0,0,0,1516.05,452.11Z" fill="#fff"/><path d="M1266.41,605.11c7.15,5.07,15.4,6.09,24.49,2.79,29.29-10.6,44.3-42.6,52.23-70.72a99.09,99.09,0,0,0,3.55-17.7,47.39,47.39,0,0,0,6.55-18.37c.86-6.3.35-11.78-1.46-16.35-3-7.39-9.73-10.71-19.9-9.47-9.83,1.21-19.53,6-29.41,14C1288.64,499.83,1275,516,1266.82,531c-7.42,13.5-12.58,33.09-12.3,48.64C1254.72,590.72,1258.72,599.65,1266.41,605.11ZM1282.84,531c9.32-16.27,21.81-32.12,38.12-42.41q13.59-7.43,21.81-2c5.87,3.87,7.41,11.47,4.41,22.6,0,0,0-.07,0-.07s-.06.26-.17.67c-.41-9.52-1.94-16.13-4.54-19.74-3.39-4.73-8.74-4.73-15.9.14-1.64,1.06-3,3.17-4.09,6.32.85-1.57,2.46-2.44,4.82-2.53,2.68-.1,4.37,1.46,5,4.61a86.76,86.76,0,0,1-.12,31.64c-4.81,2.55-9.16,3-13.08,1.43s-5.57-4.64-4.93-9c2.12,1.78,4.32,2.15,6.55,1.06a10.86,10.86,0,0,0,4.81-5.38,13.64,13.64,0,0,0,1.51-7.38c-.29-2.6-1.51-4.32-3.55-5.08q-5.85-2.24-11,3a23.37,23.37,0,0,0-6.14,12.34c-1,5.25-.36,9.46,1.93,12.58,2.69,3.65,7.14,4.9,13.3,3.72a35.49,35.49,0,0,0,9.88-3.48,139.45,139.45,0,0,1-7.78,24.51c-6.46,16.78-17.25,38.62-35.33,44.06-5.83,1.75-10.86,0-14.15-4.62-2.93-4.12-4.32-10.46-4.49-18.46C1269.44,563.89,1275.19,544.37,1282.84,531Z" fill="#fff"/><path d="M1341.6,557.53l0,0a.76.76,0,0,0,.06-.16Z" fill="#fff"/><path d="M1349.5,552.91c-1.75,1-3.22,1.37-4.38,1a8.76,8.76,0,0,0,6.21,2.49c-4.14,9.82-6.42,15.65-6.95,17.36a.55.55,0,0,0-.07.09c-5.34,15.84-3.68,22.77,5.25,21.2,4.28-.75,9.15-3.84,14.74-9,.34-.33.69-.64,1-1a24,24,0,0,1,.49-5.8,19,19,0,0,1-6.49,4.81c-2,.78-3.2.14-3.48-1.94s.44-5.64,2.25-10.24q4.1-9.95,8.37-19.83l-4.54-5.8,6.52,1.27c1.73-3.95,3.49-7.87,5.27-11.79q2.22-4.9,4.51-9.8,3.13-6.72,6.35-13.4,1.13-2.23,2.12-4.24c5.35-10.84,8.37-17.6,13.54-29.9a38.76,38.76,0,0,0-7.43,1.19c-4.54,1.23-7.87,3.38-9.54,6.6v-.08c-.83,1.6-1.62,3.14-2.37,4.6-3.56,7-6.25,12.36-8,16.15-.16.32-.3.62-.44.93-9.64,21.29-14.84,34.54-16.57,38.13A15.86,15.86,0,0,1,1349.5,552.91Z" fill="#fff"/><path d="M1410.87,489.19l.12-.37a9.48,9.48,0,0,0-3.28-.65Z" fill="#fff"/><path d="M1381.56,547.15a1,1,0,0,0,0,.18l0-.23Z" fill="#fff"/><path d="M1400,506.4a9.09,9.09,0,0,0,.18,1.26,3.78,3.78,0,0,0,2.21,3c3.78,1.45,6.53-.74,8.48-6.49a14.7,14.7,0,0,0,.75-6.83c-.3-2-1-3.23-2.17-3.71-3.28-1.39-6.13.67-8.41,6.22a14.16,14.16,0,0,0-1.07,6Z" fill="#fff"/><path d="M1376.37,565.15c-1,2.13-2,4.49-3.07,7.1a46.1,46.1,0,0,0-2.23,6.58,16.75,16.75,0,0,0-.41,8,6.64,6.64,0,0,0,2.16,3.56,7.85,7.85,0,0,0,5.17,1.71,13.7,13.7,0,0,0,5.49-1,31.55,31.55,0,0,0,8.82-5.24,35.14,35.14,0,0,0,4-4,45,45,0,0,0,5.16-7.6,61.23,61.23,0,0,0,2.92-6.08c-.11-1.64-.16-2.46-.28-4.09a68.92,68.92,0,0,1-4.1,7.54,46.5,46.5,0,0,1-5.5,7.22c-.51.54-1,1.05-1.54,1.54a18,18,0,0,1-2.71,2.15c-1.94,1.2-3.44,1.25-4.42.17-1.18-1.29-1.09-3.91.24-7.8.32-.94.71-2,1.18-3.07s1-2.44,1.64-3.81c1.32-3.1,2.86-6.68,4.59-10.74,3.27-7.73,7.2-17.21,11.59-28.51.09-.24.18-.47.26-.7a12.42,12.42,0,0,0,.39-1.29,8.8,8.8,0,0,0,.26-2s0,0,0,0a5.52,5.52,0,0,0,0-.71,4.49,4.49,0,0,0-1.26-2.68c-1.44-1.46-4-2-7.88-1.83-2.54.14-3.85.2-6.55.28-.71,1.49-1.06,2.24-1.78,3.73,3.24-.07,4.82.83,5,2.74.15,1.54-.64,4.41-2.5,8.53-.88,2-1.66,3.81-2.38,5.39-1.63,3.65-2.83,6.19-3.52,7.64a9.23,9.23,0,0,1-2.47,3.12c-.22.19-.45.37-.68.54a10.07,10.07,0,0,1-1.13.75,11.16,11.16,0,0,1-3.17,1.35.19.19,0,0,1,0-.07l-.06.09a7.9,7.9,0,0,1-3.35.08,7.17,7.17,0,0,0,2.14,1.87,7.87,7.87,0,0,0,2.17.89,12.35,12.35,0,0,0,2,.33c-.38.67-.77,1.39-1.18,2.17Q1377.95,561.67,1376.37,565.15Z" fill="#fff"/><path d="M1411.25,547.08l-.16-.5a6.77,6.77,0,0,1-.33.66Z" fill="#fff"/><path d="M1399.82,596.51c-.26-.32-.51-.65-.76-1l0,1Z" fill="#fff"/><path d="M1442,536.5l8.49,3.4a86.83,86.83,0,0,0,2.85-14.31c.59-5.4.24-9.14-1.1-11.09-1.1-1.61-3.11-2.2-6-1.71l-6.17,1.11c-.48,1.56-.71,2.34-1.19,3.9,2.15-.39,3.59,0,4.29,1.07.6.93.87,2.59.77,5A66.59,66.59,0,0,1,1442,536.5Z" fill="#fff"/><path d="M1432,576c1.32-1.57,2.6-3.25,3.86-5h0c.51-.72,1-1.47,1.51-2.23s.9-1.4,1.36-2.12a101.11,101.11,0,0,0,8.53-17.07,12.35,12.35,0,0,1-1.18-1.31l-5.37-6.85c-.36,1.26-.75,2.56-1.17,3.89a10,10,0,0,1-3.9,4.75,3.39,3.39,0,0,1-2.85.52,6,6,0,0,0,4,2.46q-2,4.92-4.17,9.25c-.46.88-.92,1.75-1.38,2.6-1.12,2-2.3,3.95-3.53,5.76-.3.45-.61.89-.92,1.33-4.11,5.75-8.3,9.55-12.66,11.34a139.58,139.58,0,0,0,7.38-22.35c.81-3.42,1.45-6.8,2-10.12.26-1.81.48-3.59.66-5.36q.34-3.37.47-6.67a54.08,54.08,0,0,0-1-14.57c-.9-3.72-2.26-6-4-6.74a.94.94,0,0,0-.28-.1,4.36,4.36,0,0,0-2.63-.1,7.81,7.81,0,0,0-2.56,1.24c-1.75,1.25-2.76,2.59-3,4a6.81,6.81,0,0,0-.11,1.37v0c0,.17,0,.34,0,.53v.06a3.28,3.28,0,0,0,.55,1.5c.1-1.34.6-1.82,1.45-1.45a4.63,4.63,0,0,1,2.15,2.91,40.09,40.09,0,0,1,1.51,10.29,35.76,35.76,0,0,1-.26,8.75,9,9,0,0,1-.6,1.93,10.9,10.9,0,0,1-4.2,5.06,5.51,5.51,0,0,1-3.15,1,2.46,2.46,0,0,1-.9-.2,8.82,8.82,0,0,0,1,1,7.15,7.15,0,0,0,6.54,1.62q-.87,4.9-2.08,10.32c-.12.52-.23,1-.35,1.55a.24.24,0,0,0,0,.08c-1.23,5.35-2.24,9.19-2.89,11.46a35.72,35.72,0,0,1-1.5,4.4,10.08,10.08,0,0,1-.66,1.28,6.36,6.36,0,0,1-3.1,2.78c0,1-.07,1.45-.12,2.41a39.14,39.14,0,0,0,7.84-1.36C1419.85,587.55,1426.25,582.88,1432,576Z" fill="#fff"/><path d="M1501.66,526.69a30.68,30.68,0,0,1-5.17,8.1l7.19,1.32c4-6.33,5.64-12.12,5.15-17.06s-2.93-8.31-7.64-10.13a22.6,22.6,0,0,0-9.07-1,31.82,31.82,0,0,0-12.3,3.13c-10,4.83-16.8,13.85-21.76,26.48-.28.71-.57,1.48-.87,2.33a14.45,14.45,0,0,1-2.4,3.39,7.67,7.67,0,0,1-1.86,1.42,3.47,3.47,0,0,1-2.87.46,6.59,6.59,0,0,0,3.34,2.38,6.79,6.79,0,0,0,1.44.27c-2.42,10.57-2,19.16,1.32,25.82a14.9,14.9,0,0,0,5.78,6.38,12.28,12.28,0,0,0,7.88,1.5c6.39-.79,14-4.83,23.29-11.9q2.31-1.76,4.36-3.65h0a51.45,51.45,0,0,1,2.5-7.73c.18-.47.37-.94.55-1.4A81.57,81.57,0,0,1,1487,568.14c-4.84,3.26-9,5.4-12.52,6.37-3.89,1.06-6.88.69-9.14-1.24-3.77-3.23-4.26-10.15-1.59-20.79,5.16,1.76,11,1.57,17.81-.33s13.11-5.13,17.88-10.32l-4.24-5.6a43.13,43.13,0,0,1-9.2,7c-8.21,4.81-15.12,6.81-21.27,5.75,3.46-11.49,8.13-20.74,14.56-27.54,4.87-5.14,10-8.07,15-8.91,4.16-.7,7-.13,8.62,1.86.72.9,1,2.46.87,4.63A22.89,22.89,0,0,1,1501.66,526.69Z" fill="#fff"/><path d="M1534.58,513.76c1.34-3.48,1.2-5.93-.4-7.36s-4-1.61-7.77-1c-2.44.42-3.67.62-6.18,1l-1.65,3.92c3-.4,4.49.34,4.67,2.22.14,1.53-.61,4.48-2.35,8.8s-3,7.76-4,10.23c-.59,1.45-1,2.58-1.39,3.39a11.55,11.55,0,0,1-3.83,4.81,7.73,7.73,0,0,1-6.14,1.8l.3.35h0a6.71,6.71,0,0,0,4.46,2.34,8.08,8.08,0,0,0,1.11.06c-1.42,2.91-3.1,6.76-5.05,11.52q-.81,2-1.68,4.2a43.7,43.7,0,0,0-2.54,8.42q-1.23,6.93,2.07,9.75a6.68,6.68,0,0,0,4.9,1.55,10.83,10.83,0,0,0,5-1.42,34.79,34.79,0,0,0,9.09-7.17,24.85,24.85,0,0,1,.13-5l-.5.56c-3.09,3.44-5.33,4.44-6.6,3s-.88-5.15,1.3-11C1521,549.35,1526.79,534.47,1534.58,513.76Z" fill="#fff"/><path d="M1539,478c-3.41-1-6.27,1.36-8.51,7.17a15.26,15.26,0,0,0-1.06,6.15c.09,2.58.88,4.09,2.39,4.51,3.76,1,6.62-1.48,8.65-7.45a14.48,14.48,0,0,0,.79-6.91C1541,479.56,1540.25,478.39,1539,478Z" fill="#fff"/><path d="M1532.31,532.91a2.34,2.34,0,0,1,.38,0l.21-.55s-.05,0-.07.06a5.05,5.05,0,0,1-.82.49A1.74,1.74,0,0,1,1532.31,532.91Z" fill="#fff"/><path d="M1541.92,496.64l-.24.05-.17.44Z" fill="#fff"/><path d="M1577.24,511.76c-.82-1.55-2-2.23-3.43-2a5.42,5.42,0,0,0-3.11,2,7.18,7.18,0,0,0-1,8.22,3.76,3.76,0,0,0,2.76,2.26,4.82,4.82,0,0,0,2.06-.06q.89-2.17,1.91-4.31l.29-.58a2.12,2.12,0,0,1-1.14.8,6.41,6.41,0,0,0,1.92-3.06A4.41,4.41,0,0,0,1577.24,511.76Z" fill="#fff"/><path d="M1533.25,576.18a11.08,11.08,0,0,0,7.37-3.66,14.46,14.46,0,0,0,3.79-9.56c-.83,1.75-1.62,2.76-2.37,3-.48.16-.89,0-1.19-.59l0,0c-1.06-1.48-.6-5.16,1.35-11.08q1.2-3.52,5-14a99.83,99.83,0,0,1,13.75-25.59c6.43-8.76,11.6-12.71,15.33-11.89a4.35,4.35,0,0,1,3.4,3,9.79,9.79,0,0,1,.06,5,16.52,16.52,0,0,1-.56,2l.22-.38c.45-.78.91-1.54,1.39-2.29.73-1.15,1.48-2.29,2.27-3.37.47-.66,1-1.31,1.45-1.93a8.3,8.3,0,0,0-2.93-6.27,9.39,9.39,0,0,0-2.67-1.54l-.45-.16c-2.39-.76-5.34-.22-8.81,1.61a32.83,32.83,0,0,0-11.11,10.27q2.68-6.65-.12-8.76c-1.37-1.05-3.48-1.24-6.31-.58l-6.6,1.53-1.58,4.11c2.52-.57,4-.11,4.33,1.35.39,1.64-.36,4.86-2.19,9.58s-2.77,7.3-4.62,12.16c-1.43,4-3.33,6.75-5.63,8.36-1.68,1.18-3.09,1.62-4.21,1.27a7.27,7.27,0,0,0,5.3,2.26l-3,7.87-1.59,4.2c-.8,2.12-1.3,3.5-1.5,4.17a66.87,66.87,0,0,0-1.94,7.31c-.8,3.92-.87,6.93-.24,9A4.59,4.59,0,0,0,1533.25,576.18Z" fill="#fff"/><path d="M1600.69,550.87l.29-.91-.85.72Z" fill="#fff"/><path d="M1619.31,490.46a57.71,57.71,0,0,0-8.21,1.68,39.68,39.68,0,0,0-13,6.25,50.23,50.23,0,0,0-8.67,8.28l-.13.16a61.4,61.4,0,0,0-5.68,8.23l-.78,1.37c-.65,1.2-1.27,2.4-1.84,3.6h0q-1.44,3-2.56,6h0a64.45,64.45,0,0,0-3.18,11.77,44.81,44.81,0,0,0-.63,11.44h0a27.88,27.88,0,0,0,.75,4.65h0a24,24,0,0,0,.75,2.49,12.81,12.81,0,0,0,2.67,4.42,11,11,0,0,0,2.86,2.17c2.69,1.43,6.07,1.86,10.23,1.37A39.84,39.84,0,0,0,1605.8,560a52.65,52.65,0,0,0,6.82-4.28,8.05,8.05,0,0,0,1.86,5,6.9,6.9,0,0,0,5.09,2.14,10.07,10.07,0,0,0,1.55,0c3.84-.26,8.34-2.73,13.42-7.29,5.47-4.91,11.17-12,16.82-21.08l-2.14-2.38c-8.3,12.46-14.67,19-18.85,20.36-1.8.58-2.84-.14-3.06-2-.24-2,.51-5.22,2.24-9.38,7.94-19,16.13-38.3,23.87-57.58-7.34,2.43-12.45,5.42-15.15,9.57v-.07l-.06,0a13,13,0,0,0-2.94-1.44,28.58,28.58,0,0,0-10.4-1.52c-1.18,0-2.38.11-3.62.24Zm6.57,4.58a7.84,7.84,0,0,1,3.4,2.19q4.29,4.69-.54,16.52l-.88,2v0a16.24,16.24,0,0,1-5.63,7.21,8.66,8.66,0,0,1-1.17.68c-2,1-3.71,1.16-5.12.56a10.07,10.07,0,0,0,6,3l.61.07c-.22.47-.47,1-.76,1.66l-.42.91c-.45,1-.78,1.64-1,2a78.54,78.54,0,0,1-10.62,16.35,57.18,57.18,0,0,1-4.25,4.45c-4.4,4.11-8.52,6.43-12.41,6.87-2.81.31-4.93-.13-6.43-1.38-1.82-1.58-2.81-4.12-3-7.65a33,33,0,0,1,.29-6.33,71.12,71.12,0,0,1,5.66-19.21c.31-.73.64-1.47,1-2.21a74.28,74.28,0,0,1,9.15-15c.37-.47.75-.93,1.13-1.37,1-1.14,2-2.22,3-3.24a32.39,32.39,0,0,1,8.19-6,23.56,23.56,0,0,1,8.06-2.46c.26,0,.52-.06.78-.08A12.53,12.53,0,0,1,1625.88,495Z" fill="#fff"/><path d="M1668.66,480a1.53,1.53,0,0,0,1.32-.17c5.82-3,11.14-8.29,16-15.62a76.78,76.78,0,0,0,10.5-23.44,28.7,28.7,0,0,0,1-8.3c0-5-1-7.37-3.24-7.19a7.06,7.06,0,0,0-5.69,4,16.82,16.82,0,0,0-2,7.88,69.53,69.53,0,0,1-1.58,13c-1.39,6.47-3.5,11.73-6.36,15.66a114.45,114.45,0,0,1-7.44,9.06c-1.69,2-2.61,3.32-2.79,4.09C1668.29,479.5,1668.37,479.86,1668.66,480Z" fill="#fff"/><path d="M1707.69,493c2.28.39,3.73.93,4.34,1.55a8.45,8.45,0,0,1-2.6,1.79,4.54,4.54,0,0,1-2.51.67c.73.8,2.16,1.3,4.2,1.43a10,10,0,0,0,4.3-.46c1.35,2.93,1.21,7.29-.39,13.07a37.87,37.87,0,0,1-8,15.19c-3.86,4.39-7.69,7.07-11.44,8-3.93,1-7-.28-9.11-3.9-1.94-3.27-1.69-8.37.76-15.26,2.06-5.79,4.36-10,6.9-12.67,2-2.11,3.55-2.9,4.57-2.37s1.25,2.48.57,5.81a50,50,0,0,1-5.4,14c.41.8.61,1.21,1,2a33.12,33.12,0,0,0,10-15.71,14.44,14.44,0,0,0,.51-7.41,5.2,5.2,0,0,0-4-4.07c-2.12-.52-4.57,0-7.26,1.73a27.37,27.37,0,0,0-7.27,7.3,39.21,39.21,0,0,0-5.41,10.87,33.78,33.78,0,0,0-1.71,12.53q.63,10.43,6.87,12.56c3.28,1.13,7.53.45,12.73-1.72a64,64,0,0,0,14.83-9.06,103.12,103.12,0,0,0,16.27-16c7.51-9.29,12.69-16.4,15.24-22.36-.87-.62-1.32-.93-2.19-1.53-1.08,2.39-4,6-8.69,11.34-4.43,5.1-7.76,8.79-10.07,10.72,2.67-6.63,2.7-12.25.2-16.84-2-3.6-4.68-5.72-8.08-6.2-4.28-.61-6.8-1-7.62-1.33-2.5-1.15-3.5-3.64-3-7.54a17.49,17.49,0,0,1,5.3-10.4,16.25,16.25,0,0,1,7.33-4.29c2.5-.62,4.43-.43,5.77.47,1.77,1.21,2.33,3.71,1.61,7.42a13.11,13.11,0,0,1-3.21,6.59,10.67,10.67,0,0,1-4.7,2.95c2.24-1.56,3.35-3.36,3.3-5.47a4.15,4.15,0,0,0-2.24-3.94c-1.4-.7-3.06-.4-4.93.87a9.78,9.78,0,0,0-4,6.37c-.59,2.76.28,4.57,2.66,5.36a10.56,10.56,0,0,0,7-.3,18.64,18.64,0,0,0,7.07-4.95,18.2,18.2,0,0,0,4.86-8.56,9.75,9.75,0,0,0-2.37-9.22c-2.58-2.79-6.25-3.76-11-2.58a25.38,25.38,0,0,0-13,8.45,29.29,29.29,0,0,0-6.85,13.2,9.75,9.75,0,0,0,1,7.49C1701.48,490.92,1704,492.35,1707.69,493Z" fill="#fff"/><polygon points="1432.96 640.86 1443.51 647.58 1445.82 643.94 1430.82 634.39 1413.51 661.58 1428.51 671.13 1430.82 667.5 1420.27 660.78 1425.57 652.46 1434.95 658.43 1437.26 654.8 1427.89 648.83 1432.96 640.86" fill="#fff"/><path d="M1459.16,649.26a14.18,14.18,0,0,0-5.81-1,8.89,8.89,0,0,0-4.77,1.59,8.51,8.51,0,0,0-3,4,7.81,7.81,0,0,0-.44,5,8.41,8.41,0,0,0,2.19,3.69,34.77,34.77,0,0,0,4.16,3.42,38.25,38.25,0,0,1,3.21,2.53,6.44,6.44,0,0,1,1.65,2.32,3.76,3.76,0,0,1-.07,2.81,4.23,4.23,0,0,1-2.65,2.62,6.31,6.31,0,0,1-4.45-.3,5.75,5.75,0,0,1-3.34-2.73,5,5,0,0,1-.3-3.79l-5.28-2a8.16,8.16,0,0,0-.36,5.07,9.47,9.47,0,0,0,2.65,4.47,14.17,14.17,0,0,0,5,3.16,12.75,12.75,0,0,0,6,.91,9.41,9.41,0,0,0,4.84-1.88,8.63,8.63,0,0,0,2.9-3.85,7.81,7.81,0,0,0,.44-5.07,8.69,8.69,0,0,0-2.22-3.75,39.74,39.74,0,0,0-4.23-3.52,37.19,37.19,0,0,1-3.11-2.5,6.16,6.16,0,0,1-1.6-2.23,3.37,3.37,0,0,1,0-2.59,4,4,0,0,1,2.54-2.59,5.74,5.74,0,0,1,3.88.25,6.1,6.1,0,0,1,3.3,2.62,4.2,4.2,0,0,1,.48,3.4l5.44,2.11a8.61,8.61,0,0,0-.78-7.18A12.07,12.07,0,0,0,1459.16,649.26Z" fill="#fff"/><polygon points="1470.96 658.54 1479.46 659.91 1475.02 687.44 1480.22 688.29 1484.67 660.76 1493.14 662.13 1493.82 657.87 1471.64 654.28 1470.96 658.54" fill="#fff"/><path d="M1517.89,684.12l1.83-2.1c2.11-2.44,3.84-4.55,5.18-6.36a26,26,0,0,0,3.28-6,13.23,13.23,0,0,0,.85-6.57,9.94,9.94,0,0,0-3.79-7q-3.18-2.39-8.19-1.73a11,11,0,0,0-7.29,3.78c-1.76,2.11-2.45,4.91-2.09,8.42l5-.66a7.15,7.15,0,0,1,1-4.82,5.24,5.24,0,0,1,4-2.27,5.14,5.14,0,0,1,4.31,1,6.56,6.56,0,0,1,1.88,4.15,10,10,0,0,1-1,5.55,28,28,0,0,1-3.58,5.67c-1.48,1.87-3.54,4.26-6.14,7.18l-2.94,3.28.5,3.82,22.32-2.91-.56-4.37Z" fill="#fff"/><path d="M1551.81,649.66q-4.08-3.33-10.31-1.09t-7.25,7.42q-1,5.16,1.69,12.71t6.85,11c2.72,2.26,6.17,2.64,10.32,1.14s6.57-4,7.24-7.46.09-7.75-1.75-12.83S1554.54,651.89,1551.81,649.66Zm3.28,23.61a6.83,6.83,0,0,1-8.32,3,8.22,8.22,0,0,1-3.3-3.34,40.94,40.94,0,0,1-2.65-6,36.93,36.93,0,0,1-1.69-6.13,8.52,8.52,0,0,1,.42-4.66,6.7,6.7,0,0,1,8.28-3,8.44,8.44,0,0,1,3.28,3.32,34.29,34.29,0,0,1,2.61,5.8,38.09,38.09,0,0,1,1.78,6.31A8.1,8.1,0,0,1,1555.09,673.27Z" fill="#fff"/><polygon points="1555 643.59 1557.39 647.76 1561.13 645.62 1575.53 670.74 1580.14 668.09 1563.36 638.8 1555 643.59" fill="#fff"/><polygon points="1584.61 622.96 1567.26 637.01 1570.09 640.51 1583.41 629.72 1591.63 660.54 1595.78 657.19 1587.08 626.02 1584.61 622.96" fill="#fff"/><path d="M1647.93,581.23c-12.31,6-28.89,11.16-47.63,15.49-2.9.67-5.85,1.31-8.84,1.94-4.73,1-9.57,2-14.48,2.87h0c-11.77,2.16-24,4.08-36.2,5.77l-1.27.18c-6.38.87-12.76,1.67-19.09,2.43l-1.24.14c-6.22.73-12.37,1.41-18.41,2l-1.23.13c-6.6.67-13,1.27-19.27,1.82l-1.28.11c-12.75,1.11-24.54,2-34.7,2.61-5.21.33-10,.6-14.26.83-3.2.16-6.11.3-8.69.41-5.5.24-9.51.35-11.66.37-18.79.16-84.9,5.22-94.86,6.51s-23.59,9.87-23.59,9.87a3.9,3.9,0,0,1,.38-3c-4.63,1-21.86,8.27-22.39,8.5,21.71-18.45,97.5-25.77,146.46-26.91q3.35-.09,6.52-.13l1.88,0q6.92-.11,13.65-.37c6.69-.25,13.27-.61,19.83-1.06l1.39-.1c7-.48,13.93-1.08,21-1.76l1.29-.12c7.46-.73,15-1.55,22.73-2.44,4.59-.54,9.23-1.1,14-1.69,6.68-.82,13.53-1.68,20.61-2.58a2.09,2.09,0,0,1,.35,0l20.67-2.63,1.4-.17,9.87-1.23c3.52-.43,7-.95,10.47-1.54,4.6-.78,9.14-1.7,13.59-2.71,2.9-.66,5.77-1.37,8.59-2.1a336.28,336.28,0,0,0,78.1-31.74c-3.69,1.64-29.71,9.88-70.78,20.5-2.5.64-5,1.3-7.66,1.95q-6,1.53-12.31,3.1-9.68,2.37-20.15,4.86c-4.45,1-9.15,2-14.07,2.92-.44.08-.89.17-1.35.24-3.91.71-8,1.36-12.11,2-9,1.33-18.42,2.47-28.15,3.47h-.08c-4.54.46-9.15.9-13.79,1.3H1501c-9.16.8-18.46,1.48-27.72,2.09l-11,.69c-.46,0-.92,0-1.38.07-11.2.66-22.24,1.21-32.77,1.73-4.06.2-8,.38-11.94.58-2.54.11-5,.24-7.5.36-23.28,1.14-42.6,2.24-53.64,4-34.76,5.65-61.12,6.64-86.87,21-17.7,9.91-34.38,30.73-32.67,58.24,1.13,18.38,9.07,41.19,38.59,47.8,73.7,16.51,55.45-51.56,55.45-51.56-.37,11.83-2.06,16.11-6.5,22.83a11.51,11.51,0,0,1-13.86,4.73c2.92-14.49-6.83-19.82-6.83-19.82,1.43,12.06-11.08,15.31-11.08,15.31,5.09-20.44-3-22.68-3-22.68-14.76,20.3-33.32,1-34.76-10.44s15.61-21.51,15.61-21.51c11.39,20.56,30.58,6.37,30.58,6.37-16.22-10.28.22-24.83.22-24.83,3.71,22.59,29.83,16.62,29.83,16.62-4.84-18.76,30.25-23.55,51.47-25.28,8.63-.69,26.7-.14,52.72-.76,3.45-.09,7-.19,10.76-.32,6.12-.21,12.62-.5,19.46-.88,10.89-.6,22.68-1.45,35.3-2.65l1.23-.11q10-1,20.65-2.22l1.24-.15q17-2,35.54-5,9.38-1.51,19.15-3.27,5.25-1,10.6-2l6-1.17c112.29-22.47,163.81-102.29,164.61-103.53C1713.45,550.8,1707.46,552,1647.93,581.23Zm-373.8,127.23a24.39,24.39,0,0,1-16.63-3c6.34,15.24,32.08,16.08,32.08,16.08-17.42,2.55-26.12-4.37-26.55-4.72,9.76,13.47,45.09,12.71,45.09,12.71-49.51,15.65-58.82-34.69-59.06-36.06C1252.73,702,1274.13,708.46,1274.13,708.46Z" fill="#fff"/><path d="M234.1,390.15l.13.14L248,404a3.19,3.19,0,0,0,4.69-.07l13.55-13.52c.08-.07.19-.13.21-.26a3.36,3.36,0,0,0-1.53-.31H235.49A3,3,0,0,0,234.1,390.15Zm32.33,24.72L264.54,413c-2.92-2.91-5.84-5.8-8.74-8.72-.22-.21-.32-.2-.52,0-.39.43-.81.84-1.23,1.25a5.26,5.26,0,0,1-7,.48,18.28,18.28,0,0,1-1.79-1.73c-.2-.21-.31-.21-.51,0l-10.42,10.38-.22.24a3.46,3.46,0,0,0,1.57.32h29.38A3,3,0,0,0,266.43,414.87ZM268,391.65l-.18.17-10.52,10.46c-.2.2-.15.29,0,.46l10.44,10.4.24.21a3,3,0,0,0,.32-1.4V393.08A3.34,3.34,0,0,0,268,391.65Z" fill="#fdfdfd"/><path d="M232.27,392.43l.31-.78.27.25q5.21,5.18,10.41,10.35c.2.21.2.31,0,.51l-10.4,10.35-.27.25-.31-.78Z" fill="#010101"/><path d="M234.1,390.15a3,3,0,0,1,1.39-.32h29.39a3.36,3.36,0,0,1,1.53.31c0,.13-.13.19-.21.26l-13.55,13.52A3.19,3.19,0,0,1,248,404l-13.73-13.69Z"/><path d="M266.43,414.87a3,3,0,0,1-1.38.32H235.67a3.46,3.46,0,0,1-1.57-.32l.22-.24,10.42-10.38c.2-.21.31-.21.51,0A18.28,18.28,0,0,0,247,406a5.26,5.26,0,0,0,7-.48c.42-.41.84-.82,1.23-1.25.2-.21.3-.22.52,0,2.9,2.92,5.82,5.81,8.74,8.72Z"/><path d="M268,391.65a3.34,3.34,0,0,1,.32,1.43V412a3,3,0,0,1-.32,1.4l-.24-.21-10.44-10.4c-.17-.17-.22-.26,0-.46l10.52-10.46Z" fill="#010101"/></svg>