<svg id="Camada_1" data-name="Camada 1" xmlns="http://www.w3.org/2000/svg" viewBox="0 0 1920 1080"><rect x="2" y="-0.24" width="1920" height="105.46" fill="#202020"/><path d="M1727.46,73.26c1-3.55,1.91-7,2.87-10.49a.86.86,0,0,0-.07-.7,21,21,0,0,1,8.41-28.67,19.84,19.84,0,0,1,12.62-2.32c8.74,1.31,14.59,6.25,17.39,14.59a21,21,0,0,1-20.52,27.24,20.41,20.41,0,0,1-9.29-2.41.76.76,0,0,0-.59-.06l-10.35,2.72Zm5-5,.26-.06c1.91-.5,3.83-1,5.74-1.52a1.35,1.35,0,0,1,1.15.17,17,17,0,0,0,16.58.73,17.46,17.46,0,0,0-10.31-33,16.9,16.9,0,0,0-8.9,4.24,17.46,17.46,0,0,0-3,22.53,1,1,0,0,1,.14.9C1733.58,64.27,1733.06,66.24,1732.5,68.28Z" fill="#fff"/><path d="M1741.84,42.22c.94-.25,1.36.35,1.67,1.18.48,1.21,1,2.41,1.5,3.61a1.09,1.09,0,0,1-.08,1.13,20.67,20.67,0,0,1-1.28,1.68.81.81,0,0,0-.08,1.08,14.43,14.43,0,0,0,7.21,6.2.83.83,0,0,0,1.06-.26c.52-.65,1.06-1.3,1.58-2,.36-.45.55-.54,1.09-.33,1.53.62,3,1.38,4.45,2.12a.63.63,0,0,1,.33.62c0,2.25-.71,3.35-3.11,4.35a6.19,6.19,0,0,1-4.14,0c-5.06-1.41-8.79-4.59-11.77-8.78a11.91,11.91,0,0,1-2.13-4.27,6,6,0,0,1,1.75-5.88A2.2,2.2,0,0,1,1741.84,42.22Z" fill="#fff"/><path d="M1680.6,30.85h2a.28.28,0,0,0,.42,0h.93c.1.16.26.07.38.08a32.45,32.45,0,0,1,3.82.33A11.47,11.47,0,0,1,1698,41.43a7.23,7.23,0,0,0,.23,1.67V61.62c-.13.05-.07.16-.08.25a18.73,18.73,0,0,1-.34,2.59,11.16,11.16,0,0,1-6.78,8.45,17.24,17.24,0,0,1-6.36,1.13c-4.56.14-9.12.1-13.69.06a29,29,0,0,1-6.76-.57,11.07,11.07,0,0,1-7.78-6.23,15,15,0,0,1-1.29-6q-.27-8.7,0-17.4a17.4,17.4,0,0,1,.57-4.18,11,11,0,0,1,6.77-7.71,17.7,17.7,0,0,1,6.16-1.06c.14,0,.31.09.42-.08h1.69a4.37,4.37,0,0,0,1.35.08h2.15c.16,0,.34.06.47-.08h3.81A5.35,5.35,0,0,0,1680.6,30.85Zm-4,39.38c1.14,0,2.28,0,3.42,0a50,50,0,0,0,7.34-.34,7.33,7.33,0,0,0,6.37-5.44,16.82,16.82,0,0,0,.52-4.35c.13-3.91.09-7.83.07-11.75a48.11,48.11,0,0,0-.32-6.57,7.43,7.43,0,0,0-6-6.55,23.09,23.09,0,0,0-4.54-.4c-3.8-.07-7.6-.07-11.41,0a38.53,38.53,0,0,0-6.44.36,7.32,7.32,0,0,0-6.2,5.69,20.22,20.22,0,0,0-.45,4.52c-.1,3.51-.09,7-.06,10.53a54.82,54.82,0,0,0,.31,7.25,7.52,7.52,0,0,0,3.39,5.58,9.72,9.72,0,0,0,4.7,1.34C1670.41,70.27,1673.53,70.23,1676.64,70.23Z" fill="#fff"/><path d="M1674.68,30.85c-.13.14-.31.08-.47.08h-2.15s0-.06,0-.08Z" fill="#fff"/><path d="M1680.6,30.85a5.35,5.35,0,0,1-2.11,0Z" fill="#fff"/><path d="M1672.06,30.85s0,0,0,.08a4.37,4.37,0,0,1-1.35-.08Z" fill="#fff"/><path d="M1683.05,30.85a.28.28,0,0,1-.42,0Z" fill="#fff"/><path d="M1676.6,63.61a11.12,11.12,0,1,1,11.14-11.1A11.14,11.14,0,0,1,1676.6,63.61Zm-7.18-11.14a7.21,7.21,0,1,0,7.24-7.18A7.19,7.19,0,0,0,1669.42,52.47Z" fill="#fff"/><path d="M1690.77,40.93a2.59,2.59,0,1,1-2.6-2.58A2.59,2.59,0,0,1,1690.77,40.93Z" fill="#fff"/><path d="M492.45,46.54A4.58,4.58,0,0,1,494,42.83a6.78,6.78,0,0,1,4.48-1.32,15.09,15.09,0,0,1,4.73.61v3a12,12,0,0,0-4.42-.71c-2.1,0-3.15.78-3.15,2.33V48.1a3,3,0,0,0,.42,1.7A4.52,4.52,0,0,0,497.59,51l3.92,2.2a4.82,4.82,0,0,1,2.74,4.49v1.89a4.5,4.5,0,0,1-1.73,3.8,7.67,7.67,0,0,1-4.85,1.34,14.74,14.74,0,0,1-5-.71V61a13.7,13.7,0,0,0,4.7.81q3.69,0,3.69-2.5V58.17a2.78,2.78,0,0,0-.38-1.57,3.66,3.66,0,0,0-1.38-1.1l-3.82-2.1a5.19,5.19,0,0,1-3-4.83Z" fill="#fff"/><path d="M507,46.92a5.43,5.43,0,0,1,1.54-4.06,7.59,7.59,0,0,1,9.14,0,5.41,5.41,0,0,1,1.56,4V59.39a5.38,5.38,0,0,1-1.56,4,7.6,7.6,0,0,1-9.12,0,5.38,5.38,0,0,1-1.56-4ZM516,47c0-1.85-1-2.77-2.94-2.77s-2.94.92-2.94,2.77V59.25c0,1.87,1,2.81,2.94,2.81s2.94-.94,2.94-2.81Z" fill="#fff"/><path d="M535,46.88v2c0,2.14-.82,3.51-2.44,4.12q2.64.87,2.64,4.26v2.13a5.11,5.11,0,0,1-1.4,3.87,5.8,5.8,0,0,1-4.14,1.33H523V41.68h6.45A5.77,5.77,0,0,1,533.63,43,5.08,5.08,0,0,1,535,46.88Zm-5.92-2.47h-2.91v7.24h2.91c1.85,0,2.77-.88,2.77-2.64V47C531.89,45.28,531,44.41,529.12,44.41Zm3,14.84V57.09c0-1.74-.93-2.6-2.78-2.6h-3.11v7.36h3.11C531.17,61.85,532.1,61,532.1,59.25Z" fill="#fff"/><path d="M542.27,55.67v8.92h-3.18V41.68h6.15A5.83,5.83,0,0,1,549.38,43a4.89,4.89,0,0,1,1.44,3.75v3.65q0,3.75-2.87,4.83l3.65,9.33h-3.52l-3.28-8.92Zm0-11.22V53H545a2.27,2.27,0,0,0,2.67-2.6V47c0-1.69-.89-2.53-2.67-2.53Z" fill="#fff"/><path d="M554.77,41.68h10.44v2.8H558v7.13h6.32v2.81H558v7.4h7.26v2.77H554.77Z" fill="#fff"/><path d="M765.21,46.54a4.55,4.55,0,0,1,1.58-3.71,6.75,6.75,0,0,1,4.47-1.32,15.2,15.2,0,0,1,4.74.61v3a12.14,12.14,0,0,0-4.43-.71c-2.1,0-3.14.78-3.14,2.33V48.1a3,3,0,0,0,.42,1.7,4.37,4.37,0,0,0,1.5,1.24l3.92,2.2A4.81,4.81,0,0,1,777,57.73v1.89a4.5,4.5,0,0,1-1.72,3.8,7.71,7.71,0,0,1-4.85,1.34,14.66,14.66,0,0,1-5-.71V61a13.62,13.62,0,0,0,4.7.81q3.68,0,3.68-2.5V58.17a2.78,2.78,0,0,0-.37-1.57A3.79,3.79,0,0,0,772,55.5l-3.82-2.1a5.2,5.2,0,0,1-3-4.83Z" fill="#fff"/><path d="M780.05,41.68H790.5v2.8h-7.27v7.13h6.32v2.81h-6.32v7.4h7.27v2.77H780.05Z" fill="#fff"/><path d="M796.88,55.67v8.92h-3.17V41.68h6.15A5.83,5.83,0,0,1,804,43a4.92,4.92,0,0,1,1.43,3.75v3.65c0,2.5-.95,4.11-2.87,4.83l3.65,9.33H802.7l-3.28-8.92Zm0-11.22V53h2.71a2.76,2.76,0,0,0,2-.64,2.7,2.7,0,0,0,.63-2V47c0-1.69-.89-2.53-2.67-2.53Z" fill="#fff"/><path d="M818.44,41.68h3.32L817,64.59H812.5l-4.84-22.91h3.25Q813.4,54.15,814,57.54c.39,2.27.64,3.64.73,4.11q.3-1.38.84-4.68t.75-4.41Z" fill="#fff"/><path d="M824.22,41.68h3.21V64.59h-3.21Z" fill="#fff"/><path d="M839.13,66.57a2.14,2.14,0,0,1,.64,1.72,2.22,2.22,0,0,1-.86,1.84,3.21,3.21,0,0,1-2,.68,8.09,8.09,0,0,1-1.94-.2V69a3.33,3.33,0,0,0,1.35.24c1,0,1.55-.37,1.55-1.11S837.31,67,836.25,67h-.43l.5-2.3c-3.38-.36-5.07-2-5.07-5V46.58a4.56,4.56,0,0,1,1.63-3.74,7.58,7.58,0,0,1,4.9-1.33,15.11,15.11,0,0,1,4,.5v3a13.84,13.84,0,0,0-3.92-.58,4.22,4.22,0,0,0-2.65.61,2.24,2.24,0,0,0-.73,1.82V59.49a2.17,2.17,0,0,0,.75,1.79,4.52,4.52,0,0,0,2.74.61,14.54,14.54,0,0,0,3.92-.54v2.87a13.33,13.33,0,0,1-4,.54l-.27,1.18A2.66,2.66,0,0,1,839.13,66.57Z" fill="#fff"/><path d="M844.74,46.92a5.43,5.43,0,0,1,1.54-4.06,7.59,7.59,0,0,1,9.14,0,5.44,5.44,0,0,1,1.55,4V59.39a5.41,5.41,0,0,1-1.55,4,7.62,7.62,0,0,1-9.13,0,5.41,5.41,0,0,1-1.55-4Zm9,.1c0-1.85-1-2.77-2.94-2.77s-2.94.92-2.94,2.77V59.25c0,1.87,1,2.81,2.94,2.81s2.94-.94,2.94-2.81Z" fill="#fff"/><path d="M859.61,46.54a4.55,4.55,0,0,1,1.57-3.71,6.78,6.78,0,0,1,4.48-1.32,15.18,15.18,0,0,1,4.73.61v3a12.1,12.1,0,0,0-4.43-.71c-2.09,0-3.14.78-3.14,2.33V48.1a3,3,0,0,0,.42,1.7,4.37,4.37,0,0,0,1.5,1.24l3.93,2.2a4.81,4.81,0,0,1,2.73,4.49v1.89a4.5,4.5,0,0,1-1.72,3.8,7.71,7.71,0,0,1-4.85,1.34,14.7,14.7,0,0,1-5-.71V61a13.66,13.66,0,0,0,4.7.81q3.68,0,3.68-2.5V58.17a2.78,2.78,0,0,0-.37-1.57,3.79,3.79,0,0,0-1.39-1.1l-3.81-2.1a5.19,5.19,0,0,1-3-4.83Z" fill="#fff"/><path d="M1071.4,41.68h3.21V61.85h6.7v2.74h-9.91Z" fill="#fff"/><path d="M1083.23,46.92a5.43,5.43,0,0,1,1.54-4.06,7.59,7.59,0,0,1,9.14,0,5.41,5.41,0,0,1,1.56,4V59.39a5.38,5.38,0,0,1-1.56,4,7.6,7.6,0,0,1-9.12,0,5.38,5.38,0,0,1-1.56-4Zm9.06.1c0-1.85-1-2.77-2.94-2.77s-2.94.92-2.94,2.77V59.25c0,1.87,1,2.81,2.94,2.81s2.94-.94,2.94-2.81Z" fill="#fff"/><path d="M1099.39,41.68h3.21V57.8a29.84,29.84,0,0,1-1.15,8.31l-1,3.52h-3.31l1-3.55a29.58,29.58,0,0,0,1.29-8.25Z" fill="#fff"/><path d="M1116.42,64.59l-1.25-6.08h-5.68l-1.25,6.08h-3.11l5-22.91h4.46l4.94,22.91ZM1110,55.77h4.56l-2.29-11.12Z" fill="#fff"/><path d="M1330.72,64.59l-1.12-5.78h-5.2l-1.09,5.78h-3.88l4.8-23.15h5.64l4.77,23.15ZM1325,55.36h3.89l-2-10.27Z" fill="#c07c5a"/><path d="M1336.46,46.78a4.91,4.91,0,0,1,1.84-4,7.78,7.78,0,0,1,5-1.47,16.15,16.15,0,0,1,5,.61v3.85a13.27,13.27,0,0,0-4.47-.74c-2.16,0-3.24.73-3.24,2.2V59.05c0,1.37.9,2.06,2.7,2.06a3.63,3.63,0,0,0,1.9-.44V52.56h4V63.37a12.46,12.46,0,0,1-5.92,1.39,8,8,0,0,1-5-1.37,4.74,4.74,0,0,1-1.74-4Z" fill="#c07c5a"/><path d="M1352.38,41.44h11.12V45h-7.06v6.12h6.11v3.54h-6.11V61h7.06v3.55h-11.12Z" fill="#c07c5a"/><path d="M1376.21,41.44h4V64.59h-4.09q-5-12.68-5.68-14.75t-.78-2.28s.06.46.17,1.25a55.47,55.47,0,0,1,.44,7.6v8.18h-4V41.44h4.16q4.29,10.85,5,12.78c.45,1.28.78,2.27,1,3s.34,1.09.38,1.2c0-.09,0-.52-.16-1.28a58.8,58.8,0,0,1-.44-7.67Z" fill="#c07c5a"/><path d="M1383.88,41.44h7.37a6,6,0,0,1,4.17,1.34,4.9,4.9,0,0,1,1.47,3.83V59.22q0,5.37-5.44,5.37h-7.57Zm8.95,5.31c0-1.29-.7-1.93-2.09-1.93h-2.81V61.08h2.81c1.39,0,2.09-.72,2.09-2.17Z" fill="#c07c5a"/><path d="M1410,64.59l-1.11-5.78h-5.21l-1.08,5.78h-3.89l4.8-23.15h5.65l4.76,23.15Zm-5.68-9.23h3.89l-2-10.27Z" fill="#c07c5a"/><path d="M1420.14,55.87v8.72h-4.05V41.44h6.82a6.16,6.16,0,0,1,4.24,1.34,4.78,4.78,0,0,1,1.51,3.8v4c0,2.62-1,4.26-2.84,4.94l3.65,9.12H1425l-3.21-8.72Zm0-10.95v7.67h2.37a1.78,1.78,0,0,0,2.09-2.09V46.88c0-1.3-.7-2-2.09-2Z" fill="#c07c5a"/><path d="M801.73,364.15a7.12,7.12,0,0,1,2.58-5.85q2.58-2.1,7.77-2.1a22.79,22.79,0,0,1,6.1.75v5.5a20.82,20.82,0,0,0-5.72-.85,6.24,6.24,0,0,0-3.7.78,2.72,2.72,0,0,0-1,2.27V382.5c0,2,1.45,3.05,4.35,3.05a20.66,20.66,0,0,0,6.2-.8v5.45A23.84,23.84,0,0,1,812,391q-10.25,0-10.25-7.9Z" fill="#202020"/><path d="M822.43,362.3a24.63,24.63,0,0,1,7.55-.95q4.71,0,6.85,2.08c1.44,1.38,2.15,3.45,2.15,6.22V390.7h-5.7v-2.1a6.85,6.85,0,0,1-5.47,2.25q-3.52,0-5.18-1.75c-1.1-1.16-1.65-3-1.65-5.35v-1.7a7.35,7.35,0,0,1,1.45-4.8,9.15,9.15,0,0,1,4.7-2.65l6-1.65V369.6a2.87,2.87,0,0,0-.9-2.25c-.56-.47-1.86-.7-3.9-.7a17.39,17.39,0,0,0-6,1.05Zm4.45,20v1.45c0,1.7.89,2.55,2.65,2.55a6,6,0,0,0,3.6-1.1v-7.3l-3.55,1a4,4,0,0,0-2.17,1.15A3.8,3.8,0,0,0,826.88,382.3Z" fill="#202020"/><path d="M855.48,353.85h6V390.7h-5.85v-1.95a7.29,7.29,0,0,1-5.4,2.15,6.48,6.48,0,0,1-4.95-1.82,7.27,7.27,0,0,1-1.7-5.13V370a8.35,8.35,0,0,1,2.23-6.17q2.22-2.24,6.47-2.23h3.15Zm0,13.15h-2.6c-2.16,0-3.25,1.05-3.25,3.15V383a2.12,2.12,0,0,0,2.4,2.4,5.46,5.46,0,0,0,3.45-1Z" fill="#202020"/><path d="M866.88,362.3a24.63,24.63,0,0,1,7.55-.95q4.71,0,6.85,2.08c1.44,1.38,2.15,3.45,2.15,6.22V390.7h-5.7v-2.1a6.85,6.85,0,0,1-5.47,2.25q-3.53,0-5.18-1.75c-1.1-1.16-1.65-3-1.65-5.35v-1.7a7.35,7.35,0,0,1,1.45-4.8,9.15,9.15,0,0,1,4.7-2.65l6-1.65V369.6a2.87,2.87,0,0,0-.9-2.25c-.56-.47-1.86-.7-3.9-.7a17.39,17.39,0,0,0-6,1.05Zm4.45,20v1.45c0,1.7.89,2.55,2.65,2.55a6,6,0,0,0,3.6-1.1v-7.3l-3.55,1a4,4,0,0,0-2.17,1.15A3.8,3.8,0,0,0,871.33,382.3Z" fill="#202020"/><path d="M887.08,369q0-3.84,2.25-5.75c1.5-1.26,3.95-1.9,7.35-1.9a20.15,20.15,0,0,1,5.9.8v5.35a15.58,15.58,0,0,0-5.12-.8c-1.88,0-3.1.21-3.65.63a2.37,2.37,0,0,0-.83,2v.7a2.4,2.4,0,0,0,.48,1.58,7.9,7.9,0,0,0,1.87,1.42l4.15,2.45q4.15,2.44,4.15,6.35v1.3q0,7.8-10.2,7.8a25.11,25.11,0,0,1-6.3-.7V384.8a18.45,18.45,0,0,0,5.4.75,8.5,8.5,0,0,0,4-.65,2.11,2.11,0,0,0,1.07-1.95v-.7a2.24,2.24,0,0,0-.57-1.6,11.67,11.67,0,0,0-2.43-1.65l-3.75-2.2a7,7,0,0,1-3.8-6.35Z" fill="#202020"/><path d="M913.88,356.45v5.15h5.2v5.1h-5.2v16.55c0,1.57.84,2.35,2.5,2.35a9.93,9.93,0,0,0,3-.6v5.35a13,13,0,0,1-4.15.7q-7.39,0-7.4-7.25V366.7H905v-5.1h3.1l1.8-5.15Z" fill="#202020"/><path d="M934.28,361.45h1v5.6h-1.35a9.31,9.31,0,0,0-5,1.5V390.7h-6V361.6h5.7v2c1-.63,1.64-1,2-1.25A7.33,7.33,0,0,1,934.28,361.45Z" fill="#202020"/><path d="M938.18,362.3a24.63,24.63,0,0,1,7.55-.95q4.71,0,6.85,2.08c1.44,1.38,2.15,3.45,2.15,6.22V390.7H949v-2.1a6.85,6.85,0,0,1-5.47,2.25q-3.52,0-5.18-1.75c-1.1-1.16-1.65-3-1.65-5.35v-1.7a7.3,7.3,0,0,1,1.45-4.8,9.11,9.11,0,0,1,4.7-2.65l6-1.65V369.6a2.87,2.87,0,0,0-.9-2.25c-.57-.47-1.86-.7-3.9-.7a17.39,17.39,0,0,0-6,1.05Zm4.45,20v1.45c0,1.7.89,2.55,2.65,2.55a6,6,0,0,0,3.6-1.1v-7.3l-3.55,1a4,4,0,0,0-2.17,1.15A3.8,3.8,0,0,0,942.63,382.3Z" fill="#202020"/><path d="M971.28,361.45h1v5.6h-1.35a9.31,9.31,0,0,0-5,1.5V390.7h-6V361.6h5.7v2c1-.63,1.63-1,2-1.25A7.33,7.33,0,0,1,971.28,361.45Z" fill="#202020"/><path d="M997.63,356.45h6v26.2a8.2,8.2,0,0,1-2.45,6.23q-2.45,2.33-7.22,2.32t-7.2-2.32a8.22,8.22,0,0,1-2.43-6.23v-26.2h6v25.9q0,3.4,3.65,3.4t3.65-3.4Z" fill="#202020"/><path d="M1007.28,369q0-3.84,2.25-5.75c1.5-1.26,4-1.9,7.35-1.9a20.15,20.15,0,0,1,5.9.8v5.35a15.58,15.58,0,0,0-5.12-.8c-1.89,0-3.1.21-3.65.63a2.37,2.37,0,0,0-.83,2v.7a2.4,2.4,0,0,0,.48,1.58,7.69,7.69,0,0,0,1.87,1.42l4.15,2.45q4.16,2.44,4.15,6.35v1.3q0,7.8-10.2,7.8a25.11,25.11,0,0,1-6.3-.7V384.8a18.36,18.36,0,0,0,5.4.75,8.5,8.5,0,0,0,4-.65,2.13,2.13,0,0,0,1.07-1.95v-.7a2.24,2.24,0,0,0-.57-1.6,12.28,12.28,0,0,0-2.43-1.65l-3.75-2.2a7,7,0,0,1-3.8-6.35Z" fill="#202020"/><path d="M1039.33,361.6h6v29.1h-5.7v-1.35a11.06,11.06,0,0,1-5.62,1.4,6.48,6.48,0,0,1-4.88-1.75,7,7,0,0,1-1.7-5.05V361.6h6.1v21.3a2.12,2.12,0,0,0,2.4,2.4,6.66,6.66,0,0,0,3.4-.95Z" fill="#202020"/><path d="M1050.68,362.3a24.63,24.63,0,0,1,7.55-.95c3.13,0,5.42.69,6.85,2.08s2.15,3.45,2.15,6.22V390.7h-5.7v-2.1a6.85,6.85,0,0,1-5.47,2.25q-3.52,0-5.18-1.75c-1.1-1.16-1.65-3-1.65-5.35v-1.7a7.3,7.3,0,0,1,1.45-4.8,9.11,9.11,0,0,1,4.7-2.65l6-1.65V369.6a2.87,2.87,0,0,0-.9-2.25c-.57-.47-1.87-.7-3.9-.7a17.35,17.35,0,0,0-6,1.05Zm4.45,20v1.45c0,1.7.88,2.55,2.65,2.55a6,6,0,0,0,3.6-1.1v-7.3l-3.55,1a4,4,0,0,0-2.17,1.15A3.8,3.8,0,0,0,1055.13,382.3Zm3.6-28.45h4.7l-3.45,5.6h-3.35Z" fill="#202020"/><path d="M1083.78,361.45h1v5.6h-1.35a9.31,9.31,0,0,0-5,1.5V390.7h-6V361.6h5.7v2c1-.63,1.63-1,2-1.25A7.31,7.31,0,0,1,1083.78,361.45Z" fill="#202020"/><path d="M1090.76,359.85q-3.43,0-3.43-3.3t3.43-3.3q3.42,0,3.42,3.3T1090.76,359.85Zm-3,2.3h6V390.7h-6Z" fill="#202020"/><path d="M1098.68,369.05a7.67,7.67,0,0,1,2.22-5.82q2.24-2.13,6.75-2.13t6.75,2.13a7.64,7.64,0,0,1,2.23,5.82v14.2a7.66,7.66,0,0,1-2.23,5.83q-2.22,2.12-6.75,2.12t-6.75-2.12a7.69,7.69,0,0,1-2.22-5.83Zm12,.15c0-2-1-2.95-3-2.95s-3,1-3,2.95v13.9c0,2,1,2.95,3,2.95s3-1,3-2.95Z" fill="#202020"/><path d="M663.54,438.87q-1.87,1.8-5.7,1.8h-4.2v9.13h-2.85V427.94h7.05a8,8,0,0,1,5.63,1.79,6.46,6.46,0,0,1,.07,9.14Zm-2.18-1.58a3.82,3.82,0,0,0,1.13-3q0-4.05-4.65-4h-4.2v8h4.2A5.1,5.1,0,0,0,661.36,437.29Z" fill="#202020"/><path d="M674,433.12a6.56,6.56,0,0,1,3.4-.82v2.95h-.75q-4.8,0-4.8,5.2v9.35H669V432.61h2.85v2.79A5.44,5.44,0,0,1,674,433.12Z" fill="#202020"/><path d="M683.77,449a7.86,7.86,0,0,1-3.08-3.13,9.55,9.55,0,0,1-1.11-4.68,9.33,9.33,0,0,1,1.14-4.66,8,8,0,0,1,3.12-3.11,9.61,9.61,0,0,1,8.85,0,7.86,7.86,0,0,1,3.12,3.09,9.33,9.33,0,0,1,1.15,4.68,9.16,9.16,0,0,1-1.18,4.68,8.27,8.27,0,0,1-3.19,3.13,9.11,9.11,0,0,1-4.45,1.09A8.78,8.78,0,0,1,683.77,449Zm7.26-2.14a5.52,5.52,0,0,0,2.18-2.16,7.9,7.9,0,0,0,0-7,5.31,5.31,0,0,0-2.13-2.15,6,6,0,0,0-2.85-.7,5.89,5.89,0,0,0-2.87.7,5.17,5.17,0,0,0-2.09,2.15,7.35,7.35,0,0,0-.78,3.52,7.47,7.47,0,0,0,.76,3.54,5.16,5.16,0,0,0,2.06,2.15,5.78,5.78,0,0,0,2.82.7A6,6,0,0,0,691,446.85Z" fill="#202020"/><path d="M707.71,435h-3.6V449.8h-2.86V435H699v-2.36h2.23v-1.22a5.41,5.41,0,0,1,1.49-4.22c1-.89,2.59-1.33,4.78-1.33v2.38a3.82,3.82,0,0,0-2.65.74,3.26,3.26,0,0,0-.76,2.43v1.22h3.6Z" fill="#202020"/><path d="M711.13,429.26a1.87,1.87,0,0,1-.56-1.38,1.84,1.84,0,0,1,.56-1.38,1.88,1.88,0,0,1,1.38-.57,1.77,1.77,0,0,1,1.33.57,1.87,1.87,0,0,1,.55,1.38,1.9,1.9,0,0,1-.55,1.38,1.8,1.8,0,0,1-1.33.56A1.91,1.91,0,0,1,711.13,429.26Zm2.76,3.35V449.8H711V432.61Z" fill="#202020"/><path d="M721.29,449.41a6.09,6.09,0,0,1-2.48-1.88,5,5,0,0,1-1-2.78h3a2.87,2.87,0,0,0,1.21,2.1,4.53,4.53,0,0,0,2.83.82,4.16,4.16,0,0,0,2.58-.72,2.23,2.23,0,0,0,.94-1.82,1.81,1.81,0,0,0-1-1.68,13.58,13.58,0,0,0-3.1-1.08,23.85,23.85,0,0,1-3.12-1,5.51,5.51,0,0,1-2.07-1.54,4,4,0,0,1-.86-2.68,4.11,4.11,0,0,1,.78-2.42,5.34,5.34,0,0,1,2.23-1.74,8.15,8.15,0,0,1,3.29-.64,7,7,0,0,1,4.61,1.44,5.21,5.21,0,0,1,1.88,4H728.1a3,3,0,0,0-1.08-2.17,4.07,4.07,0,0,0-2.65-.81,4.16,4.16,0,0,0-2.45.65,2,2,0,0,0-.91,1.73,1.9,1.9,0,0,0,.55,1.4,4,4,0,0,0,1.38.87,22.75,22.75,0,0,0,2.3.74,24.92,24.92,0,0,1,3,1,5.28,5.28,0,0,1,2,1.46,3.91,3.91,0,0,1,.86,2.54,4.36,4.36,0,0,1-.78,2.54,5.28,5.28,0,0,1-2.22,1.77,7.85,7.85,0,0,1-3.27.64A8.92,8.92,0,0,1,721.29,449.41Z" fill="#202020"/><path d="M737.66,449.41a6,6,0,0,1-2.47-1.88,5.06,5.06,0,0,1-1-2.78h3a2.87,2.87,0,0,0,1.21,2.1,4.56,4.56,0,0,0,2.84.82,4.15,4.15,0,0,0,2.57-.72,2.2,2.2,0,0,0,.94-1.82,1.8,1.8,0,0,0-1-1.68,13.7,13.7,0,0,0-3.11-1.08,24.9,24.9,0,0,1-3.12-1,5.59,5.59,0,0,1-2.07-1.54,4,4,0,0,1-.86-2.68,4.11,4.11,0,0,1,.78-2.42,5.34,5.34,0,0,1,2.23-1.74,8.15,8.15,0,0,1,3.29-.64,7,7,0,0,1,4.61,1.44,5.21,5.21,0,0,1,1.88,4h-2.85a3,3,0,0,0-1.08-2.17,4.05,4.05,0,0,0-2.65-.81,4.16,4.16,0,0,0-2.45.65,2.06,2.06,0,0,0-.91,1.73,1.9,1.9,0,0,0,.55,1.4,4.17,4.17,0,0,0,1.38.87,23.08,23.08,0,0,0,2.31.74,25.29,25.29,0,0,1,3,1,5.28,5.28,0,0,1,2,1.46,3.91,3.91,0,0,1,.86,2.54,4.36,4.36,0,0,1-.78,2.54,5.31,5.31,0,0,1-2.21,1.77,7.9,7.9,0,0,1-3.28.64A8.92,8.92,0,0,1,737.66,449.41Z" fill="#202020"/><path d="M751.59,429.26a1.87,1.87,0,0,1-.56-1.38,1.84,1.84,0,0,1,.56-1.38,1.88,1.88,0,0,1,1.38-.57,1.77,1.77,0,0,1,1.33.57,1.87,1.87,0,0,1,.55,1.38,1.9,1.9,0,0,1-.55,1.38,1.8,1.8,0,0,1-1.33.56A1.91,1.91,0,0,1,751.59,429.26Zm2.76,3.35V449.8H751.5V432.61Z" fill="#202020"/><path d="M762.33,449a7.9,7.9,0,0,1-3.07-3.13,9.56,9.56,0,0,1-1.12-4.68,9.33,9.33,0,0,1,1.15-4.66,7.84,7.84,0,0,1,3.12-3.11,9.58,9.58,0,0,1,8.84,0,8,8,0,0,1,3.13,3.09,9.32,9.32,0,0,1,1.14,4.68,9.07,9.07,0,0,1-1.18,4.68,8.17,8.17,0,0,1-3.18,3.13,9.14,9.14,0,0,1-4.45,1.09A8.84,8.84,0,0,1,762.33,449Zm7.26-2.14a5.45,5.45,0,0,0,2.18-2.16,6.86,6.86,0,0,0,.83-3.51,7.13,7.13,0,0,0-.81-3.52,5.44,5.44,0,0,0-2.13-2.15,6.21,6.21,0,0,0-5.73,0,5.14,5.14,0,0,0-2.08,2.15,7.24,7.24,0,0,0-.79,3.52,7.47,7.47,0,0,0,.77,3.54,5.14,5.14,0,0,0,2,2.15,5.79,5.79,0,0,0,2.83.7A6,6,0,0,0,769.59,446.85Z" fill="#202020"/><path d="M792.74,434.2a7.28,7.28,0,0,1,1.94,5.47V449.8h-2.82v-9.72a5.56,5.56,0,0,0-1.28-3.94,4.6,4.6,0,0,0-3.52-1.36,4.71,4.71,0,0,0-3.59,1.41,5.76,5.76,0,0,0-1.33,4.11v9.5h-2.86V432.61h2.86v2.45a5.62,5.62,0,0,1,2.3-2,7.21,7.21,0,0,1,3.22-.72A7,7,0,0,1,792.74,434.2Z" fill="#202020"/><path d="M799.36,436.52a7.73,7.73,0,0,1,2.93-3.09,8.06,8.06,0,0,1,4.16-1.1,7.72,7.72,0,0,1,3.92,1,6.53,6.53,0,0,1,2.47,2.45v-3.14h2.89V449.8h-2.89v-3.2a6.56,6.56,0,0,1-2.52,2.49,7.55,7.55,0,0,1-3.91,1,7.76,7.76,0,0,1-4.14-1.13,7.88,7.88,0,0,1-2.91-3.16,9.9,9.9,0,0,1-1.07-4.65A9.67,9.67,0,0,1,799.36,436.52Zm12.7,1.27a5.51,5.51,0,0,0-2.12-2.21,5.68,5.68,0,0,0-2.93-.77,5.8,5.8,0,0,0-2.92.75,5.38,5.38,0,0,0-2.1,2.2,7,7,0,0,0-.78,3.38,7.19,7.19,0,0,0,.78,3.44,5.59,5.59,0,0,0,2.1,2.23,5.71,5.71,0,0,0,2.92.76,5.77,5.77,0,0,0,2.93-.76,5.56,5.56,0,0,0,2.12-2.23,7.11,7.11,0,0,0,.78-3.4A7,7,0,0,0,812.06,437.79Z" fill="#202020"/><path d="M823.41,426.59V449.8h-2.85V426.59Z" fill="#202020"/><path d="M687.29,491.69h-2.2l-8.82-13.38v13.38h-2.2V474.86h2.2l8.82,13.36V474.86h2.2Z" fill="#202020"/><path d="M693.42,491.06a6,6,0,0,1-2.36-2.4,7.32,7.32,0,0,1-.86-3.6,7.22,7.22,0,0,1,.88-3.58,6.13,6.13,0,0,1,2.4-2.39,7.38,7.38,0,0,1,6.8,0,6.17,6.17,0,0,1,2.4,2.38,7.71,7.71,0,0,1,0,7.19,6.28,6.28,0,0,1-2.45,2.4,6.94,6.94,0,0,1-3.42.85A6.72,6.72,0,0,1,693.42,491.06Zm5.58-1.64a4.19,4.19,0,0,0,1.68-1.66,5.29,5.29,0,0,0,.64-2.7,5.39,5.39,0,0,0-.63-2.7,4.07,4.07,0,0,0-1.64-1.65,4.75,4.75,0,0,0-4.4,0,4,4,0,0,0-1.6,1.65,6.47,6.47,0,0,0,0,5.42,4,4,0,0,0,1.58,1.66,4.45,4.45,0,0,0,2.17.54A4.62,4.62,0,0,0,699,489.42Z" fill="#202020"/><path d="M725.09,478.88a4.57,4.57,0,0,1,1.91,1.91,6.47,6.47,0,0,1,.7,3.11v7.79h-2.17v-7.47a4.3,4.3,0,0,0-1-3,3.43,3.43,0,0,0-2.64-1.05,3.52,3.52,0,0,0-2.72,1.1,4.49,4.49,0,0,0-1,3.17v7.28H716v-7.47a4.29,4.29,0,0,0-1-3,3.43,3.43,0,0,0-2.64-1.05,3.54,3.54,0,0,0-2.73,1.1,4.54,4.54,0,0,0-1,3.17v7.28h-2.2V478.48h2.2v1.9a4.33,4.33,0,0,1,1.75-1.59,5.28,5.28,0,0,1,2.42-.55,5.78,5.78,0,0,1,2.94.74,4.59,4.59,0,0,1,1.91,2.2A4.33,4.33,0,0,1,719.5,479a5.34,5.34,0,0,1,2.84-.77A5.72,5.72,0,0,1,725.09,478.88Z" fill="#202020"/><path d="M743.27,485.9H732.71a4.16,4.16,0,0,0,4.29,4.15,4.1,4.1,0,0,0,2.38-.66,3.54,3.54,0,0,0,1.34-1.77h2.36a5.62,5.62,0,0,1-2.12,3.09,6.39,6.39,0,0,1-4,1.2,6.61,6.61,0,0,1-3.36-.85,6,6,0,0,1-2.33-2.4,8.2,8.2,0,0,1,0-7.19,5.8,5.8,0,0,1,2.3-2.38,6.92,6.92,0,0,1,3.41-.83,6.58,6.58,0,0,1,3.33.82,5.68,5.68,0,0,1,2.23,2.25,6.7,6.7,0,0,1,.78,3.25A12.18,12.18,0,0,1,743.27,485.9ZM740.52,482a3.61,3.61,0,0,0-1.5-1.37,4.64,4.64,0,0,0-2.11-.47,4.07,4.07,0,0,0-2.84,1.06,4.31,4.31,0,0,0-1.33,2.94h8.34A4,4,0,0,0,740.52,482Z" fill="#202020"/><rect x="647.81" y="460.83" width="624.94" height="47.05" rx="6" fill="none" stroke="#202020" stroke-miterlimit="10"/><path d="M653.29,564.69a6.53,6.53,0,0,1-2.68-2.14,5.44,5.44,0,0,1-1-3.15h3a4,4,0,0,0,1.27,2.59,4.54,4.54,0,0,0,3.24,1,4.76,4.76,0,0,0,3.22-1,3.31,3.31,0,0,0,1.17-2.62,3,3,0,0,0-.68-2,4.51,4.51,0,0,0-1.73-1.19,29.09,29.09,0,0,0-2.79-.88,23.61,23.61,0,0,1-3.47-1.13,5.4,5.4,0,0,1-2.22-1.77,5.18,5.18,0,0,1-.93-3.24,5.59,5.59,0,0,1,.91-3.17,6,6,0,0,1,2.56-2.14,9,9,0,0,1,3.78-.75,7.88,7.88,0,0,1,5,1.54,5.66,5.66,0,0,1,2.21,4.08h-3.14a3.34,3.34,0,0,0-1.31-2.21,4.69,4.69,0,0,0-3.08-1,4.47,4.47,0,0,0-2.91.92,3.15,3.15,0,0,0-1.13,2.59,2.82,2.82,0,0,0,.67,2,4.4,4.4,0,0,0,1.66,1.14c.66.26,1.59.56,2.78.89a26.14,26.14,0,0,1,3.48,1.18A5.81,5.81,0,0,1,663.5,556a5.18,5.18,0,0,1,.94,3.28,5.72,5.72,0,0,1-.85,3,6.22,6.22,0,0,1-2.51,2.29,8.31,8.31,0,0,1-3.92.88A9.38,9.38,0,0,1,653.29,564.69Z" fill="#202020"/><path d="M684.23,557.71H670.49a5.63,5.63,0,0,0,1.74,4,5.56,5.56,0,0,0,3.85,1.42,5.26,5.26,0,0,0,3.09-.86,4.58,4.58,0,0,0,1.74-2.31H684a7.34,7.34,0,0,1-2.76,4,8.29,8.29,0,0,1-5.14,1.56,8.74,8.74,0,0,1-4.38-1.1,7.85,7.85,0,0,1-3-3.12,9.7,9.7,0,0,1-1.09-4.69,9.81,9.81,0,0,1,1.06-4.67,7.45,7.45,0,0,1,3-3.09,8.9,8.9,0,0,1,4.44-1.08,8.59,8.59,0,0,1,4.32,1.06,7.39,7.39,0,0,1,2.91,2.93,8.69,8.69,0,0,1,1,4.22C684.33,556.53,684.29,557.1,684.23,557.71Zm-3.57-5.13a4.83,4.83,0,0,0-2-1.79,6.1,6.1,0,0,0-2.75-.61,5.27,5.27,0,0,0-3.68,1.38,5.58,5.58,0,0,0-1.74,3.83h10.85A5.27,5.27,0,0,0,680.66,552.58Z" fill="#202020"/><path d="M701.54,549.63a7.3,7.3,0,0,1,2,5.47v10.14h-2.82v-9.73a5.51,5.51,0,0,0-1.29-3.93,4.6,4.6,0,0,0-3.51-1.37,4.68,4.68,0,0,0-3.59,1.41,5.76,5.76,0,0,0-1.34,4.11v9.51h-2.85V548.05h2.85v2.44a5.76,5.76,0,0,1,2.31-2,7.62,7.62,0,0,1,8.29,1.17Z" fill="#202020"/><path d="M720.21,548.57a5.91,5.91,0,0,1,2.46,2.49,8.52,8.52,0,0,1,.89,4v10.14h-2.82v-9.73a5.51,5.51,0,0,0-1.29-3.93,4.59,4.59,0,0,0-3.51-1.37,4.71,4.71,0,0,0-3.59,1.41,5.76,5.76,0,0,0-1.33,4.11v9.51h-2.86V542H711v8.46a5.63,5.63,0,0,1,2.33-2,7.48,7.48,0,0,1,3.34-.73A7.35,7.35,0,0,1,720.21,548.57Z" fill="#202020"/><path d="M728.24,552a7.79,7.79,0,0,1,2.93-3.09,8,8,0,0,1,4.15-1.09,7.57,7.57,0,0,1,3.92,1,6.46,6.46,0,0,1,2.48,2.44v-3.13h2.89v17.19h-2.89V562a6.7,6.7,0,0,1-2.52,2.49,7.55,7.55,0,0,1-3.91,1,7.75,7.75,0,0,1-7-4.3,9.77,9.77,0,0,1-1.07-4.64A9.56,9.56,0,0,1,728.24,552Zm12.7,1.27a5.51,5.51,0,0,0-2.12-2.21,5.78,5.78,0,0,0-2.93-.77A5.71,5.71,0,0,0,733,551a5.41,5.41,0,0,0-2.1,2.19,7,7,0,0,0-.78,3.39,7.15,7.15,0,0,0,.78,3.43,5.46,5.46,0,0,0,2.1,2.23,5.71,5.71,0,0,0,2.92.77,5.78,5.78,0,0,0,2.93-.77,5.44,5.44,0,0,0,2.12-2.23,7.78,7.78,0,0,0,0-6.79Z" fill="#202020"/><path d="M675.71,592.1v5.62h6.13v1.81h-6.13v5.79h6.85v1.8h-9V590.29h9v1.81Z" fill="#202020"/><path d="M692.78,607.12l-3.13-4.91-3,4.91h-2.3l4.27-6.55-4.27-6.66h2.49l3.13,4.9,3-4.9h2.29L691,600.45l4.27,6.67Z" fill="#202020"/><path d="M709.42,601.34H698.86a4.14,4.14,0,0,0,4.29,4.14,4.1,4.1,0,0,0,2.38-.66,3.47,3.47,0,0,0,1.33-1.77h2.37a5.73,5.73,0,0,1-2.12,3.1,6.46,6.46,0,0,1-4,1.19,6.7,6.7,0,0,1-3.36-.84,6,6,0,0,1-2.33-2.4,8.22,8.22,0,0,1,0-7.2,5.65,5.65,0,0,1,2.3-2.37,6.81,6.81,0,0,1,3.41-.84,6.71,6.71,0,0,1,3.33.82,5.7,5.7,0,0,1,2.23,2.26,6.66,6.66,0,0,1,.78,3.24A12.5,12.5,0,0,1,709.42,601.34Zm-2.75-3.94a3.53,3.53,0,0,0-1.51-1.38,4.71,4.71,0,0,0-2.11-.47,4.06,4.06,0,0,0-2.83,1.06,4.36,4.36,0,0,0-1.34,2.94h8.35A4,4,0,0,0,706.67,597.4Z" fill="#202020"/><path d="M731,594.31a4.59,4.59,0,0,1,1.91,1.92,6.44,6.44,0,0,1,.7,3.11v7.78h-2.17v-7.47a4.3,4.3,0,0,0-1-3,3.43,3.43,0,0,0-2.64-1,3.52,3.52,0,0,0-2.72,1.1,4.49,4.49,0,0,0-1,3.17v7.28h-2.17v-7.47a4.29,4.29,0,0,0-1-3,3.43,3.43,0,0,0-2.64-1,3.56,3.56,0,0,0-2.73,1.1,4.54,4.54,0,0,0-1,3.17v7.28h-2.19V593.91h2.19v1.91a4.36,4.36,0,0,1,1.75-1.6,5.28,5.28,0,0,1,2.42-.55,5.69,5.69,0,0,1,2.94.75,4.61,4.61,0,0,1,1.91,2.19,4.37,4.37,0,0,1,1.83-2.17,5.44,5.44,0,0,1,2.85-.77A5.71,5.71,0,0,1,731,594.31Z" fill="#202020"/><path d="M741.35,594.45a5.88,5.88,0,0,1,3-.76,6.21,6.21,0,0,1,3.19.85,5.94,5.94,0,0,1,2.26,2.37,7.51,7.51,0,0,1,.82,3.56,7.7,7.7,0,0,1-.82,3.57,6,6,0,0,1-5.45,3.3,5.72,5.72,0,0,1-3-.76,5.43,5.43,0,0,1-2-1.89v8.7h-2.19V593.91h2.19v2.44A5.36,5.36,0,0,1,741.35,594.45Zm6.43,3.42a4.09,4.09,0,0,0-1.63-1.69,4.58,4.58,0,0,0-4.48,0A4.3,4.3,0,0,0,740,597.9a5.31,5.31,0,0,0-.62,2.59,5.37,5.37,0,0,0,.62,2.62,4.32,4.32,0,0,0,3.87,2.3,4.35,4.35,0,0,0,2.25-.59,4.14,4.14,0,0,0,1.63-1.71,5.53,5.53,0,0,0,.6-2.64A5.34,5.34,0,0,0,747.78,597.87Z" fill="#202020"/><path d="M755.71,589.28v17.84h-2.19V589.28Z" fill="#202020"/><path d="M761.85,606.5a6.05,6.05,0,0,1-2.36-2.4,7.38,7.38,0,0,1-.86-3.61,7.12,7.12,0,0,1,.88-3.58,6.1,6.1,0,0,1,2.4-2.38,7.3,7.3,0,0,1,6.8,0,6.08,6.08,0,0,1,2.4,2.37,7.21,7.21,0,0,1,.88,3.59,7,7,0,0,1-.91,3.61,6.32,6.32,0,0,1-2.44,2.4,7.05,7.05,0,0,1-3.43.84A6.76,6.76,0,0,1,761.85,606.5Zm5.58-1.64a4.28,4.28,0,0,0,1.68-1.67,6.06,6.06,0,0,0,0-5.4,4.13,4.13,0,0,0-1.64-1.65,4.75,4.75,0,0,0-4.4,0,3.92,3.92,0,0,0-1.6,1.65,5.5,5.5,0,0,0-.61,2.7,5.8,5.8,0,0,0,.59,2.73,3.94,3.94,0,0,0,1.58,1.65,4.45,4.45,0,0,0,2.17.54A4.62,4.62,0,0,0,767.43,604.86Z" fill="#202020"/><path d="M784.88,591.34a7.21,7.21,0,0,1,3.08,2.93,9,9,0,0,1,1.08,4.49,8.86,8.86,0,0,1-1.08,4.47,7,7,0,0,1-3.08,2.89,10.58,10.58,0,0,1-4.77,1h-5.23v-16.8h5.23A10.45,10.45,0,0,1,784.88,591.34Zm.2,12.25a6.56,6.56,0,0,0,1.71-4.83,6.72,6.72,0,0,0-1.72-4.9,6.64,6.64,0,0,0-5-1.76h-3v13.22h3A6.7,6.7,0,0,0,785.08,603.59Z" fill="#202020"/><path d="M803.91,601.34H793.35a4.14,4.14,0,0,0,4.29,4.14,4.1,4.1,0,0,0,2.38-.66,3.54,3.54,0,0,0,1.34-1.77h2.36a5.73,5.73,0,0,1-2.12,3.1,6.44,6.44,0,0,1-4,1.19,6.7,6.7,0,0,1-3.36-.84,6,6,0,0,1-2.33-2.4,8.22,8.22,0,0,1,0-7.2,5.65,5.65,0,0,1,2.3-2.37,6.81,6.81,0,0,1,3.41-.84,6.71,6.71,0,0,1,3.33.82,5.7,5.7,0,0,1,2.23,2.26A6.66,6.66,0,0,1,804,600,12.5,12.5,0,0,1,803.91,601.34Zm-2.75-3.94a3.56,3.56,0,0,0-1.5-1.38,4.77,4.77,0,0,0-2.11-.47,4.07,4.07,0,0,0-2.84,1.06,4.31,4.31,0,0,0-1.33,2.94h8.34A4,4,0,0,0,801.16,597.4Z" fill="#202020"/><path d="M809.23,606.7a4.85,4.85,0,0,1-2.06-1.64,4.21,4.21,0,0,1-.78-2.42h2.34a3.09,3.09,0,0,0,1,2,3.5,3.5,0,0,0,2.5.81,3.68,3.68,0,0,0,2.47-.79,2.54,2.54,0,0,0,.9-2,2.31,2.31,0,0,0-.53-1.57,3.4,3.4,0,0,0-1.33-.91,19.86,19.86,0,0,0-2.14-.68,19.07,19.07,0,0,1-2.67-.87,4.36,4.36,0,0,1-1.71-1.36,4,4,0,0,1-.71-2.5,4.3,4.3,0,0,1,.7-2.43,4.57,4.57,0,0,1,2-1.64,6.83,6.83,0,0,1,2.9-.58,6.11,6.11,0,0,1,3.87,1.18,4.37,4.37,0,0,1,1.7,3.14h-2.41a2.6,2.6,0,0,0-1-1.7,3.63,3.63,0,0,0-2.37-.74,3.45,3.45,0,0,0-2.24.71,2.44,2.44,0,0,0-.87,2,2.21,2.21,0,0,0,.52,1.5,3.41,3.41,0,0,0,1.28.88q.76.3,2.13.69a18.81,18.81,0,0,1,2.68.9,4.5,4.5,0,0,1,1.74,1.37,4,4,0,0,1,.72,2.52,4.5,4.5,0,0,1-.65,2.32,4.86,4.86,0,0,1-1.93,1.76,6.36,6.36,0,0,1-3,.67A7.08,7.08,0,0,1,809.23,606.7Z" fill="#202020"/><path d="M833,601.34H822.45a4.14,4.14,0,0,0,4.3,4.14,4.08,4.08,0,0,0,2.37-.66,3.54,3.54,0,0,0,1.34-1.77h2.36a5.68,5.68,0,0,1-2.12,3.1,6.43,6.43,0,0,1-4,1.19,6.72,6.72,0,0,1-3.37-.84,6.11,6.11,0,0,1-2.33-2.4,8.22,8.22,0,0,1,0-7.2,5.71,5.71,0,0,1,2.3-2.37,6.83,6.83,0,0,1,3.42-.84,6.67,6.67,0,0,1,3.32.82,5.64,5.64,0,0,1,2.23,2.26,6.67,6.67,0,0,1,.79,3.24A12.61,12.61,0,0,1,833,601.34Zm-2.75-3.94a3.51,3.51,0,0,0-1.5-1.38,4.77,4.77,0,0,0-2.11-.47,4,4,0,0,0-2.83,1.06,4.32,4.32,0,0,0-1.34,2.94h8.34A4,4,0,0,0,830.26,597.4Z" fill="#202020"/><path d="M846.32,595.13a5.59,5.59,0,0,1,1.5,4.21v7.78h-2.17v-7.47a4.25,4.25,0,0,0-1-3,3.53,3.53,0,0,0-2.7-1,3.62,3.62,0,0,0-2.76,1.09,4.41,4.41,0,0,0-1,3.16v7.3H836V593.91h2.19v1.88a4.45,4.45,0,0,1,1.78-1.57,5.46,5.46,0,0,1,2.47-.55A5.35,5.35,0,0,1,846.32,595.13Z" fill="#202020"/><path d="M860.67,594.31a4.55,4.55,0,0,1,1.89,1.92,6.44,6.44,0,0,1,.69,3.11v7.78h-2.17v-7.47a4.25,4.25,0,0,0-1-3,3.53,3.53,0,0,0-2.7-1,3.62,3.62,0,0,0-2.76,1.09,4.45,4.45,0,0,0-1,3.16v7.3h-2.19V589.28h2.19v6.51a4.44,4.44,0,0,1,1.8-1.57,5.8,5.8,0,0,1,2.57-.55A5.64,5.64,0,0,1,860.67,594.31Z" fill="#202020"/><path d="M866.84,596.91a5.94,5.94,0,0,1,2.26-2.37,6.19,6.19,0,0,1,3.19-.85,5.82,5.82,0,0,1,3,.75,5,5,0,0,1,1.91,1.88v-2.41h2.22v13.21h-2.22v-2.45a5.09,5.09,0,0,1-1.94,1.91,5.77,5.77,0,0,1-3,.76,6,6,0,0,1-3.19-.87,6.19,6.19,0,0,1-2.24-2.43,7.58,7.58,0,0,1-.82-3.57A7.4,7.4,0,0,1,866.84,596.91Zm9.77,1a4.24,4.24,0,0,0-1.63-1.7,4.62,4.62,0,0,0-4.5,0,4.17,4.17,0,0,0-1.61,1.69,5.23,5.23,0,0,0-.61,2.6,5.42,5.42,0,0,0,.61,2.64,4.23,4.23,0,0,0,1.61,1.71,4.59,4.59,0,0,0,4.5,0,4.21,4.21,0,0,0,1.63-1.71,5.48,5.48,0,0,0,.6-2.62A5.4,5.4,0,0,0,876.61,597.89Z" fill="#202020"/><rect x="647.25" y="576.26" width="624.94" height="47.05" rx="6" fill="none" stroke="#202020" stroke-miterlimit="10"/><path d="M653.09,666h7.65v2.32H650.23V646.49h2.86Z" fill="#202020"/><path d="M666.9,667.53a7.81,7.81,0,0,1-3.07-3.12,9.6,9.6,0,0,1-1.12-4.69,9.32,9.32,0,0,1,1.15-4.65A7.84,7.84,0,0,1,667,652a9.61,9.61,0,0,1,8.85,0,8,8,0,0,1,3.12,3.09,9.31,9.31,0,0,1,1.14,4.67,9.2,9.2,0,0,1-1.17,4.69,8.17,8.17,0,0,1-3.19,3.12,9,9,0,0,1-4.45,1.1A8.74,8.74,0,0,1,666.9,667.53Zm7.26-2.13a5.45,5.45,0,0,0,2.18-2.16,6.89,6.89,0,0,0,.83-3.52,7.06,7.06,0,0,0-.81-3.51,5.44,5.44,0,0,0-2.13-2.15,6.21,6.21,0,0,0-5.73,0,5.14,5.14,0,0,0-2.08,2.15,7.17,7.17,0,0,0-.79,3.51,7.48,7.48,0,0,0,.77,3.55,5.1,5.1,0,0,0,2.06,2.15,5.73,5.73,0,0,0,2.82.7A6,6,0,0,0,674.16,665.4Z" fill="#202020"/><path d="M694.85,651.85a6.45,6.45,0,0,1,2.49,2.45v-3.14h2.89v17.57a8.56,8.56,0,0,1-1,4.18,7.08,7.08,0,0,1-2.87,2.87,8.79,8.79,0,0,1-4.34,1,9.52,9.52,0,0,1-5.65-1.6,6.26,6.26,0,0,1-2.66-4.36h2.82a4.44,4.44,0,0,0,2,2.52,6.33,6.33,0,0,0,3.54,1,5.22,5.22,0,0,0,3.84-1.47,5.6,5.6,0,0,0,1.49-4.14v-3.61a6.86,6.86,0,0,1-2.51,2.51,7.36,7.36,0,0,1-3.89,1,7.81,7.81,0,0,1-7.08-4.3,9.71,9.71,0,0,1-1.07-4.64,9.52,9.52,0,0,1,1.07-4.62,7.66,7.66,0,0,1,2.93-3.09,8,8,0,0,1,4.15-1.1A7.64,7.64,0,0,1,694.85,651.85Zm1.71,4.49a5.51,5.51,0,0,0-2.12-2.21,5.7,5.7,0,0,0-2.93-.77,5.8,5.8,0,0,0-2.92.75,5.38,5.38,0,0,0-2.1,2.2,7,7,0,0,0-.78,3.38,7.19,7.19,0,0,0,.78,3.44,5.49,5.49,0,0,0,2.1,2.22,5.62,5.62,0,0,0,2.92.77,5.7,5.7,0,0,0,2.93-.77,5.47,5.47,0,0,0,2.12-2.22,7.12,7.12,0,0,0,.78-3.41A7,7,0,0,0,696.56,656.34Z" fill="#202020"/><path d="M705.15,647.81a1.91,1.91,0,0,1-.56-1.38,1.93,1.93,0,0,1,1.94-1.95,1.77,1.77,0,0,1,1.33.57,1.87,1.87,0,0,1,.55,1.38,1.9,1.9,0,0,1-.55,1.38,1.8,1.8,0,0,1-1.33.56A1.91,1.91,0,0,1,705.15,647.81Zm2.76,3.35v17.19h-2.85V651.16Z" fill="#202020"/><path d="M726.23,652.75a7.3,7.3,0,0,1,1.94,5.47v10.13h-2.82v-9.72a5.52,5.52,0,0,0-1.29-3.94,4.57,4.57,0,0,0-3.51-1.36,4.7,4.7,0,0,0-3.59,1.41,5.76,5.76,0,0,0-1.33,4.11v9.5h-2.86V651.16h2.86v2.45a5.62,5.62,0,0,1,2.3-2,7.18,7.18,0,0,1,3.22-.72A7,7,0,0,1,726.23,652.75Z" fill="#202020"/><path d="M677.65,702.57a5.78,5.78,0,0,1,3-.76,6.21,6.21,0,0,1,3.19.84A5.93,5.93,0,0,1,686.1,705a7.35,7.35,0,0,1,.82,3.55,7.52,7.52,0,0,1-.82,3.57,6,6,0,0,1-2.25,2.44,6,6,0,0,1-3.19.87,5.82,5.82,0,0,1-3-.76,5.46,5.46,0,0,1-2-1.9v8.71h-2.19V702h2.19v2.43A5.34,5.34,0,0,1,677.65,702.57Zm6.43,3.41a4.22,4.22,0,0,0-1.63-1.69,4.54,4.54,0,0,0-2.25-.58,4.4,4.4,0,0,0-2.23.59,4.32,4.32,0,0,0-1.64,1.72,5.76,5.76,0,0,0,0,5.2,4.32,4.32,0,0,0,1.64,1.72,4.4,4.4,0,0,0,2.23.59,4.45,4.45,0,0,0,2.25-.59,4.3,4.3,0,0,0,1.63-1.72,5.48,5.48,0,0,0,.6-2.64A5.4,5.4,0,0,0,684.08,706Z" fill="#202020"/><path d="M693.66,702.41a5.11,5.11,0,0,1,2.62-.62v2.26h-.58c-2.46,0-3.69,1.34-3.69,4v7.19h-2.19V702H692v2.14A4.31,4.31,0,0,1,693.66,702.41Z" fill="#202020"/><path d="M701.21,714.61a6,6,0,0,1-2.36-2.4,7.34,7.34,0,0,1-.86-3.6,7.09,7.09,0,0,1,.88-3.58,6.13,6.13,0,0,1,2.4-2.39,7.38,7.38,0,0,1,6.8,0,6.17,6.17,0,0,1,2.4,2.38,7.15,7.15,0,0,1,.88,3.59,7,7,0,0,1-.91,3.6,6.19,6.19,0,0,1-2.44,2.4,7.06,7.06,0,0,1-3.43.85A6.76,6.76,0,0,1,701.21,714.61Zm5.58-1.64a4.25,4.25,0,0,0,1.68-1.66,6.06,6.06,0,0,0,0-5.4,4.13,4.13,0,0,0-1.64-1.65,4.67,4.67,0,0,0-4.4,0,3.92,3.92,0,0,0-1.6,1.65,5.5,5.5,0,0,0-.61,2.7,5.76,5.76,0,0,0,.59,2.72A3.94,3.94,0,0,0,702.4,713a4.38,4.38,0,0,0,2.17.55A4.63,4.63,0,0,0,706.79,713Z" fill="#202020"/><path d="M719.62,703.83h-2.77v11.41h-2.2V703.83h-1.71V702h1.71v-.94a4.15,4.15,0,0,1,1.15-3.25,5.44,5.44,0,0,1,3.67-1v1.83a2.88,2.88,0,0,0-2,.57,2.47,2.47,0,0,0-.59,1.87V702h2.77Z" fill="#202020"/><path d="M722.25,699.45a1.5,1.5,0,0,1,1.06-2.56,1.4,1.4,0,0,1,1,.43,1.56,1.56,0,0,1,0,2.13,1.36,1.36,0,0,1-1,.43A1.43,1.43,0,0,1,722.25,699.45Zm2.12,2.58v13.21h-2.2V702Z" fill="#202020"/><path d="M730.06,714.94a4.63,4.63,0,0,1-1.91-1.45,3.91,3.91,0,0,1-.77-2.13h2.27a2.19,2.19,0,0,0,.93,1.61,3.51,3.51,0,0,0,2.18.63,3.15,3.15,0,0,0,2-.56,1.67,1.67,0,0,0,.72-1.39,1.38,1.38,0,0,0-.77-1.29,11.28,11.28,0,0,0-2.39-.84,16.15,16.15,0,0,1-2.4-.78,4.19,4.19,0,0,1-1.59-1.18,3.09,3.09,0,0,1-.66-2.06,3.13,3.13,0,0,1,.6-1.86A4.09,4.09,0,0,1,730,702.3a6.14,6.14,0,0,1,2.53-.49,5.41,5.41,0,0,1,3.55,1.11,4,4,0,0,1,1.45,3h-2.2a2.31,2.31,0,0,0-.83-1.67,3.16,3.16,0,0,0-2-.62,3.13,3.13,0,0,0-1.88.5,1.56,1.56,0,0,0-.7,1.33,1.45,1.45,0,0,0,.42,1.07,3.17,3.17,0,0,0,1.06.68c.43.17,1,.35,1.78.56a19.54,19.54,0,0,1,2.31.76,4.05,4.05,0,0,1,1.53,1.12,3,3,0,0,1,.67,2,3.36,3.36,0,0,1-.61,2,4,4,0,0,1-1.7,1.36,6.06,6.06,0,0,1-2.52.5A6.91,6.91,0,0,1,730.06,714.94Z" fill="#202020"/><path d="M742.64,714.94a4.66,4.66,0,0,1-1.9-1.45,3.83,3.83,0,0,1-.77-2.13h2.26a2.25,2.25,0,0,0,.93,1.61,3.53,3.53,0,0,0,2.18.63,3.11,3.11,0,0,0,2-.56,1.68,1.68,0,0,0,.73-1.39,1.37,1.37,0,0,0-.78-1.29,11.15,11.15,0,0,0-2.38-.84,16.15,16.15,0,0,1-2.4-.78,4.19,4.19,0,0,1-1.59-1.18,3,3,0,0,1-.67-2.06,3.07,3.07,0,0,1,.61-1.86,4.09,4.09,0,0,1,1.71-1.34,6.14,6.14,0,0,1,2.53-.49,5.4,5.4,0,0,1,3.54,1.11,4,4,0,0,1,1.45,3h-2.19a2.29,2.29,0,0,0-.84-1.67,3.7,3.7,0,0,0-3.91-.12,1.56,1.56,0,0,0-.7,1.33,1.45,1.45,0,0,0,.42,1.07,3.07,3.07,0,0,0,1.06.68c.43.17,1,.35,1.77.56a19.78,19.78,0,0,1,2.32.76,4.21,4.21,0,0,1,1.53,1.12,3.06,3.06,0,0,1,.66,2,3.36,3.36,0,0,1-.6,2,4,4,0,0,1-1.7,1.36,6.06,6.06,0,0,1-2.52.5A7,7,0,0,1,742.64,714.94Z" fill="#202020"/><path d="M753.35,699.45a1.53,1.53,0,0,1,0-2.13,1.47,1.47,0,0,1,1.06-.43,1.44,1.44,0,0,1,1,.43,1.56,1.56,0,0,1,0,2.13,1.4,1.4,0,0,1-1,.43A1.43,1.43,0,0,1,753.35,699.45Zm2.12,2.58v13.21h-2.19V702Z" fill="#202020"/><path d="M761.61,714.61a5.93,5.93,0,0,1-2.36-2.4,7.24,7.24,0,0,1-.86-3.6,7.09,7.09,0,0,1,.88-3.58,6.13,6.13,0,0,1,2.4-2.39,7.38,7.38,0,0,1,6.8,0,6.17,6.17,0,0,1,2.4,2.38,7.15,7.15,0,0,1,.88,3.59,7,7,0,0,1-.91,3.6,6.25,6.25,0,0,1-2.44,2.4,7.06,7.06,0,0,1-3.43.85A6.76,6.76,0,0,1,761.61,714.61Zm5.58-1.64a4.25,4.25,0,0,0,1.68-1.66,6.14,6.14,0,0,0,0-5.4,4.13,4.13,0,0,0-1.64-1.65,4.52,4.52,0,0,0-2.2-.55,4.44,4.44,0,0,0-2.2.55,4,4,0,0,0-1.61,1.65,5.61,5.61,0,0,0-.6,2.7,5.76,5.76,0,0,0,.59,2.72A3.94,3.94,0,0,0,762.8,713a4.35,4.35,0,0,0,2.17.55A4.63,4.63,0,0,0,767.19,713Z" fill="#202020"/><path d="M785,703.24a5.62,5.62,0,0,1,1.5,4.21v7.79h-2.17v-7.48a4.24,4.24,0,0,0-1-3,3.53,3.53,0,0,0-2.7-1,3.62,3.62,0,0,0-2.76,1.08,4.42,4.42,0,0,0-1,3.16v7.31h-2.19V702h2.19v1.88a4.37,4.37,0,0,1,1.78-1.57,5.46,5.46,0,0,1,2.47-.55A5.35,5.35,0,0,1,785,703.24Z" fill="#202020"/><path d="M790.07,705a6,6,0,0,1,2.26-2.38,6.18,6.18,0,0,1,3.19-.84,5.82,5.82,0,0,1,3,.75,4.87,4.87,0,0,1,1.91,1.88V702h2.22v13.21h-2.22v-2.46a5.26,5.26,0,0,1-1.94,1.92,5.86,5.86,0,0,1-3,.76,6,6,0,0,1-3.19-.87,6.15,6.15,0,0,1-2.24-2.44,7.52,7.52,0,0,1-.82-3.57A7.35,7.35,0,0,1,790.07,705Zm9.77,1a4.31,4.31,0,0,0-3.88-2.29,4.51,4.51,0,0,0-2.25.58A4.24,4.24,0,0,0,792.1,706a5.29,5.29,0,0,0-.61,2.6,5.37,5.37,0,0,0,.61,2.64,4.32,4.32,0,0,0,1.61,1.72,4.42,4.42,0,0,0,2.25.59,4.47,4.47,0,0,0,2.25-.59,4.37,4.37,0,0,0,1.63-1.72,6,6,0,0,0,0-5.22Z" fill="#202020"/><path d="M808.56,697.4v17.84h-2.19V697.4Z" fill="#202020"/><path d="M811.94,715a1.5,1.5,0,0,1,1.06-2.56,1.41,1.41,0,0,1,1,.44,1.55,1.55,0,0,1,0,2.12,1.4,1.4,0,0,1-1,.43A1.43,1.43,0,0,1,811.94,715Z" fill="#202020"/><path d="M827.71,703.24a5.62,5.62,0,0,1,1.49,4.21v7.79H827v-7.48a4.29,4.29,0,0,0-1-3,3.54,3.54,0,0,0-2.71-1,3.65,3.65,0,0,0-2.76,1.08,4.46,4.46,0,0,0-1,3.16v7.31h-2.19V702h2.19v1.88a4.28,4.28,0,0,1,1.77-1.57,5.49,5.49,0,0,1,2.47-.55A5.37,5.37,0,0,1,827.71,703.24Z" fill="#202020"/><path d="M835.2,714.61a6,6,0,0,1-2.37-2.4,7.34,7.34,0,0,1-.85-3.6,7.09,7.09,0,0,1,.88-3.58,6,6,0,0,1,2.4-2.39,7.36,7.36,0,0,1,6.79,0,6,6,0,0,1,2.4,2.38,7.71,7.71,0,0,1,0,7.19,6.21,6.21,0,0,1-2.45,2.4,7,7,0,0,1-3.42.85A6.76,6.76,0,0,1,835.2,714.61Zm5.58-1.64a4.16,4.16,0,0,0,1.67-1.66,5.29,5.29,0,0,0,.64-2.7,5.39,5.39,0,0,0-.63-2.7,4,4,0,0,0-1.63-1.65,4.7,4.7,0,0,0-4.41,0,4,4,0,0,0-1.6,1.65,5.61,5.61,0,0,0-.6,2.7,5.76,5.76,0,0,0,.59,2.72,3.88,3.88,0,0,0,1.58,1.65,4.35,4.35,0,0,0,2.17.55A4.63,4.63,0,0,0,840.78,713Z" fill="#202020"/><path d="M866.87,702.42a4.69,4.69,0,0,1,1.9,1.92,6.35,6.35,0,0,1,.7,3.11v7.79H867.3v-7.48a4.29,4.29,0,0,0-1-3,3.43,3.43,0,0,0-2.64-1,3.52,3.52,0,0,0-2.72,1.1,4.49,4.49,0,0,0-1,3.17v7.28h-2.17v-7.48a4.29,4.29,0,0,0-1-3,3.43,3.43,0,0,0-2.64-1,3.56,3.56,0,0,0-2.73,1.1,4.54,4.54,0,0,0-1,3.17v7.28h-2.19V702h2.19v1.9a4.4,4.4,0,0,1,1.75-1.59,5.28,5.28,0,0,1,2.42-.55,5.75,5.75,0,0,1,2.95.74,4.57,4.57,0,0,1,1.9,2.2,4.29,4.29,0,0,1,1.83-2.17,5.35,5.35,0,0,1,2.85-.77A5.87,5.87,0,0,1,866.87,702.42Z" fill="#202020"/><path d="M885.05,709.45H874.49a4.15,4.15,0,0,0,4.29,4.15,4,4,0,0,0,2.37-.66,3.51,3.51,0,0,0,1.34-1.78h2.36a5.65,5.65,0,0,1-2.12,3.1,6.38,6.38,0,0,1-4,1.2,6.72,6.72,0,0,1-3.37-.85,5.9,5.9,0,0,1-2.32-2.4,7.34,7.34,0,0,1-.85-3.6,7.58,7.58,0,0,1,.82-3.59,5.82,5.82,0,0,1,2.31-2.38,6.86,6.86,0,0,1,3.41-.83,6.57,6.57,0,0,1,3.32.82,5.68,5.68,0,0,1,2.23,2.25,6.6,6.6,0,0,1,.79,3.25C885.12,708.54,885.09,709,885.05,709.45Zm-2.75-3.94a3.63,3.63,0,0,0-1.51-1.37,4.61,4.61,0,0,0-2.11-.47,4,4,0,0,0-2.83,1.06,4.28,4.28,0,0,0-1.34,2.94h8.34A4,4,0,0,0,882.3,705.51Z" fill="#202020"/><rect x="647.25" y="684.38" width="624.94" height="47.05" rx="6" fill="none" stroke="#202020" stroke-miterlimit="10"/><path d="M148.37,50.79V59l5.06.84a15.65,15.65,0,0,0,1.6,3.84l-3,4.12,5.81,5.9,4.22-2.91a19.74,19.74,0,0,0,3.84,1.6l.85,5H175l.84-5.06a16.78,16.78,0,0,0,3.84-1.59l4.13,2.9,5.91-5.8-3-4.12a18.91,18.91,0,0,0,1.59-3.93l5.06-.75V50.79L188.31,50a18.15,18.15,0,0,0-1.59-3.84l3-4.21-5.82-5.81-4.22,3a18.17,18.17,0,0,0-3.93-1.59l-.85-5h-8.25l-.84,5.05A20.07,20.07,0,0,0,162,39.18l-4.22-3L151.93,42l3,4.21A18.15,18.15,0,0,0,153.34,50Zm22.47-4.53a8.63,8.63,0,1,1-8.62,8.62A8.6,8.6,0,0,1,170.84,46.26Z" fill="#fff"/></svg>