<svg xmlns="http://www.w3.org/2000/svg" viewBox="0 0 26.67 24"><defs><style>.cls-1{fill:#fff;}</style></defs><g id="Camada_2" data-name="Camada 2"><g id="Camada_1-2" data-name="Camada 1"><path class="cls-1" d="M10.93,5.47a5.48,5.48,0,1,0-1.78,4l2.7,2.5h0L9.14,14.51a5.45,5.45,0,1,0,1.79,4,5.32,5.32,0,0,0-.16-1.27l4.21-3,6.12,4.54c3.27,2.3,5.57-1,5.57-1L10.77,6.74A5.32,5.32,0,0,0,10.93,5.47ZM5.47,8.13A2.67,2.67,0,1,1,8.13,5.47,2.66,2.66,0,0,1,5.47,8.13Zm0,13.07a2.67,2.67,0,1,1,2.66-2.67A2.66,2.66,0,0,1,5.47,21.2ZM26.67,6.13s-2.3-3.28-5.57-1L16.35,8.46l3.49,2.44Z"/></g></g></svg>