<svg xmlns="http://www.w3.org/2000/svg" viewBox="0 0 29.15 22.91"><defs><style>.cls-1{fill:#fff;}</style></defs><g id="Camada_2" data-name="Camada 2"><g id="Camada_1-2" data-name="Camada 1"><path class="cls-1" d="M6.24,5.27a1.86,1.86,0,0,0,0,.55s0,.07,0,.1,0,.3,0,.45a4.74,4.74,0,0,0,9.46-.45c0-.13,0-.26,0-.38s0-.32.05-.51.09-1.86-.45-1.89c0-.87-.32-.87-.44-1.1s-.22-.87-.46-.9c.12.46.07.52,0,.46s-.62-1.15-1-1.17a2.37,2.37,0,0,1,.49.84A9.2,9.2,0,0,0,11,0,4.28,4.28,0,0,0,9,.73.87.87,0,0,1,9.25,0C9-.07,8.64.63,8.58.74a3.59,3.59,0,0,0-1,.18A3,3,0,0,0,6.42,2.05,3.38,3.38,0,0,0,6.18,3.7c0,.13-.21.41-.17.71S6.31,5.07,6.24,5.27Zm.89,1.26c.12-.38.36-.53.35-.77,0-.42-.29-.34-.29-.78a2.35,2.35,0,0,1,.11-.73,3.7,3.7,0,0,1,.59-.92c.63-.19,2.52.43,2.93.28a5.56,5.56,0,0,1,2.81-.21c.36.08.83.6,1,1.47a11,11,0,0,1,.23,1.93,4,4,0,0,1-7.84.09A1.6,1.6,0,0,1,7.13,6.53Z"/><path class="cls-1" d="M23.67,5.64a4.31,4.31,0,0,0-1.25-.3h-.31a4,4,0,0,0-2.91,6.74h0a3.14,3.14,0,0,1,.51,1.76l-.58.75-3.19-2.47v0h0l-.05,0v0l-2-.57a2.48,2.48,0,0,1-5,0l-2.69.6h0L3,14.62,1.71,13,0,14.58,1.13,16l.12.16,1.29,1.66,1.83-1.41h0l2-1.58.39,8H15.3l.47-8,1.95,1.51h0l1.82,1.42,0-.05c.63.59,2.59.61,2.78.62s.38-.63,0-.76a2,2,0,0,1,0-1.33c.16-.39,1-3.18,1-3.18l5.78-1.79V7ZM21.8,10.72a1.59,1.59,0,1,1,1.59-1.59A1.59,1.59,0,0,1,21.8,10.72Z"/></g></g></svg>