<svg xmlns="http://www.w3.org/2000/svg" viewBox="0 0 27.7 27.7"><defs><style>.cls-1{fill:#fff;}</style></defs><g id="Camada_2" data-name="Camada 2"><g id="Camada_1-2" data-name="Camada 1"><path class="cls-1" d="M7.46,6.39A1.06,1.06,0,0,1,6.39,5.33V1.07a1.07,1.07,0,1,1,2.13,0V5.33A1.05,1.05,0,0,1,7.46,6.39Zm12.78,0a1.06,1.06,0,0,1-1.06-1.06V1.07a1.07,1.07,0,1,1,2.13,0V5.33A1.06,1.06,0,0,1,20.24,6.39Z"/><path class="cls-1" d="M24.51,27.7H3.2A3.19,3.19,0,0,1,0,24.51V5.33a3.2,3.2,0,0,1,3.2-3.2H24.51a3.2,3.2,0,0,1,3.19,3.2V24.51A3.19,3.19,0,0,1,24.51,27.7ZM3.2,4.26A1.07,1.07,0,0,0,2.13,5.33V24.51A1.07,1.07,0,0,0,3.2,25.57H24.51a1.07,1.07,0,0,0,1.06-1.06V5.33a1.07,1.07,0,0,0-1.06-1.07Z"/><path class="cls-1" d="M26.64,10.65H1.07a1.07,1.07,0,1,1,0-2.13H26.64a1.07,1.07,0,0,1,0,2.13ZM8.52,12.79h2.13v2.13H8.52Zm4.27,0h2.13v2.13H12.79Zm4.26,0h2.13v2.13H17.05Zm4.26,0h2.13v2.13H21.31Zm-17,4.26H6.39v2.13H4.26Zm4.26,0h2.13v2.13H8.52Zm4.27,0h2.13v2.13H12.79Zm4.26,0h2.13v2.13H17.05Zm4.26,0h2.13v2.13H21.31Zm-17,4.26H6.39v2.13H4.26Zm4.26,0h2.13v2.13H8.52Zm4.27,0h2.13v2.13H12.79Z"/></g></g></svg>