<?xml version="1.0" encoding="utf-8"?>
<!-- Generator: Adobe Illustrator 24.2.0, SVG Export Plug-In . SVG Version: 6.00 Build 0)  -->
<svg version="1.1" id="Camada_1" xmlns="http://www.w3.org/2000/svg" xmlns:xlink="http://www.w3.org/1999/xlink" x="0px" y="0px"
	 viewBox="0 0 800 800" style="enable-background:new 0 0 800 800;" xml:space="preserve">
<style type="text/css">
	.st0{fill:#F4F5F6;stroke:#FFFFFF;stroke-miterlimit:10;}
	.st1{fill:#D18D60;}
	.st2{fill:#B77A5C;}
	.st3{fill:#E2E2E2;}
	.st4{fill:#35221A;}
</style>
<g id="SVGRepo_bgCarrier">
</g>
<g id="SVGRepo_tracerCarrier">
</g>
<g id="SVGRepo_iconCarrier">
	<path class="st0" d="M83.3,633.3v-400h633.3v400c0,36.7-30,66.7-66.7,66.7H150C113.3,700,83.3,670,83.3,633.3L83.3,633.3z"/>
	<path class="st1" d="M716.7,166.7v100H83.3v-100c0-36.7,30-66.7,66.7-66.7h500C686.7,100,716.7,130,716.7,166.7L716.7,166.7z"/>
	<path class="st2" d="M500,166.7c0,27.6,22.4,50,50,50s50-22.4,50-50s-22.4-50-50-50S500,139.1,500,166.7z"/>
	<path class="st2" d="M200,166.7c0,27.6,22.4,50,50,50s50-22.4,50-50s-22.4-50-50-50S200,139.1,200,166.7z"/>
	<path class="st3" d="M550,50c-18.3,0-33.3,15-33.3,33.3v83.3c0,18.3,15,33.3,33.3,33.3s33.3-15,33.3-33.3V83.3
		C583.3,65,568.3,50,550,50z M250,50c-18.3,0-33.3,15-33.3,33.3v83.3c0,18.3,15,33.3,33.3,33.3s33.3-15,33.3-33.3V83.3
		C283.3,65,268.3,50,250,50z"/>
	<path class="st4" d="M216.7,333.3h66.7V400h-66.7V333.3z M316.7,333.3h66.7V400h-66.7V333.3z M416.7,333.3h66.7V400h-66.7V333.3z
		 M516.7,333.3h66.7V400h-66.7V333.3z M216.7,433.3h66.7V500h-66.7V433.3z M316.7,433.3h66.7V500h-66.7V433.3z M416.7,433.3h66.7
		V500h-66.7V433.3z M516.7,433.3h66.7V500h-66.7V433.3z M216.7,533.3h66.7V600h-66.7V533.3z M316.7,533.3h66.7V600h-66.7V533.3z
		 M416.7,533.3h66.7V600h-66.7V533.3z M516.7,533.3h66.7V600h-66.7V533.3z"/>
</g>
</svg>
